PlaypenARG-Light.ufo
<glyph name="exclam" format="2">
  <advance width="272.0"/>
  <unicode hex="0021"/>
  <outline>
    <contour>
      <point x="136.0" y="173.0" type="curve" smooth="yes"/>
      <point x="151.0" y="173.0"/>
      <point x="157.66666666666666" y="177.33333333333334"/>
      <point x="157.66666666666666" y="188.33333333333334" type="curve" smooth="yes"/>
      <point x="157.66666666666666" y="696.6666666666666" type="line" smooth="yes"/>
      <point x="157.66666666666666" y="707.6666666666666"/>
      <point x="150.33333333333334" y="712.0"/>
      <point x="136.0" y="712.0" type="curve" smooth="yes"/>
      <point x="121.0" y="712.0"/>
      <point x="114.33333333333333" y="707.6666666666666"/>
      <point x="114.33333333333333" y="696.6666666666666" type="curve" smooth="yes"/>
      <point x="114.33333333333333" y="188.33333333333334" type="line" smooth="yes"/>
      <point x="114.33333333333333" y="177.33333333333334"/>
      <point x="121.0" y="173.0"/>
    </contour>
    <contour>
      <point x="136.0" y="-11.0" type="curve" smooth="yes"/>
      <point x="159.66666666666666" y="-11.0"/>
      <point x="172.33333333333334" y="2.333333333333333"/>
      <point x="172.0" y="29.666666666666664" type="curve" smooth="yes"/>
      <point x="172.0" y="57.0"/>
      <point x="159.66666666666666" y="70.66666666666667"/>
      <point x="136.0" y="70.66666666666667" type="curve" smooth="yes"/>
      <point x="112.0" y="70.66666666666667"/>
      <point x="99.66666666666667" y="57.0"/>
      <point x="99.66666666666667" y="29.666666666666664" type="curve" smooth="yes"/>
      <point x="99.66666666666667" y="2.333333333333333"/>
      <point x="112.0" y="-11.0"/>
    </contour>
  </outline>
</glyph>
<glyph name="numbersign" format="2">
  <advance width="740.0"/>
  <unicode hex="0023"/>
  <outline>
    <contour>
      <point x="133.0" y="-16.0" type="curve" smooth="yes"/>
      <point x="148.0" y="-19.0"/>
      <point x="155.66666666666666" y="-16.666666666666668"/>
      <point x="158.33333333333334" y="-6.333333333333334" type="curve" smooth="yes"/>
      <point x="341.6666666666667" y="694.6666666666666" type="line" smooth="yes"/>
      <point x="344.3333333333333" y="705.0"/>
      <point x="338.3333333333333" y="711.6666666666666"/>
      <point x="325.0" y="715.0" type="curve" smooth="yes"/>
      <point x="310.0" y="718.3333333333334"/>
      <point x="302.3333333333333" y="715.6666666666666"/>
      <point x="299.6666666666667" y="705.3333333333334" type="curve" smooth="yes"/>
      <point x="116.33333333333333" y="4.333333333333333" type="line" smooth="yes"/>
      <point x="113.66666666666667" y="-6.0"/>
      <point x="119.0" y="-13.0"/>
    </contour>
    <contour>
      <point x="22.0" y="194.66666666666666" type="curve" smooth="yes"/>
      <point x="648.0" y="194.66666666666666" type="line" smooth="yes"/>
      <point x="659.3333333333334" y="194.66666666666666"/>
      <point x="663.3333333333334" y="200.0"/>
      <point x="663.3333333333334" y="214.0" type="curve" smooth="yes"/>
      <point x="663.3333333333334" y="228.66666666666666"/>
      <point x="659.3333333333334" y="234.66666666666666"/>
      <point x="648.0" y="234.66666666666666" type="curve" smooth="yes"/>
      <point x="22.0" y="234.66666666666666" type="line" smooth="yes"/>
      <point x="10.666666666666668" y="234.66666666666666"/>
      <point x="6.666666666666667" y="228.66666666666666"/>
      <point x="6.666666666666667" y="214.0" type="curve" smooth="yes"/>
      <point x="6.666666666666667" y="200.0"/>
      <point x="10.666666666666668" y="194.66666666666666"/>
    </contour>
    <contour>
      <point x="92.0" y="465.6666666666667" type="curve" smooth="yes"/>
      <point x="718.0" y="465.6666666666667" type="line" smooth="yes"/>
      <point x="729.3333333333334" y="465.6666666666667"/>
      <point x="733.3333333333334" y="471.0"/>
      <point x="733.3333333333334" y="485.0" type="curve" smooth="yes"/>
      <point x="733.3333333333334" y="499.6666666666667"/>
      <point x="729.3333333333334" y="505.6666666666667"/>
      <point x="718.0" y="505.6666666666667" type="curve" smooth="yes"/>
      <point x="92.0" y="505.6666666666667" type="line" smooth="yes"/>
      <point x="80.66666666666667" y="505.6666666666667"/>
      <point x="76.66666666666667" y="499.6666666666667"/>
      <point x="76.66666666666667" y="485.0" type="curve" smooth="yes"/>
      <point x="76.66666666666667" y="471.0"/>
      <point x="80.66666666666667" y="465.6666666666667"/>
    </contour>
    <contour>
      <point x="413.0" y="-16.0" type="curve" smooth="yes"/>
      <point x="428.0" y="-19.0"/>
      <point x="435.6666666666667" y="-16.666666666666668"/>
      <point x="438.3333333333333" y="-6.333333333333334" type="curve" smooth="yes"/>
      <point x="621.6666666666666" y="694.6666666666666" type="line" smooth="yes"/>
      <point x="624.3333333333334" y="705.0"/>
      <point x="618.3333333333334" y="711.6666666666666"/>
      <point x="605.0" y="715.0" type="curve" smooth="yes"/>
      <point x="590.0" y="718.3333333333334"/>
      <point x="582.3333333333334" y="715.6666666666666"/>
      <point x="579.6666666666666" y="705.3333333333334" type="curve" smooth="yes"/>
      <point x="396.3333333333333" y="4.333333333333333" type="line" smooth="yes"/>
      <point x="393.6666666666667" y="-6.0"/>
      <point x="399.0" y="-13.0"/>
    </contour>
  </outline>
</glyph>
<glyph name="quotesingle" format="2">
  <advance width="135.0"/>
  <unicode hex="0027"/>
  <outline>
    <contour>
      <point x="68.33333333333333" y="524.6666666666666" type="curve" smooth="yes"/>
      <point x="81.66666666666667" y="524.6666666666666"/>
      <point x="87.0" y="533.3333333333334"/>
      <point x="87.33333333333333" y="545.0" type="curve" smooth="yes"/>
      <point x="97.33333333333333" y="698.0" type="line" smooth="yes"/>
      <point x="98.33333333333333" y="711.0"/>
      <point x="89.66666666666667" y="722.0"/>
      <point x="68.33333333333333" y="722.0" type="curve" smooth="yes"/>
      <point x="47.666666666666664" y="722.0"/>
      <point x="39.0" y="711.0"/>
      <point x="40.0" y="698.0" type="curve" smooth="yes"/>
      <point x="50.0" y="543.6666666666666" type="line" smooth="yes"/>
      <point x="50.333333333333336" y="532.6666666666666"/>
      <point x="55.333333333333336" y="524.6666666666666"/>
    </contour>
  </outline>
</glyph>
<glyph name="parenright" format="2">
  <advance width="229.0"/>
  <unicode hex="0029"/>
  <outline>
    <contour>
      <point x="44.0" y="-34.333333333333336" type="curve" smooth="yes"/>
      <point x="36.666666666666664" y="-49.666666666666664"/>
      <point x="40.666666666666664" y="-54.0"/>
      <point x="54.0" y="-59.666666666666664" type="curve" smooth="yes"/>
      <point x="68.66666666666667" y="-65.66666666666667"/>
      <point x="73.33333333333333" y="-64.0"/>
      <point x="79.0" y="-52.333333333333336" type="curve" smooth="yes"/>
      <point x="142.33333333333334" y="85.33333333333333"/>
      <point x="170.66666666666666" y="217.66666666666666"/>
      <point x="170.66666666666666" y="350.0" type="curve" smooth="yes"/>
      <point x="170.66666666666666" y="482.3333333333333"/>
      <point x="142.33333333333334" y="614.6666666666666"/>
      <point x="79.0" y="752.3333333333334" type="curve" smooth="yes"/>
      <point x="73.33333333333333" y="764.0"/>
      <point x="68.66666666666667" y="765.6666666666666"/>
      <point x="54.0" y="759.6666666666666" type="curve" smooth="yes"/>
      <point x="40.666666666666664" y="754.0"/>
      <point x="36.666666666666664" y="749.6666666666666"/>
      <point x="44.0" y="734.3333333333334" type="curve" smooth="yes"/>
      <point x="98.33333333333333" y="614.6666666666666"/>
      <point x="127.33333333333333" y="482.3333333333333"/>
      <point x="127.33333333333333" y="350.0" type="curve" smooth="yes"/>
      <point x="127.33333333333333" y="217.66666666666666"/>
      <point x="98.33333333333333" y="85.33333333333333"/>
    </contour>
  </outline>
</glyph>
<glyph name="asterisk" format="2">
  <advance width="286.0"/>
  <unicode hex="002A"/>
  <outline>
    <contour>
      <point x="143.0" y="411.0" type="curve" smooth="yes"/>
      <point x="154.66666666666666" y="411.0"/>
      <point x="159.66666666666666" y="416.6666666666667"/>
      <point x="159.66666666666666" y="424.6666666666667" type="curve" smooth="yes"/>
      <point x="159.66666666666666" y="701.3333333333334" type="line" smooth="yes"/>
      <point x="159.66666666666666" y="709.3333333333334"/>
      <point x="154.66666666666666" y="715.0"/>
      <point x="143.0" y="715.0" type="curve" smooth="yes"/>
      <point x="131.33333333333334" y="715.0"/>
      <point x="126.33333333333333" y="709.3333333333334"/>
      <point x="126.33333333333333" y="701.3333333333334" type="curve" smooth="yes"/>
      <point x="126.33333333333333" y="424.6666666666667" type="line" smooth="yes"/>
      <point x="126.33333333333333" y="416.6666666666667"/>
      <point x="131.33333333333334" y="411.0"/>
    </contour>
    <contour>
      <point x="101.33333333333333" y="487.0" type="curve" smooth="yes"/>
      <point x="107.33333333333333" y="485.3333333333333"/>
      <point x="110.33333333333333" y="488.0"/>
      <point x="111.33333333333333" y="492.3333333333333" type="curve" smooth="yes"/>
      <point x="191.33333333333334" y="630.6666666666666" type="line" smooth="yes"/>
      <point x="192.33333333333334" y="634.3333333333334"/>
      <point x="190.33333333333334" y="637.3333333333334"/>
      <point x="184.66666666666669" y="639.0" type="curve" smooth="yes"/>
      <point x="178.66666666666669" y="640.6666666666666"/>
      <point x="175.66666666666669" y="638.0"/>
      <point x="174.66666666666669" y="633.6666666666666" type="curve" smooth="yes"/>
      <point x="94.66666666666666" y="495.3333333333333" type="line" smooth="yes"/>
      <point x="93.66666666666666" y="491.6666666666667"/>
      <point x="95.66666666666666" y="488.6666666666667"/>
    </contour>
    <contour>
      <point x="184.66666666666669" y="487.0" type="curve" smooth="yes"/>
      <point x="190.33333333333334" y="488.6666666666667"/>
      <point x="192.33333333333334" y="491.6666666666667"/>
      <point x="191.33333333333334" y="495.3333333333333" type="curve" smooth="yes"/>
      <point x="111.33333333333333" y="633.6666666666666" type="line" smooth="yes"/>
      <point x="110.33333333333333" y="638.0"/>
      <point x="107.33333333333333" y="640.6666666666666"/>
      <point x="101.33333333333333" y="639.0" type="curve" smooth="yes"/>
      <point x="95.66666666666666" y="637.3333333333334"/>
      <point x="93.66666666666666" y="634.3333333333334"/>
      <point x="94.66666666666666" y="630.6666666666666" type="curve" smooth="yes"/>
      <point x="174.66666666666669" y="492.3333333333333" type="line" smooth="yes"/>
      <point x="175.66666666666669" y="488.0"/>
      <point x="178.66666666666669" y="485.3333333333333"/>
    </contour>
  </outline>
</glyph>
<glyph name="plus" format="2">
  <advance width="610.0"/>
  <unicode hex="002B"/>
  <outline>
    <contour>
      <point x="304.3333333333333" y="124.0" type="curve" smooth="yes"/>
      <point x="318.6666666666667" y="124.0"/>
      <point x="325.6666666666667" y="128.33333333333334"/>
      <point x="325.6666666666667" y="139.0" type="curve" smooth="yes"/>
      <point x="325.6666666666667" y="559.0" type="line" smooth="yes"/>
      <point x="325.6666666666667" y="569.6666666666666"/>
      <point x="318.6666666666667" y="574.0"/>
      <point x="304.3333333333333" y="574.0" type="curve" smooth="yes"/>
      <point x="290.6666666666667" y="574.0"/>
      <point x="284.3333333333333" y="569.6666666666666"/>
      <point x="284.3333333333333" y="559.0" type="curve" smooth="yes"/>
      <point x="284.3333333333333" y="139.0" type="line" smooth="yes"/>
      <point x="284.3333333333333" y="128.33333333333334"/>
      <point x="290.6666666666667" y="124.0"/>
    </contour>
    <component base="minus"/>
  </outline>
</glyph>
<glyph name="comma" format="2">
  <advance width="250.0"/>
  <unicode hex="002C"/>
  <outline>
    <contour>
      <point x="86.66666666666667" y="-137.0" type="curve" smooth="yes"/>
      <point x="94.33333333333333" y="-137.0"/>
      <point x="100.0" y="-131.33333333333334"/>
      <point x="104.33333333333333" y="-125.33333333333333" type="curve" smooth="yes"/>
      <point x="139.0" y="-80.33333333333333"/>
      <point x="153.0" y="-25.666666666666668"/>
      <point x="153.0" y="35.0" type="curve" smooth="yes"/>
      <point x="153.0" y="49.0"/>
      <point x="144.0" y="60.333333333333336"/>
      <point x="124.0" y="60.333333333333336" type="curve" smooth="yes"/>
      <point x="105.0" y="60.333333333333336"/>
      <point x="96.0" y="51.0"/>
      <point x="96.0" y="37.0" type="curve" smooth="yes"/>
      <point x="96.0" y="-41.0"/>
      <point x="92.0" y="-61.0"/>
      <point x="69.0" y="-104.0" type="curve" smooth="yes"/>
      <point x="65.33333333333333" y="-111.0"/>
      <point x="62.333333333333336" y="-116.0"/>
      <point x="62.333333333333336" y="-120.0" type="curve" smooth="yes"/>
      <point x="62.333333333333336" y="-129.33333333333334"/>
      <point x="76.33333333333333" y="-137.0"/>
    </contour>
  </outline>
</glyph>
<glyph name="hyphen" format="2">
  <advance width="460.0"/>
  <unicode hex="002D"/>
  <outline>
    <contour>
      <point x="101.33333333333333" y="253.66666666666666" type="curve" smooth="yes"/>
      <point x="358.6666666666667" y="253.66666666666666" type="line" smooth="yes"/>
      <point x="370.0" y="253.66666666666666"/>
      <point x="374.0" y="259.0"/>
      <point x="374.0" y="273.0" type="curve" smooth="yes"/>
      <point x="374.0" y="287.6666666666667"/>
      <point x="370.0" y="293.6666666666667"/>
      <point x="358.6666666666667" y="293.6666666666667" type="curve" smooth="yes"/>
      <point x="101.33333333333333" y="293.6666666666667" type="line" smooth="yes"/>
      <point x="90.0" y="293.6666666666667"/>
      <point x="86.0" y="287.6666666666667"/>
      <point x="86.0" y="273.0" type="curve" smooth="yes"/>
      <point x="86.0" y="259.0"/>
      <point x="90.0" y="253.66666666666666"/>
    </contour>
  </outline>
</glyph>
<glyph name="period" format="2">
  <advance width="250.0"/>
  <unicode hex="002E"/>
  <outline>
    <contour>
      <point x="125.0" y="-16.333333333333332" type="curve" smooth="yes"/>
      <point x="150.0" y="-16.333333333333332"/>
      <point x="163.0" y="-2.6666666666666665"/>
      <point x="163.0" y="25.0" type="curve" smooth="yes"/>
      <point x="163.0" y="52.666666666666664"/>
      <point x="150.0" y="66.33333333333333"/>
      <point x="125.0" y="66.33333333333333" type="curve" smooth="yes"/>
      <point x="100.0" y="66.33333333333333"/>
      <point x="87.0" y="52.666666666666664"/>
      <point x="87.0" y="25.0" type="curve" smooth="yes"/>
      <point x="87.0" y="-2.6666666666666665"/>
      <point x="100.0" y="-16.333333333333332"/>
    </contour>
  </outline>
</glyph>
<glyph name="slash" format="2">
  <advance width="258.0"/>
  <unicode hex="002F"/>
  <outline>
    <contour>
      <point x="22.0" y="-60.0" type="curve" smooth="yes"/>
      <point x="37.0" y="-64.0"/>
      <point x="44.666666666666664" y="-61.333333333333336"/>
      <point x="47.333333333333336" y="-50.333333333333336" type="curve"/>
      <point x="252.66666666666666" y="739.6666666666666" type="line" smooth="yes"/>
      <point x="255.33333333333334" y="750.0"/>
      <point x="249.33333333333334" y="756.0"/>
      <point x="236.0" y="760.0" type="curve"/>
      <point x="221.0" y="764.0"/>
      <point x="213.33333333333334" y="761.3333333333334"/>
      <point x="210.66666666666666" y="750.3333333333334" type="curve"/>
      <point x="5.333333333333334" y="-39.666666666666664" type="line" smooth="yes"/>
      <point x="2.666666666666667" y="-50.0"/>
      <point x="8.0" y="-56.0"/>
    </contour>
  </outline>
</glyph>
<glyph name="zero" format="2">
  <advance width="610.0"/>
  <unicode hex="0030"/>
  <outline>
    <contour>
      <point x="306.3333333333333" y="-15.0" type="curve" smooth="yes"/>
      <point x="446.3333333333333" y="-15.0"/>
      <point x="552.0" y="97.0"/>
      <point x="552.0" y="349.0" type="curve" smooth="yes"/>
      <point x="552.0" y="600.0"/>
      <point x="446.3333333333333" y="712.0"/>
      <point x="306.3333333333333" y="712.0" type="curve" smooth="yes"/>
      <point x="163.66666666666666" y="712.0"/>
      <point x="58.0" y="600.0"/>
      <point x="58.0" y="349.0" type="curve" smooth="yes"/>
      <point x="58.0" y="97.0"/>
      <point x="163.66666666666666" y="-15.0"/>
    </contour>
    <contour>
      <point x="305.6666666666667" y="27.666666666666664" type="curve" smooth="yes"/>
      <point x="187.33333333333334" y="27.666666666666664"/>
      <point x="105.0" y="129.33333333333334"/>
      <point x="105.0" y="349.0" type="curve" smooth="yes"/>
      <point x="105.0" y="568.6666666666666"/>
      <point x="187.33333333333334" y="669.3333333333334"/>
      <point x="305.6666666666667" y="669.3333333333334" type="curve" smooth="yes"/>
      <point x="422.6666666666667" y="669.3333333333334"/>
      <point x="505.0" y="568.6666666666666"/>
      <point x="505.0" y="349.0" type="curve" smooth="yes"/>
      <point x="505.0" y="129.33333333333334"/>
      <point x="422.6666666666667" y="27.666666666666664"/>
    </contour>
  </outline>
</glyph>
<glyph name="one" format="2">
  <advance width="360.0"/>
  <unicode hex="0031"/>
  <outline>
    <contour>
      <point x="194.0" y="-11.0" type="curve" smooth="yes"/>
      <point x="209.66666666666666" y="-11.0"/>
      <point x="215.66666666666666" y="-6.333333333333334"/>
      <point x="215.66666666666666" y="4.333333333333333" type="curve" smooth="yes"/>
      <point x="215.66666666666666" y="696.6666666666666" type="line" smooth="yes"/>
      <point x="215.66666666666666" y="706.3333333333334"/>
      <point x="210.66666666666666" y="712.0"/>
      <point x="195.0" y="712.0" type="curve" smooth="yes"/>
      <point x="179.66666666666666" y="712.0"/>
      <point x="174.66666666666666" y="709.3333333333334"/>
      <point x="166.66666666666666" y="701.3333333333334" type="curve" smooth="yes"/>
      <point x="119.33333333333333" y="652.3333333333334"/>
      <point x="72.0" y="616.0"/>
      <point x="28.0" y="589.0" type="curve" smooth="yes"/>
      <point x="14.333333333333334" y="580.0"/>
      <point x="12.666666666666668" y="574.0"/>
      <point x="21.333333333333336" y="560.3333333333334" type="curve" smooth="yes"/>
      <point x="30.0" y="547.6666666666666"/>
      <point x="39.666666666666664" y="549.3333333333334"/>
      <point x="50.666666666666664" y="556.0" type="curve" smooth="yes"/>
      <point x="85.66666666666667" y="576.6666666666666"/>
      <point x="132.66666666666666" y="611.6666666666666"/>
      <point x="172.33333333333334" y="649.0" type="curve"/>
      <point x="172.33333333333334" y="4.333333333333333" type="line" smooth="yes"/>
      <point x="172.33333333333334" y="-6.333333333333334"/>
      <point x="178.33333333333334" y="-11.0"/>
    </contour>
  </outline>
</glyph>
<glyph name="two" format="2">
  <advance width="530.0"/>
  <unicode hex="0032"/>
  <outline>
    <contour>
      <point x="59.666666666666664" y="0.0" type="curve" smooth="yes"/>
      <point x="456.3333333333333" y="0.0" type="line" smooth="yes"/>
      <point x="465.6666666666667" y="0.0"/>
      <point x="469.6666666666667" y="7.333333333333333"/>
      <point x="469.6666666666667" y="21.333333333333332" type="curve" smooth="yes"/>
      <point x="469.6666666666667" y="35.666666666666664"/>
      <point x="464.6666666666667" y="40.0"/>
      <point x="456.3333333333333" y="40.0" type="curve" smooth="yes"/>
      <point x="112.66666666666667" y="40.0" type="line"/>
      <point x="209.33333333333334" y="136.33333333333334" type="line" smooth="yes"/>
      <point x="348.6666666666667" y="275.0"/>
      <point x="458.6666666666667" y="411.3333333333333"/>
      <point x="458.6666666666667" y="533.3333333333334" type="curve" smooth="yes"/>
      <point x="458.6666666666667" y="655.0"/>
      <point x="371.0" y="712.0"/>
      <point x="260.0" y="712.0" type="curve" smooth="yes"/>
      <point x="173.66666666666666" y="712.0"/>
      <point x="97.66666666666667" y="673.0"/>
      <point x="62.0" y="631.0" type="curve" smooth="yes"/>
      <point x="56.0" y="623.6666666666666"/>
      <point x="49.666666666666664" y="614.0"/>
      <point x="63.333333333333336" y="603.0" type="curve" smooth="yes"/>
      <point x="74.66666666666667" y="593.6666666666666"/>
      <point x="83.0" y="595.3333333333334"/>
      <point x="93.0" y="604.3333333333334" type="curve" smooth="yes"/>
      <point x="139.0" y="645.3333333333334"/>
      <point x="188.0" y="670.3333333333334"/>
      <point x="257.0" y="670.3333333333334" type="curve" smooth="yes"/>
      <point x="351.6666666666667" y="670.3333333333334"/>
      <point x="414.0" y="630.6666666666666"/>
      <point x="414.0" y="530.3333333333334" type="curve" smooth="yes"/>
      <point x="414.0" y="423.0"/>
      <point x="315.6666666666667" y="299.6666666666667"/>
      <point x="184.33333333333334" y="168.33333333333334" type="curve" smooth="yes"/>
      <point x="45.666666666666664" y="29.666666666666664" type="line"/>
      <point x="35.333333333333336" y="18.666666666666664"/>
      <point x="43.333333333333336" y="0.0"/>
    </contour>
  </outline>
</glyph>
<glyph name="three" format="2">
  <advance width="530.0"/>
  <unicode hex="0033"/>
  <outline>
    <contour>
      <point x="251.33333333333334" y="-15.0" type="curve" smooth="yes"/>
      <point x="391.0" y="-15.0"/>
      <point x="470.6666666666667" y="70.66666666666667"/>
      <point x="470.6666666666667" y="198.66666666666666" type="curve" smooth="yes"/>
      <point x="470.6666666666667" y="285.3333333333333"/>
      <point x="420.0" y="356.0"/>
      <point x="317.3333333333333" y="378.0" type="curve"/>
      <point x="405.0" y="405.0"/>
      <point x="440.6666666666667" y="474.3333333333333"/>
      <point x="440.6666666666667" y="540.3333333333334" type="curve" smooth="yes"/>
      <point x="440.6666666666667" y="656.3333333333334"/>
      <point x="354.6666666666667" y="712.0"/>
      <point x="247.66666666666666" y="712.0" type="curve" smooth="yes"/>
      <point x="166.33333333333334" y="712.0"/>
      <point x="97.0" y="675.6666666666666"/>
      <point x="56.666666666666664" y="633.6666666666666" type="curve" smooth="yes"/>
      <point x="50.333333333333336" y="626.6666666666666"/>
      <point x="44.0" y="618.0"/>
      <point x="57.333333333333336" y="605.6666666666666" type="curve" smooth="yes"/>
      <point x="67.66666666666667" y="595.3333333333334"/>
      <point x="77.33333333333333" y="598.3333333333334"/>
      <point x="87.66666666666667" y="607.0" type="curve" smooth="yes"/>
      <point x="135.33333333333334" y="647.3333333333334"/>
      <point x="183.33333333333334" y="670.6666666666666"/>
      <point x="247.66666666666666" y="670.6666666666666" type="curve" smooth="yes"/>
      <point x="323.3333333333333" y="670.6666666666666"/>
      <point x="395.3333333333333" y="631.6666666666666"/>
      <point x="395.3333333333333" y="540.3333333333334" type="curve" smooth="yes"/>
      <point x="395.3333333333333" y="468.0"/>
      <point x="348.6666666666667" y="397.0"/>
      <point x="243.0" y="397.0" type="curve" smooth="yes"/>
      <point x="191.0" y="397.0" type="line" smooth="yes"/>
      <point x="182.66666666666666" y="397.0"/>
      <point x="177.66666666666666" y="392.0"/>
      <point x="177.66666666666666" y="377.6666666666667" type="curve" smooth="yes"/>
      <point x="177.66666666666666" y="363.6666666666667"/>
      <point x="181.66666666666666" y="357.0"/>
      <point x="191.0" y="357.0" type="curve" smooth="yes"/>
      <point x="240.33333333333334" y="357.0" type="line" smooth="yes"/>
      <point x="352.3333333333333" y="357.0"/>
      <point x="424.3333333333333" y="293.6666666666667"/>
      <point x="424.3333333333333" y="201.33333333333334" type="curve" smooth="yes"/>
      <point x="424.3333333333333" y="92.0"/>
      <point x="358.3333333333333" y="26.333333333333332"/>
      <point x="250.33333333333334" y="26.333333333333332" type="curve" smooth="yes"/>
      <point x="180.0" y="26.333333333333332"/>
      <point x="122.33333333333333" y="57.666666666666664"/>
      <point x="66.33333333333333" y="124.0" type="curve" smooth="yes"/>
      <point x="56.333333333333336" y="135.66666666666666"/>
      <point x="48.333333333333336" y="135.0"/>
      <point x="37.666666666666664" y="125.66666666666667" type="curve" smooth="yes"/>
      <point x="25.333333333333336" y="115.33333333333333"/>
      <point x="28.666666666666668" y="106.0"/>
      <point x="37.333333333333336" y="95.33333333333333" type="curve" smooth="yes"/>
      <point x="101.0" y="15.666666666666666"/>
      <point x="175.33333333333334" y="-15.0"/>
    </contour>
  </outline>
</glyph>
<glyph name="four" format="2">
  <advance width="540.0"/>
  <unicode hex="0034"/>
  <outline>
    <contour>
      <point x="54.0" y="190.0" type="curve" smooth="yes"/>
      <point x="500.6666666666667" y="190.0" type="line" smooth="yes"/>
      <point x="512.6666666666666" y="190.0"/>
      <point x="516.0" y="196.0"/>
      <point x="516.0" y="210.66666666666666" type="curve" smooth="yes"/>
      <point x="516.0" y="225.66666666666666"/>
      <point x="511.6666666666667" y="230.0"/>
      <point x="500.6666666666667" y="230.0" type="curve" smooth="yes"/>
      <point x="87.0" y="230.0" type="line"/>
      <point x="299.6666666666667" y="689.0" type="line" smooth="yes"/>
      <point x="307.0" y="704.6666666666666"/>
      <point x="299.0" y="712.0"/>
      <point x="283.6666666666667" y="712.0" type="curve" smooth="yes"/>
      <point x="267.0" y="712.0"/>
      <point x="261.6666666666667" y="707.3333333333334"/>
      <point x="256.3333333333333" y="696.0" type="curve" smooth="yes"/>
      <point x="36.333333333333336" y="215.0" type="line" smooth="yes"/>
      <point x="29.666666666666668" y="199.66666666666666"/>
      <point x="40.0" y="190.0"/>
    </contour>
    <contour>
      <point x="402.3333333333333" y="-11.0" type="curve" smooth="yes"/>
      <point x="417.3333333333333" y="-11.0"/>
      <point x="424.0" y="-6.666666666666667"/>
      <point x="424.0" y="4.333333333333333" type="curve" smooth="yes"/>
      <point x="424.0" y="476.6666666666667" type="line" smooth="yes"/>
      <point x="424.0" y="487.6666666666667"/>
      <point x="417.3333333333333" y="492.0"/>
      <point x="402.3333333333333" y="492.0" type="curve" smooth="yes"/>
      <point x="387.3333333333333" y="492.0"/>
      <point x="380.6666666666667" y="487.6666666666667"/>
      <point x="380.6666666666667" y="476.6666666666667" type="curve" smooth="yes"/>
      <point x="380.6666666666667" y="4.333333333333333" type="line" smooth="yes"/>
      <point x="380.6666666666667" y="-6.666666666666667"/>
      <point x="387.3333333333333" y="-11.0"/>
    </contour>
  </outline>
</glyph>
<glyph name="five" format="2">
  <advance width="530.0"/>
  <unicode hex="0035"/>
  <outline>
    <contour>
      <point x="259.6666666666667" y="-15.0" type="curve" smooth="yes"/>
      <point x="393.0" y="-15.0"/>
      <point x="478.3333333333333" y="70.0"/>
      <point x="478.3333333333333" y="218.0" type="curve" smooth="yes"/>
      <point x="478.3333333333333" y="348.0"/>
      <point x="398.0" y="438.6666666666667"/>
      <point x="263.6666666666667" y="438.6666666666667" type="curve" smooth="yes"/>
      <point x="211.0" y="438.6666666666667"/>
      <point x="163.0" y="418.0"/>
      <point x="130.66666666666666" y="392.0" type="curve"/>
      <point x="140.66666666666666" y="660.0" type="line"/>
      <point x="437.3333333333333" y="660.0" type="line" smooth="yes"/>
      <point x="446.6666666666667" y="660.0"/>
      <point x="450.6666666666667" y="667.3333333333334"/>
      <point x="450.6666666666667" y="681.3333333333334" type="curve" smooth="yes"/>
      <point x="450.6666666666667" y="695.6666666666666"/>
      <point x="445.6666666666667" y="700.0"/>
      <point x="437.3333333333333" y="700.0" type="curve" smooth="yes"/>
      <point x="118.66666666666667" y="700.0" type="line" smooth="yes"/>
      <point x="107.33333333333333" y="700.0"/>
      <point x="101.33333333333333" y="695.3333333333334"/>
      <point x="101.33333333333333" y="686.3333333333334" type="curve" smooth="yes"/>
      <point x="88.33333333333333" y="346.3333333333333" type="line" smooth="yes"/>
      <point x="88.0" y="333.3333333333333"/>
      <point x="109.66666666666667" y="322.6666666666667"/>
      <point x="123.33333333333333" y="338.0" type="curve" smooth="yes"/>
      <point x="157.66666666666666" y="379.3333333333333"/>
      <point x="207.0" y="398.0"/>
      <point x="262.3333333333333" y="398.0" type="curve" smooth="yes"/>
      <point x="368.3333333333333" y="398.0"/>
      <point x="432.0" y="321.3333333333333"/>
      <point x="432.0" y="218.0" type="curve" smooth="yes"/>
      <point x="432.0" y="96.0"/>
      <point x="373.6666666666667" y="25.666666666666664"/>
      <point x="262.0" y="25.666666666666664" type="curve" smooth="yes"/>
      <point x="189.0" y="25.666666666666664"/>
      <point x="138.66666666666666" y="57.666666666666664"/>
      <point x="86.33333333333333" y="124.0" type="curve" smooth="yes"/>
      <point x="77.0" y="135.66666666666666"/>
      <point x="68.33333333333333" y="134.33333333333334"/>
      <point x="58.333333333333336" y="125.66666666666667" type="curve" smooth="yes"/>
      <point x="45.333333333333336" y="115.33333333333333"/>
      <point x="49.666666666666664" y="106.0"/>
      <point x="57.333333333333336" y="95.33333333333333" type="curve" smooth="yes"/>
      <point x="110.0" y="21.0"/>
      <point x="183.33333333333334" y="-15.0"/>
    </contour>
  </outline>
</glyph>
<glyph name="six" format="2">
  <advance width="570.0"/>
  <unicode hex="0036"/>
  <outline>
    <contour>
      <point x="300.0" y="-15.0" type="curve" smooth="yes"/>
      <point x="434.0" y="-15.0"/>
      <point x="516.6666666666666" y="78.0"/>
      <point x="516.6666666666666" y="216.0" type="curve" smooth="yes"/>
      <point x="516.6666666666666" y="349.0"/>
      <point x="435.3333333333333" y="428.6666666666667"/>
      <point x="305.0" y="428.6666666666667" type="curve" smooth="yes"/>
      <point x="208.66666666666666" y="428.6666666666667"/>
      <point x="122.0" y="366.3333333333333"/>
      <point x="94.66666666666667" y="279.6666666666667" type="curve"/>
      <point x="106.66666666666667" y="240.66666666666666" type="line"/>
      <point x="132.66666666666666" y="323.6666666666667"/>
      <point x="213.33333333333334" y="388.0"/>
      <point x="304.0" y="388.0" type="curve" smooth="yes"/>
      <point x="406.3333333333333" y="388.0"/>
      <point x="470.3333333333333" y="322.0"/>
      <point x="470.3333333333333" y="215.33333333333334" type="curve" smooth="yes"/>
      <point x="470.3333333333333" y="102.66666666666667"/>
      <point x="407.0" y="26.333333333333332"/>
      <point x="300.0" y="26.333333333333332" type="curve" smooth="yes"/>
      <point x="198.66666666666666" y="26.333333333333332"/>
      <point x="119.66666666666667" y="112.0"/>
      <point x="119.66666666666667" y="276.0" type="curve" smooth="yes"/>
      <point x="119.66666666666667" y="495.0"/>
      <point x="191.0" y="654.6666666666666"/>
      <point x="426.3333333333333" y="673.3333333333334" type="curve" smooth="yes"/>
      <point x="439.6666666666667" y="674.6666666666666"/>
      <point x="442.0" y="681.6666666666666"/>
      <point x="440.6666666666667" y="695.3333333333334" type="curve" smooth="yes"/>
      <point x="439.3333333333333" y="710.6666666666666"/>
      <point x="433.6666666666667" y="712.6666666666666"/>
      <point x="409.3333333333333" y="711.0" type="curve" smooth="yes"/>
      <point x="168.33333333333334" y="692.3333333333334"/>
      <point x="73.33333333333333" y="521.3333333333334"/>
      <point x="73.33333333333333" y="280.0" type="curve" smooth="yes"/>
      <point x="73.33333333333333" y="104.0"/>
      <point x="153.0" y="-15.0"/>
    </contour>
  </outline>
</glyph>
<glyph name="seven" format="2">
  <advance width="430.0"/>
  <unicode hex="0037"/>
  <outline>
    <contour>
      <point x="116.0" y="-9.333333333333334" type="curve" smooth="yes"/>
      <point x="133.33333333333334" y="-15.666666666666666"/>
      <point x="138.66666666666666" y="-9.666666666666666"/>
      <point x="145.66666666666666" y="8.0" type="curve" smooth="yes"/>
      <point x="412.3333333333333" y="676.6666666666666" type="line" smooth="yes"/>
      <point x="417.3333333333333" y="689.6666666666666"/>
      <point x="408.0" y="700.0"/>
      <point x="397.0" y="700.0" type="curve" smooth="yes"/>
      <point x="22.666666666666668" y="700.0" type="line" smooth="yes"/>
      <point x="13.333333333333334" y="700.0"/>
      <point x="9.333333333333334" y="694.0"/>
      <point x="9.333333333333334" y="680.0" type="curve" smooth="yes"/>
      <point x="9.333333333333334" y="665.6666666666666"/>
      <point x="14.333333333333334" y="660.0"/>
      <point x="22.666666666666668" y="660.0" type="curve" smooth="yes"/>
      <point x="361.6666666666667" y="660.0" type="line"/>
      <point x="104.0" y="15.0" type="line" smooth="yes"/>
      <point x="99.0" y="1.6666666666666665"/>
      <point x="101.0" y="-3.666666666666667"/>
    </contour>
  </outline>
</glyph>
<glyph name="eight" format="2">
  <advance width="530.0"/>
  <unicode hex="0038"/>
  <outline>
    <contour>
      <point x="265.3333333333333" y="-15.0" type="curve" smooth="yes"/>
      <point x="402.3333333333333" y="-15.0"/>
      <point x="484.6666666666667" y="60.666666666666664"/>
      <point x="484.6666666666667" y="186.33333333333334" type="curve" smooth="yes"/>
      <point x="484.6666666666667" y="270.0"/>
      <point x="433.3333333333333" y="339.0"/>
      <point x="326.0" y="379.6666666666667" type="curve"/>
      <point x="418.0" y="417.3333333333333"/>
      <point x="454.6666666666667" y="488.0"/>
      <point x="454.6666666666667" y="549.6666666666666" type="curve" smooth="yes"/>
      <point x="454.6666666666667" y="666.0"/>
      <point x="369.3333333333333" y="712.6666666666666"/>
      <point x="268.0" y="712.6666666666666" type="curve" smooth="yes"/>
      <point x="165.66666666666666" y="712.6666666666666"/>
      <point x="76.33333333333333" y="659.0"/>
      <point x="76.33333333333333" y="543.0" type="curve" smooth="yes"/>
      <point x="76.33333333333333" y="473.0"/>
      <point x="118.0" y="410.0"/>
      <point x="207.33333333333334" y="375.6666666666667" type="curve"/>
      <point x="97.0" y="334.3333333333333"/>
      <point x="46.333333333333336" y="256.3333333333333"/>
      <point x="46.333333333333336" y="175.33333333333334" type="curve" smooth="yes"/>
      <point x="46.333333333333336" y="54.333333333333336"/>
      <point x="128.33333333333334" y="-15.0"/>
    </contour>
    <contour>
      <point x="266.0" y="25.666666666666664" type="curve" smooth="yes"/>
      <point x="157.33333333333334" y="25.666666666666664"/>
      <point x="92.66666666666667" y="79.66666666666667"/>
      <point x="92.66666666666667" y="177.0" type="curve" smooth="yes"/>
      <point x="92.66666666666667" y="262.3333333333333"/>
      <point x="156.66666666666666" y="326.3333333333333"/>
      <point x="263.0" y="356.3333333333333" type="curve"/>
      <point x="371.6666666666667" y="325.6666666666667"/>
      <point x="438.3333333333333" y="270.6666666666667"/>
      <point x="438.3333333333333" y="184.33333333333334" type="curve" smooth="yes"/>
      <point x="438.3333333333333" y="83.0"/>
      <point x="374.0" y="25.666666666666664"/>
    </contour>
    <contour>
      <point x="272.3333333333333" y="396.0" type="curve"/>
      <point x="170.0" y="422.3333333333333"/>
      <point x="122.33333333333333" y="479.6666666666667"/>
      <point x="122.33333333333333" y="543.6666666666666" type="curve" smooth="yes"/>
      <point x="122.33333333333333" y="632.6666666666666"/>
      <point x="191.0" y="672.0"/>
      <point x="266.0" y="672.0" type="curve" smooth="yes"/>
      <point x="341.0" y="672.0"/>
      <point x="408.6666666666667" y="639.0"/>
      <point x="408.6666666666667" y="550.3333333333334" type="curve" smooth="yes"/>
      <point x="408.6666666666667" y="484.3333333333333"/>
      <point x="363.6666666666667" y="421.6666666666667"/>
    </contour>
  </outline>
</glyph>
<glyph name="less" format="2">
  <advance width="610.0"/>
  <unicode hex="003C"/>
  <outline>
    <contour>
      <point x="506.3333333333333" y="148.66666666666666" type="line" smooth="yes"/>
      <point x="520.0" y="142.66666666666666"/>
      <point x="527.0" y="144.66666666666666"/>
      <point x="532.0" y="158.33333333333334" type="curve" smooth="yes"/>
      <point x="537.0" y="171.33333333333334"/>
      <point x="535.3333333333334" y="179.66666666666666"/>
      <point x="524.0" y="184.66666666666666" type="curve" smooth="yes"/>
      <point x="139.66666666666666" y="352.3333333333333" type="line"/>
      <point x="524.0" y="520.0" type="line" smooth="yes"/>
      <point x="535.6666666666666" y="525.0"/>
      <point x="537.3333333333334" y="533.3333333333334"/>
      <point x="532.0" y="546.3333333333334" type="curve" smooth="yes"/>
      <point x="527.0" y="559.6666666666666"/>
      <point x="520.3333333333334" y="562.0"/>
      <point x="506.3333333333333" y="556.0" type="curve" smooth="yes"/>
      <point x="105.0" y="380.6666666666667" type="line" smooth="yes"/>
      <point x="87.0" y="372.6666666666667"/>
      <point x="80.0" y="367.6666666666667"/>
      <point x="80.0" y="352.3333333333333" type="curve" smooth="yes"/>
      <point x="80.0" y="337.6666666666667"/>
      <point x="87.0" y="332.0"/>
      <point x="105.0" y="324.0" type="curve" smooth="yes"/>
    </contour>
  </outline>
</glyph>
<glyph name="question" format="2">
  <advance width="398.0"/>
  <unicode hex="003F"/>
  <outline>
    <contour>
      <point x="156.0" y="172.66666666666666" type="curve" smooth="yes"/>
      <point x="171.0" y="172.66666666666666"/>
      <point x="177.66666666666666" y="176.33333333333334"/>
      <point x="177.66666666666666" y="188.0" type="curve" smooth="yes"/>
      <point x="177.66666666666666" y="308.6666666666667" type="line"/>
      <point x="278.6666666666667" y="319.6666666666667"/>
      <point x="378.0" y="371.3333333333333"/>
      <point x="378.0" y="515.0" type="curve" smooth="yes"/>
      <point x="378.0" y="645.0"/>
      <point x="294.6666666666667" y="712.0"/>
      <point x="196.0" y="712.0" type="curve" smooth="yes"/>
      <point x="125.33333333333333" y="712.0"/>
      <point x="60.0" y="681.0"/>
      <point x="19.666666666666668" y="637.3333333333334" type="curve" smooth="yes"/>
      <point x="13.0" y="630.3333333333334"/>
      <point x="11.666666666666666" y="621.6666666666666"/>
      <point x="21.666666666666668" y="611.3333333333334" type="curve" smooth="yes"/>
      <point x="31.666666666666668" y="601.3333333333334"/>
      <point x="40.666666666666664" y="603.0"/>
      <point x="49.0" y="610.6666666666666" type="curve" smooth="yes"/>
      <point x="89.33333333333333" y="648.0"/>
      <point x="132.0" y="670.6666666666666"/>
      <point x="196.0" y="670.6666666666666" type="curve" smooth="yes"/>
      <point x="273.0" y="670.6666666666666"/>
      <point x="332.6666666666667" y="615.6666666666666"/>
      <point x="332.6666666666667" y="517.0" type="curve" smooth="yes"/>
      <point x="332.6666666666667" y="385.0"/>
      <point x="243.0" y="348.6666666666667"/>
      <point x="150.0" y="348.0" type="curve" smooth="yes"/>
      <point x="140.0" y="348.0"/>
      <point x="134.33333333333334" y="342.3333333333333"/>
      <point x="134.33333333333334" y="331.3333333333333" type="curve" smooth="yes"/>
      <point x="134.33333333333334" y="188.66666666666666" type="line" smooth="yes"/>
      <point x="134.33333333333334" y="176.33333333333334"/>
      <point x="141.0" y="172.66666666666666"/>
    </contour>
    <contour>
      <point x="156.0" y="-11.0" type="curve" smooth="yes"/>
      <point x="179.66666666666666" y="-11.0"/>
      <point x="192.0" y="2.333333333333333"/>
      <point x="192.0" y="29.666666666666664" type="curve" smooth="yes"/>
      <point x="192.0" y="57.0"/>
      <point x="179.66666666666666" y="70.66666666666667"/>
      <point x="156.0" y="70.66666666666667" type="curve" smooth="yes"/>
      <point x="132.0" y="70.66666666666667"/>
      <point x="119.66666666666667" y="57.0"/>
      <point x="119.66666666666667" y="29.666666666666664" type="curve" smooth="yes"/>
      <point x="119.66666666666667" y="2.333333333333333"/>
      <point x="132.0" y="-11.0"/>
    </contour>
  </outline>
</glyph>
<glyph name="A" format="2">
  <advance width="600.0"/>
  <unicode hex="0041"/>
  <anchor x="300.0" y="0.0" name="bottom"/>
  <anchor x="574.0" y="-2.0" name="ogonek"/>
  <anchor x="300.0" y="670.0" name="top"/>
  <outline>
    <contour>
      <point x="39.666666666666664" y="-10.333333333333334" type="curve" smooth="yes"/>
      <point x="54.666666666666664" y="-13.0"/>
      <point x="59.666666666666664" y="-8.333333333333334"/>
      <point x="65.66666666666667" y="7.333333333333333" type="curve" smooth="yes"/>
      <point x="139.66666666666666" y="209.66666666666666" type="line"/>
      <point x="460.0" y="209.66666666666666" type="line"/>
      <point x="534.0" y="7.333333333333333" type="line" smooth="yes"/>
      <point x="540.0" y="-8.333333333333334"/>
      <point x="545.0" y="-13.0"/>
      <point x="560.3333333333334" y="-10.333333333333334" type="curve" smooth="yes"/>
      <point x="576.3333333333334" y="-7.666666666666666"/>
      <point x="581.0" y="-0.3333333333333335"/>
      <point x="576.3333333333334" y="13.0" type="curve" smooth="yes"/>
      <point x="326.3333333333333" y="693.3333333333334" type="line" smooth="yes"/>
      <point x="321.3333333333333" y="707.6666666666666"/>
      <point x="315.3333333333333" y="712.0"/>
      <point x="300.3333333333333" y="712.0" type="curve" smooth="yes"/>
      <point x="284.3333333333333" y="712.0"/>
      <point x="278.3333333333333" y="707.6666666666666"/>
      <point x="273.3333333333333" y="693.3333333333334" type="curve" smooth="yes"/>
      <point x="24.0" y="13.0" type="line" smooth="yes"/>
      <point x="19.333333333333336" y="-0.3333333333333335"/>
      <point x="23.666666666666668" y="-7.666666666666666"/>
    </contour>
    <contour>
      <point x="154.0" y="249.66666666666666" type="line"/>
      <point x="300.0" y="647.0" type="line"/>
      <point x="445.0" y="249.66666666666666" type="line"/>
    </contour>
  </outline>
</glyph>
<glyph name="B" format="2">
  <advance width="580.0"/>
  <unicode hex="0042"/>
  <anchor x="290.0" y="0.0" name="bottom"/>
  <anchor x="136.0" y="206.0" name="center"/>
  <anchor x="290.0" y="670.0" name="top"/>
  <outline>
    <contour>
      <point x="135.0" y="0.0" type="curve" smooth="yes"/>
      <point x="277.0" y="0.0" type="line" smooth="yes"/>
      <point x="436.0" y="0.0"/>
      <point x="540.0" y="88.0"/>
      <point x="540.0" y="217.0" type="curve" smooth="yes"/>
      <point x="540.0" y="328.0"/>
      <point x="448.0" y="369.3333333333333"/>
      <point x="348.0" y="371.3333333333333" type="curve"/>
      <point x="348.0" y="374.3333333333333" type="line"/>
      <point x="416.0" y="387.3333333333333"/>
      <point x="510.0" y="444.3333333333333"/>
      <point x="510.0" y="551.6666666666666" type="curve" smooth="yes"/>
      <point x="510.0" y="659.6666666666666"/>
      <point x="435.3333333333333" y="700.0"/>
      <point x="301.0" y="700.0" type="curve" smooth="yes"/>
      <point x="136.0" y="700.0" type="line" smooth="yes"/>
      <point x="120.66666666666667" y="700.0"/>
      <point x="113.33333333333333" y="695.6666666666666"/>
      <point x="113.33333333333333" y="684.6666666666666" type="curve" smooth="yes"/>
      <point x="113.33333333333333" y="15.333333333333332" type="line" smooth="yes"/>
      <point x="113.33333333333333" y="4.333333333333333"/>
      <point x="120.0" y="0.0"/>
    </contour>
    <contour>
      <point x="156.66666666666666" y="40.0" type="line"/>
      <point x="156.66666666666666" y="350.0" type="line"/>
      <point x="293.6666666666667" y="350.0" type="line" smooth="yes"/>
      <point x="412.6666666666667" y="350.0"/>
      <point x="494.0" y="315.0"/>
      <point x="494.0" y="216.0" type="curve" smooth="yes"/>
      <point x="494.0" y="116.0"/>
      <point x="414.0" y="40.0"/>
      <point x="277.0" y="40.0" type="curve" smooth="yes"/>
    </contour>
    <contour>
      <point x="156.66666666666666" y="390.0" type="line"/>
      <point x="156.66666666666666" y="660.0" type="line"/>
      <point x="301.0" y="660.0" type="line" smooth="yes"/>
      <point x="405.0" y="660.0"/>
      <point x="464.6666666666667" y="632.3333333333334"/>
      <point x="464.6666666666667" y="551.0" type="curve" smooth="yes"/>
      <point x="464.6666666666667" y="451.6666666666667"/>
      <point x="380.6666666666667" y="390.0"/>
      <point x="279.0" y="390.0" type="curve" smooth="yes"/>
    </contour>
  </outline>
</glyph>
<glyph name="C" format="2">
  <advance width="620.0"/>
  <unicode hex="0043"/>
  <anchor x="352.0" y="0.0" name="bottom"/>
  <anchor x="365.0" y="670.0" name="top"/>
  <outline>
    <contour>
      <point x="362.3333333333333" y="-15.0" type="curve" smooth="yes"/>
      <point x="446.0" y="-15.0"/>
      <point x="519.0" y="23.666666666666668"/>
      <point x="582.0" y="100.66666666666667" type="curve" smooth="yes"/>
      <point x="590.3333333333334" y="110.66666666666667"/>
      <point x="589.0" y="116.66666666666667"/>
      <point x="579.0" y="125.33333333333333" type="curve" smooth="yes"/>
      <point x="568.0" y="134.66666666666666"/>
      <point x="560.6666666666666" y="134.33333333333334"/>
      <point x="551.6666666666666" y="124.33333333333333" type="curve" smooth="yes"/>
      <point x="500.6666666666667" y="67.33333333333333"/>
      <point x="443.3333333333333" y="27.666666666666664"/>
      <point x="362.3333333333333" y="27.666666666666664" type="curve" smooth="yes"/>
      <point x="215.66666666666666" y="27.666666666666664"/>
      <point x="118.66666666666667" y="150.33333333333334"/>
      <point x="118.66666666666667" y="349.0" type="curve" smooth="yes"/>
      <point x="118.66666666666667" y="547.3333333333334"/>
      <point x="225.0" y="669.3333333333334"/>
      <point x="372.3333333333333" y="669.3333333333334" type="curve" smooth="yes"/>
      <point x="435.0" y="669.3333333333334"/>
      <point x="495.3333333333333" y="648.0"/>
      <point x="535.6666666666666" y="603.6666666666666" type="curve" smooth="yes"/>
      <point x="545.0" y="593.6666666666666"/>
      <point x="551.6666666666666" y="593.0"/>
      <point x="562.6666666666666" y="602.6666666666666" type="curve" smooth="yes"/>
      <point x="572.3333333333334" y="611.0"/>
      <point x="574.0" y="617.3333333333334"/>
      <point x="565.6666666666666" y="627.6666666666666" type="curve" smooth="yes"/>
      <point x="518.6666666666666" y="688.3333333333334"/>
      <point x="444.0" y="712.0"/>
      <point x="372.3333333333333" y="712.0" type="curve" smooth="yes"/>
      <point x="194.66666666666666" y="712.0"/>
      <point x="71.66666666666667" y="566.6666666666666"/>
      <point x="71.66666666666667" y="349.0" type="curve" smooth="yes"/>
      <point x="71.66666666666667" y="130.66666666666666"/>
      <point x="185.33333333333334" y="-15.0"/>
    </contour>
  </outline>
</glyph>
<glyph name="D" format="2">
  <advance width="695.0"/>
  <unicode hex="0044"/>
  <anchor x="317.0" y="0.0" name="bottom"/>
  <anchor x="186.0" y="351.6666666666667" name="center"/>
  <anchor x="326.0" y="670.0" name="top"/>
  <outline>
    <contour>
      <point x="135.0" y="0.0" type="curve" smooth="yes"/>
      <point x="235.66666666666666" y="0.0" type="line" smooth="yes"/>
      <point x="501.3333333333333" y="0.0"/>
      <point x="623.3333333333334" y="173.0"/>
      <point x="623.3333333333334" y="386.0" type="curve" smooth="yes"/>
      <point x="623.3333333333334" y="592.0"/>
      <point x="480.6666666666667" y="700.0"/>
      <point x="280.0" y="700.0" type="curve" smooth="yes"/>
      <point x="135.66666666666666" y="700.0" type="line" smooth="yes"/>
      <point x="120.66666666666667" y="700.0"/>
      <point x="113.33333333333333" y="695.6666666666666"/>
      <point x="113.33333333333333" y="684.6666666666666" type="curve" smooth="yes"/>
      <point x="113.33333333333333" y="15.333333333333332" type="line" smooth="yes"/>
      <point x="113.33333333333333" y="4.333333333333333"/>
      <point x="120.0" y="0.0"/>
    </contour>
    <contour>
      <point x="157.33333333333334" y="41.33333333333333" type="line"/>
      <point x="157.33333333333334" y="658.6666666666666" type="line"/>
      <point x="280.0" y="658.6666666666666" type="line" smooth="yes"/>
      <point x="447.0" y="658.6666666666666"/>
      <point x="576.3333333333334" y="574.0"/>
      <point x="576.3333333333334" y="386.0" type="curve" smooth="yes"/>
      <point x="576.3333333333334" y="191.33333333333334"/>
      <point x="470.3333333333333" y="41.33333333333333"/>
      <point x="235.0" y="41.33333333333333" type="curve" smooth="yes"/>
    </contour>
  </outline>
</glyph>
<glyph name="E" format="2">
  <advance width="530.0"/>
  <unicode hex="0045"/>
  <anchor x="294.0" y="0.0" name="bottom"/>
  <anchor x="487.0" y="10.0" name="ogonek"/>
  <anchor x="309.0" y="670.0" name="top"/>
  <outline>
    <contour>
      <point x="135.0" y="0.0" type="curve" smooth="yes"/>
      <point x="480.0" y="0.0" type="line" smooth="yes"/>
      <point x="488.6666666666667" y="0.0"/>
      <point x="493.3333333333333" y="5.333333333333333"/>
      <point x="493.3333333333333" y="20.0" type="curve" smooth="yes"/>
      <point x="493.3333333333333" y="34.666666666666664"/>
      <point x="488.6666666666667" y="40.0"/>
      <point x="480.0" y="40.0" type="curve" smooth="yes"/>
      <point x="156.66666666666666" y="40.0" type="line"/>
      <point x="156.66666666666666" y="350.0" type="line"/>
      <point x="430.0" y="350.0" type="line" smooth="yes"/>
      <point x="438.6666666666667" y="350.0"/>
      <point x="443.3333333333333" y="355.3333333333333"/>
      <point x="443.3333333333333" y="370.0" type="curve" smooth="yes"/>
      <point x="443.3333333333333" y="384.6666666666667"/>
      <point x="438.6666666666667" y="390.0"/>
      <point x="430.0" y="390.0" type="curve" smooth="yes"/>
      <point x="156.66666666666666" y="390.0" type="line"/>
      <point x="156.66666666666666" y="660.0" type="line"/>
      <point x="480.0" y="660.0" type="line" smooth="yes"/>
      <point x="488.6666666666667" y="660.0"/>
      <point x="493.3333333333333" y="665.3333333333334"/>
      <point x="493.3333333333333" y="680.0" type="curve" smooth="yes"/>
      <point x="493.3333333333333" y="694.6666666666666"/>
      <point x="488.6666666666667" y="700.0"/>
      <point x="480.0" y="700.0" type="curve" smooth="yes"/>
      <point x="135.66666666666666" y="700.0" type="line" smooth="yes"/>
      <point x="120.66666666666667" y="700.0"/>
      <point x="113.33333333333333" y="695.6666666666666"/>
      <point x="113.33333333333333" y="684.6666666666666" type="curve" smooth="yes"/>
      <point x="113.33333333333333" y="18.666666666666664" type="line" smooth="yes"/>
      <point x="113.33333333333333" y="5.333333333333333"/>
      <point x="120.0" y="0.0"/>
    </contour>
  </outline>
</glyph>
<glyph name="F" format="2">
  <advance width="500.0"/>
  <unicode hex="0046"/>
  <outline>
    <contour>
      <point x="135.0" y="-11.0" type="curve" smooth="yes"/>
      <point x="150.0" y="-11.0"/>
      <point x="156.66666666666666" y="-6.666666666666667"/>
      <point x="156.66666666666666" y="4.333333333333333" type="curve" smooth="yes"/>
      <point x="156.66666666666666" y="330.0" type="line"/>
      <point x="420.0" y="330.0" type="line" smooth="yes"/>
      <point x="428.6666666666667" y="330.0"/>
      <point x="433.3333333333333" y="335.3333333333333"/>
      <point x="433.3333333333333" y="350.0" type="curve" smooth="yes"/>
      <point x="433.3333333333333" y="364.6666666666667"/>
      <point x="428.6666666666667" y="370.0"/>
      <point x="420.0" y="370.0" type="curve" smooth="yes"/>
      <point x="156.66666666666666" y="370.0" type="line"/>
      <point x="156.66666666666666" y="660.0" type="line"/>
      <point x="470.0" y="660.0" type="line" smooth="yes"/>
      <point x="478.6666666666667" y="660.0"/>
      <point x="483.3333333333333" y="665.3333333333334"/>
      <point x="483.3333333333333" y="680.0" type="curve" smooth="yes"/>
      <point x="483.3333333333333" y="694.6666666666666"/>
      <point x="478.6666666666667" y="700.0"/>
      <point x="470.0" y="700.0" type="curve" smooth="yes"/>
      <point x="135.66666666666666" y="700.0" type="line" smooth="yes"/>
      <point x="120.66666666666667" y="700.0"/>
      <point x="113.33333333333333" y="695.6666666666666"/>
      <point x="113.33333333333333" y="684.6666666666666" type="curve" smooth="yes"/>
      <point x="113.33333333333333" y="4.333333333333333" type="line" smooth="yes"/>
      <point x="113.33333333333333" y="-6.666666666666667"/>
      <point x="120.0" y="-11.0"/>
    </contour>
  </outline>
</glyph>
<glyph name="G" format="2">
  <advance width="700.0"/>
  <unicode hex="0047"/>
  <anchor x="350.0" y="0.0" name="bottom"/>
  <anchor x="360.0" y="670.0" name="top"/>
  <outline>
    <contour>
      <point x="353.6666666666667" y="-15.0" type="curve" smooth="yes"/>
      <point x="507.3333333333333" y="-15.333333333333334"/>
      <point x="617.0" y="91.66666666666667"/>
      <point x="617.0" y="347.3333333333333" type="curve" smooth="yes"/>
      <point x="617.0" y="361.3333333333333"/>
      <point x="612.3333333333334" y="366.0"/>
      <point x="599.6666666666666" y="366.0" type="curve" smooth="yes"/>
      <point x="376.0" y="366.0" type="line" smooth="yes"/>
      <point x="367.3333333333333" y="366.0"/>
      <point x="362.6666666666667" y="360.6666666666667"/>
      <point x="362.6666666666667" y="346.0" type="curve" smooth="yes"/>
      <point x="362.6666666666667" y="331.3333333333333"/>
      <point x="367.3333333333333" y="326.0"/>
      <point x="376.0" y="326.0" type="curve" smooth="yes"/>
      <point x="572.3333333333334" y="326.0" type="line"/>
      <point x="571.3333333333334" y="106.33333333333333"/>
      <point x="480.6666666666667" y="27.666666666666664"/>
      <point x="353.6666666666667" y="27.666666666666664" type="curve" smooth="yes"/>
      <point x="215.66666666666666" y="27.666666666666664"/>
      <point x="118.66666666666667" y="150.33333333333334"/>
      <point x="118.66666666666667" y="349.0" type="curve" smooth="yes"/>
      <point x="118.66666666666667" y="547.3333333333334"/>
      <point x="225.0" y="669.3333333333334"/>
      <point x="372.3333333333333" y="669.3333333333334" type="curve" smooth="yes"/>
      <point x="435.0" y="669.3333333333334"/>
      <point x="488.0" y="648.0"/>
      <point x="529.0" y="603.6666666666666" type="curve" smooth="yes"/>
      <point x="538.3333333333334" y="593.6666666666666"/>
      <point x="545.0" y="593.0"/>
      <point x="556.0" y="602.6666666666666" type="curve" smooth="yes"/>
      <point x="565.6666666666666" y="611.0"/>
      <point x="567.3333333333334" y="617.3333333333334"/>
      <point x="559.0" y="627.6666666666666" type="curve" smooth="yes"/>
      <point x="512.0" y="688.3333333333334"/>
      <point x="444.0" y="712.0"/>
      <point x="372.3333333333333" y="712.0" type="curve" smooth="yes"/>
      <point x="194.66666666666666" y="712.0"/>
      <point x="71.66666666666667" y="566.6666666666666"/>
      <point x="71.66666666666667" y="349.0" type="curve" smooth="yes"/>
      <point x="71.66666666666667" y="130.66666666666666"/>
      <point x="185.33333333333334" y="-14.666666666666666"/>
    </contour>
  </outline>
</glyph>
<glyph name="H" format="2">
  <advance width="710.0"/>
  <unicode hex="0048"/>
  <anchor x="355.0" y="0.0" name="bottom"/>
  <anchor x="355.0" y="541.0" name="center"/>
  <anchor x="355.0" y="670.0" name="top"/>
  <outline>
    <contour>
      <point x="135.0" y="-11.0" type="curve" smooth="yes"/>
      <point x="150.0" y="-11.0"/>
      <point x="156.66666666666666" y="-6.666666666666667"/>
      <point x="156.66666666666666" y="4.333333333333333" type="curve" smooth="yes"/>
      <point x="156.66666666666666" y="347.0" type="line"/>
      <point x="553.3333333333334" y="347.0" type="line"/>
      <point x="553.3333333333334" y="4.333333333333333" type="line" smooth="yes"/>
      <point x="553.3333333333334" y="-6.666666666666667"/>
      <point x="560.6666666666666" y="-11.0"/>
      <point x="575.0" y="-11.0" type="curve" smooth="yes"/>
      <point x="590.0" y="-11.0"/>
      <point x="596.6666666666666" y="-6.666666666666667"/>
      <point x="596.6666666666666" y="4.333333333333333" type="curve" smooth="yes"/>
      <point x="596.6666666666666" y="696.6666666666666" type="line" smooth="yes"/>
      <point x="596.6666666666666" y="707.6666666666666"/>
      <point x="590.0" y="712.0"/>
      <point x="575.0" y="712.0" type="curve" smooth="yes"/>
      <point x="560.6666666666666" y="712.0"/>
      <point x="553.3333333333334" y="707.6666666666666"/>
      <point x="553.3333333333334" y="696.6666666666666" type="curve" smooth="yes"/>
      <point x="553.3333333333334" y="387.0" type="line"/>
      <point x="156.66666666666666" y="387.0" type="line"/>
      <point x="156.66666666666666" y="696.6666666666666" type="line" smooth="yes"/>
      <point x="156.66666666666666" y="707.6666666666666"/>
      <point x="150.0" y="712.0"/>
      <point x="135.0" y="712.0" type="curve" smooth="yes"/>
      <point x="120.0" y="712.0"/>
      <point x="113.33333333333333" y="707.6666666666666"/>
      <point x="113.33333333333333" y="696.6666666666666" type="curve" smooth="yes"/>
      <point x="113.33333333333333" y="4.333333333333333" type="line" smooth="yes"/>
      <point x="113.33333333333333" y="-6.666666666666667"/>
      <point x="120.0" y="-11.0"/>
    </contour>
  </outline>
</glyph>
<glyph name="I" format="2">
  <advance width="270.0"/>
  <unicode hex="0049"/>
  <anchor x="135.0" y="0.0" name="bottom"/>
  <anchor x="150.0" y="-4.0" name="ogonek"/>
  <anchor x="135.0" y="670.0" name="top"/>
  <outline>
    <contour>
      <point x="135.0" y="-11.0" type="curve" smooth="yes"/>
      <point x="150.0" y="-11.0"/>
      <point x="156.66666666666666" y="-6.666666666666667"/>
      <point x="156.66666666666666" y="4.333333333333333" type="curve" smooth="yes"/>
      <point x="156.66666666666666" y="696.6666666666666" type="line" smooth="yes"/>
      <point x="156.66666666666666" y="707.6666666666666"/>
      <point x="149.33333333333334" y="712.0"/>
      <point x="135.0" y="712.0" type="curve" smooth="yes"/>
      <point x="120.0" y="712.0"/>
      <point x="113.33333333333333" y="707.6666666666666"/>
      <point x="113.33333333333333" y="696.6666666666666" type="curve" smooth="yes"/>
      <point x="113.33333333333333" y="4.333333333333333" type="line" smooth="yes"/>
      <point x="113.33333333333333" y="-6.666666666666667"/>
      <point x="120.0" y="-11.0"/>
    </contour>
  </outline>
</glyph>
<glyph name="J" format="2">
  <advance width="520.0"/>
  <unicode hex="004A"/>
  <anchor x="240.0" y="0.0" name="bottom"/>
  <anchor x="400.0" y="670.0" name="top"/>
  <outline>
    <contour>
      <point x="231.0" y="-15.0" type="curve" smooth="yes"/>
      <point x="349.6666666666667" y="-15.0"/>
      <point x="421.6666666666667" y="63.0"/>
      <point x="421.6666666666667" y="212.66666666666666" type="curve" smooth="yes"/>
      <point x="421.6666666666667" y="696.6666666666666" type="line" smooth="yes"/>
      <point x="421.6666666666667" y="707.6666666666666"/>
      <point x="415.0" y="712.0"/>
      <point x="400.0" y="712.0" type="curve" smooth="yes"/>
      <point x="385.0" y="712.0"/>
      <point x="378.3333333333333" y="707.6666666666666"/>
      <point x="378.3333333333333" y="696.6666666666666" type="curve" smooth="yes"/>
      <point x="378.3333333333333" y="211.33333333333334" type="line" smooth="yes"/>
      <point x="378.3333333333333" y="86.33333333333333"/>
      <point x="324.6666666666667" y="27.666666666666664"/>
      <point x="231.0" y="27.666666666666664" type="curve" smooth="yes"/>
      <point x="143.0" y="27.666666666666664"/>
      <point x="106.33333333333333" y="59.666666666666664"/>
      <point x="81.33333333333333" y="134.66666666666666" type="curve" smooth="yes"/>
      <point x="77.0" y="148.0"/>
      <point x="70.0" y="150.33333333333334"/>
      <point x="57.0" y="146.0" type="curve" smooth="yes"/>
      <point x="45.0" y="142.33333333333334"/>
      <point x="40.333333333333336" y="137.0"/>
      <point x="43.666666666666664" y="124.33333333333333" type="curve" smooth="yes"/>
      <point x="69.0" y="31.333333333333332"/>
      <point x="133.0" y="-15.0"/>
    </contour>
  </outline>
</glyph>
<glyph name="K" format="2">
  <advance width="550.0"/>
  <unicode hex="004B"/>
  <anchor x="305.0" y="0.0" name="bottom"/>
  <anchor x="305.0" y="670.0" name="top"/>
  <outline>
    <contour>
      <point x="135.0" y="-11.0" type="curve" smooth="yes"/>
      <point x="150.0" y="-11.0"/>
      <point x="156.66666666666666" y="-6.666666666666667"/>
      <point x="156.66666666666666" y="4.333333333333333" type="curve" smooth="yes"/>
      <point x="156.66666666666666" y="355.0" type="line"/>
      <point x="251.33333333333334" y="235.33333333333334"/>
      <point x="380.0" y="92.66666666666667"/>
      <point x="500.6666666666667" y="-6.666666666666667" type="curve" smooth="yes"/>
      <point x="510.6666666666667" y="-15.0"/>
      <point x="519.0" y="-16.0"/>
      <point x="529.0" y="-6.333333333333334" type="curve" smooth="yes"/>
      <point x="541.0" y="5.666666666666666"/>
      <point x="540.3333333333334" y="14.666666666666666"/>
      <point x="531.6666666666666" y="21.666666666666664" type="curve" smooth="yes"/>
      <point x="416.3333333333333" y="117.0"/>
      <point x="299.3333333333333" y="244.33333333333334"/>
      <point x="197.33333333333334" y="370.3333333333333" type="curve"/>
      <point x="519.6666666666666" y="679.0" type="line" smooth="yes"/>
      <point x="527.6666666666666" y="687.0"/>
      <point x="527.6666666666666" y="693.0"/>
      <point x="517.3333333333334" y="704.0" type="curve" smooth="yes"/>
      <point x="507.3333333333333" y="714.3333333333334"/>
      <point x="500.3333333333333" y="715.3333333333334"/>
      <point x="491.3333333333333" y="706.3333333333334" type="curve" smooth="yes"/>
      <point x="156.66666666666666" y="385.3333333333333" type="line"/>
      <point x="156.66666666666666" y="696.6666666666666" type="line" smooth="yes"/>
      <point x="156.66666666666666" y="707.6666666666666"/>
      <point x="150.0" y="712.0"/>
      <point x="135.0" y="712.0" type="curve" smooth="yes"/>
      <point x="120.0" y="712.0"/>
      <point x="113.33333333333333" y="707.6666666666666"/>
      <point x="113.33333333333333" y="696.6666666666666" type="curve" smooth="yes"/>
      <point x="113.33333333333333" y="4.333333333333333" type="line" smooth="yes"/>
      <point x="113.33333333333333" y="-6.666666666666667"/>
      <point x="120.0" y="-11.0"/>
    </contour>
  </outline>
</glyph>
<glyph name="L" format="2">
  <advance width="500.0"/>
  <unicode hex="004C"/>
  <anchor x="300.0" y="0.0" name="bottom"/>
  <anchor x="135.0" y="360.0" name="center"/>
  <anchor x="150.0" y="360.0" name="centerCase"/>
  <anchor x="135.0" y="670.0" name="top"/>
  <anchor x="170.0" y="700.0" name="topright"/>
  <outline>
    <contour>
      <point x="135.0" y="0.0" type="curve" smooth="yes"/>
      <point x="466.6666666666667" y="0.0" type="line" smooth="yes"/>
      <point x="475.3333333333333" y="0.0"/>
      <point x="480.0" y="5.333333333333333"/>
      <point x="480.0" y="20.0" type="curve" smooth="yes"/>
      <point x="480.0" y="34.666666666666664"/>
      <point x="475.3333333333333" y="40.0"/>
      <point x="466.6666666666667" y="40.0" type="curve" smooth="yes"/>
      <point x="156.66666666666666" y="40.0" type="line"/>
      <point x="156.66666666666666" y="696.6666666666666" type="line" smooth="yes"/>
      <point x="156.66666666666666" y="707.6666666666666"/>
      <point x="150.0" y="712.0"/>
      <point x="135.0" y="712.0" type="curve" smooth="yes"/>
      <point x="120.0" y="712.0"/>
      <point x="113.33333333333333" y="707.6666666666666"/>
      <point x="113.33333333333333" y="696.6666666666666" type="curve" smooth="yes"/>
      <point x="113.33333333333333" y="18.666666666666664" type="line" smooth="yes"/>
      <point x="113.33333333333333" y="5.333333333333333"/>
      <point x="120.0" y="0.0"/>
    </contour>
  </outline>
</glyph>
<glyph name="M" format="2">
  <advance width="840.0"/>
  <unicode hex="004D"/>
  <anchor x="420.0" y="0.0" name="bottom"/>
  <anchor x="420.0" y="670.0" name="top"/>
  <outline>
    <contour>
      <point x="135.0" y="-11.0" type="curve" smooth="yes"/>
      <point x="150.0" y="-11.0"/>
      <point x="156.66666666666666" y="-6.666666666666667"/>
      <point x="156.66666666666666" y="4.333333333333333" type="curve" smooth="yes"/>
      <point x="156.66666666666666" y="621.6666666666666" type="line"/>
      <point x="395.0" y="210.33333333333334" type="line" smooth="yes"/>
      <point x="401.6666666666667" y="199.0"/>
      <point x="407.3333333333333" y="197.0"/>
      <point x="420.3333333333333" y="197.0" type="curve" smooth="yes"/>
      <point x="432.3333333333333" y="197.0"/>
      <point x="438.3333333333333" y="199.0"/>
      <point x="445.0" y="210.66666666666666" type="curve" smooth="yes"/>
      <point x="683.3333333333334" y="621.6666666666666" type="line"/>
      <point x="683.3333333333334" y="4.333333333333333" type="line" smooth="yes"/>
      <point x="683.3333333333334" y="-6.666666666666667"/>
      <point x="690.0" y="-11.0"/>
      <point x="705.0" y="-11.0" type="curve" smooth="yes"/>
      <point x="720.0" y="-11.0"/>
      <point x="726.6666666666666" y="-6.666666666666667"/>
      <point x="726.6666666666666" y="4.333333333333333" type="curve" smooth="yes"/>
      <point x="726.6666666666666" y="696.6666666666666" type="line" smooth="yes"/>
      <point x="726.6666666666666" y="707.6666666666666"/>
      <point x="720.0" y="712.0"/>
      <point x="705.0" y="712.0" type="curve" smooth="yes"/>
      <point x="689.3333333333334" y="712.0"/>
      <point x="685.0" y="707.6666666666666"/>
      <point x="679.3333333333334" y="698.0" type="curve" smooth="yes"/>
      <point x="420.0" y="247.66666666666666" type="line"/>
      <point x="160.66666666666666" y="698.0" type="line" smooth="yes"/>
      <point x="155.0" y="707.6666666666666"/>
      <point x="150.0" y="712.0"/>
      <point x="135.66666666666666" y="712.0" type="curve" smooth="yes"/>
      <point x="120.66666666666667" y="712.0"/>
      <point x="113.33333333333333" y="707.6666666666666"/>
      <point x="113.33333333333333" y="696.6666666666666" type="curve" smooth="yes"/>
      <point x="113.33333333333333" y="4.333333333333333" type="line" smooth="yes"/>
      <point x="113.33333333333333" y="-6.666666666666667"/>
      <point x="120.0" y="-11.0"/>
    </contour>
  </outline>
</glyph>
<glyph name="N" format="2">
  <advance width="710.0"/>
  <unicode hex="004E"/>
  <anchor x="355.0" y="0.0" name="bottom"/>
  <anchor x="355.0" y="670.0" name="top"/>
  <outline>
    <contour>
      <point x="135.0" y="-11.0" type="curve" smooth="yes"/>
      <point x="150.0" y="-11.0"/>
      <point x="156.66666666666666" y="-6.666666666666667"/>
      <point x="156.66666666666666" y="4.333333333333333" type="curve" smooth="yes"/>
      <point x="156.66666666666666" y="624.3333333333334" type="line"/>
      <point x="552.6666666666666" y="1.666666666666666" type="line" smooth="yes"/>
      <point x="559.3333333333334" y="-8.666666666666666"/>
      <point x="563.6666666666666" y="-11.0"/>
      <point x="576.0" y="-11.0" type="curve" smooth="yes"/>
      <point x="589.3333333333334" y="-11.0"/>
      <point x="596.6666666666666" y="-6.666666666666667"/>
      <point x="596.6666666666666" y="4.333333333333333" type="curve" smooth="yes"/>
      <point x="596.6666666666666" y="696.6666666666666" type="line" smooth="yes"/>
      <point x="596.6666666666666" y="707.6666666666666"/>
      <point x="590.0" y="712.0"/>
      <point x="575.0" y="712.0" type="curve" smooth="yes"/>
      <point x="560.0" y="712.0"/>
      <point x="553.3333333333334" y="707.6666666666666"/>
      <point x="553.3333333333334" y="696.6666666666666" type="curve" smooth="yes"/>
      <point x="553.3333333333334" y="79.66666666666666" type="line"/>
      <point x="159.0" y="699.3333333333334" type="line" smooth="yes"/>
      <point x="153.0" y="708.3333333333334"/>
      <point x="147.33333333333334" y="712.0"/>
      <point x="134.33333333333334" y="712.0" type="curve" smooth="yes"/>
      <point x="120.66666666666667" y="712.0"/>
      <point x="113.33333333333333" y="707.6666666666666"/>
      <point x="113.33333333333333" y="696.6666666666666" type="curve" smooth="yes"/>
      <point x="113.33333333333333" y="4.333333333333333" type="line" smooth="yes"/>
      <point x="113.33333333333333" y="-6.666666666666667"/>
      <point x="120.0" y="-11.0"/>
    </contour>
  </outline>
</glyph>
<glyph name="O" format="2">
  <advance width="740.0"/>
  <unicode hex="004F"/>
  <anchor x="370.0" y="0.0" name="bottom"/>
  <anchor x="370.0" y="350.0" name="center"/>
  <anchor x="473.0" y="5.0" name="ogonek"/>
  <anchor x="370.0" y="670.0" name="top"/>
  <anchor x="454.0" y="700.0" name="topright"/>
  <outline>
    <contour>
      <point x="371.0" y="-15.0" type="curve" smooth="yes"/>
      <point x="546.3333333333334" y="-15.0"/>
      <point x="668.3333333333334" y="130.66666666666666"/>
      <point x="668.3333333333334" y="349.0" type="curve" smooth="yes"/>
      <point x="668.3333333333334" y="566.6666666666666"/>
      <point x="546.3333333333334" y="712.0"/>
      <point x="371.0" y="712.0" type="curve" smooth="yes"/>
      <point x="194.0" y="712.0"/>
      <point x="71.66666666666667" y="566.6666666666666"/>
      <point x="71.66666666666667" y="349.0" type="curve" smooth="yes"/>
      <point x="71.66666666666667" y="130.66666666666666"/>
      <point x="194.0" y="-15.0"/>
    </contour>
    <contour>
      <point x="371.0" y="27.666666666666664" type="curve" smooth="yes"/>
      <point x="224.33333333333334" y="27.666666666666664"/>
      <point x="118.66666666666667" y="150.33333333333334"/>
      <point x="118.66666666666667" y="349.0" type="curve" smooth="yes"/>
      <point x="118.66666666666667" y="547.3333333333334"/>
      <point x="224.33333333333334" y="669.3333333333334"/>
      <point x="371.0" y="669.3333333333334" type="curve" smooth="yes"/>
      <point x="516.0" y="669.3333333333334"/>
      <point x="621.3333333333334" y="547.3333333333334"/>
      <point x="621.3333333333334" y="349.0" type="curve" smooth="yes"/>
      <point x="621.3333333333334" y="150.33333333333334"/>
      <point x="516.0" y="27.666666666666664"/>
    </contour>
  </outline>
</glyph>
<glyph name="P" format="2">
  <advance width="560.0"/>
  <unicode hex="0050"/>
  <outline>
    <contour>
      <point x="135.0" y="-11.0" type="curve" smooth="yes"/>
      <point x="150.0" y="-11.0"/>
      <point x="156.66666666666666" y="-6.666666666666667"/>
      <point x="156.66666666666666" y="4.333333333333333" type="curve" smooth="yes"/>
      <point x="156.66666666666666" y="288.3333333333333" type="line"/>
      <point x="191.33333333333334" y="289.6666666666667"/>
      <point x="230.0" y="292.3333333333333"/>
      <point x="268.3333333333333" y="297.0" type="curve" smooth="yes"/>
      <point x="410.0" y="314.0"/>
      <point x="523.3333333333334" y="381.0"/>
      <point x="523.3333333333334" y="525.0" type="curve" smooth="yes"/>
      <point x="523.3333333333334" y="651.0"/>
      <point x="442.3333333333333" y="700.0"/>
      <point x="288.0" y="700.0" type="curve" smooth="yes"/>
      <point x="136.0" y="700.0" type="line" smooth="yes"/>
      <point x="120.66666666666667" y="700.0"/>
      <point x="113.33333333333333" y="695.6666666666666"/>
      <point x="113.33333333333333" y="684.6666666666666" type="curve" smooth="yes"/>
      <point x="113.33333333333333" y="4.333333333333333" type="line" smooth="yes"/>
      <point x="113.33333333333333" y="-6.666666666666667"/>
      <point x="120.0" y="-11.0"/>
    </contour>
    <contour>
      <point x="156.66666666666666" y="328.0" type="curve"/>
      <point x="156.66666666666666" y="660.0" type="line"/>
      <point x="288.0" y="660.0" type="line" smooth="yes"/>
      <point x="413.3333333333333" y="660.0"/>
      <point x="478.0" y="622.3333333333334"/>
      <point x="478.0" y="524.0" type="curve" smooth="yes"/>
      <point x="478.0" y="408.3333333333333"/>
      <point x="388.6666666666667" y="351.3333333333333"/>
      <point x="268.3333333333333" y="336.6666666666667" type="curve" smooth="yes"/>
      <point x="230.66666666666666" y="332.0"/>
      <point x="192.0" y="329.3333333333333"/>
    </contour>
  </outline>
</glyph>
<glyph name="Q" format="2">
  <advance width="740.0"/>
  <unicode hex="0051"/>
  <anchor x="370.0" y="0.0" name="bottom"/>
  <anchor x="370.0" y="350.0" name="center"/>
  <anchor x="473.0" y="5.0" name="ogonek"/>
  <anchor x="370.0" y="670.0" name="top"/>
  <anchor x="454.0" y="700.0" name="topright"/>
  <outline>
    <contour>
      <point x="559.6666666666666" y="-129.66666666666666" type="curve" smooth="yes"/>
      <point x="569.6666666666666" y="-121.33333333333333"/>
      <point x="571.3333333333334" y="-113.66666666666667"/>
      <point x="565.0" y="-103.66666666666667" type="curve" smooth="yes"/>
      <point x="399.0" y="130.33333333333334" type="line" smooth="yes"/>
      <point x="391.6666666666667" y="140.33333333333334"/>
      <point x="381.6666666666667" y="141.0"/>
      <point x="372.3333333333333" y="132.66666666666666" type="curve" smooth="yes"/>
      <point x="360.3333333333333" y="123.33333333333333"/>
      <point x="358.6666666666667" y="115.66666666666667"/>
      <point x="365.0" y="105.66666666666667" type="curve" smooth="yes"/>
      <point x="532.3333333333334" y="-128.66666666666666" type="line" smooth="yes"/>
      <point x="539.3333333333334" y="-137.33333333333334"/>
      <point x="547.6666666666666" y="-137.66666666666666"/>
    </contour>
    <component base="O"/>
  </outline>
</glyph>
<glyph name="R" format="2">
  <advance width="555.0"/>
  <unicode hex="0052"/>
  <anchor x="308.0" y="0.0" name="bottom"/>
  <anchor x="278.0" y="670.0" name="top"/>
  <outline>
    <contour>
      <point x="135.0" y="-11.0" type="curve" smooth="yes"/>
      <point x="150.0" y="-11.0"/>
      <point x="156.66666666666666" y="-6.666666666666667"/>
      <point x="156.66666666666666" y="4.333333333333333" type="curve" smooth="yes"/>
      <point x="156.66666666666666" y="317.0" type="line"/>
      <point x="253.66666666666666" y="207.66666666666666"/>
      <point x="369.3333333333333" y="92.66666666666667"/>
      <point x="490.0" y="-6.666666666666667" type="curve" smooth="yes"/>
      <point x="500.0" y="-15.0"/>
      <point x="508.3333333333333" y="-16.0"/>
      <point x="518.3333333333334" y="-6.333333333333334" type="curve" smooth="yes"/>
      <point x="530.3333333333334" y="5.666666666666666"/>
      <point x="529.6666666666666" y="14.666666666666666"/>
      <point x="521.0" y="21.666666666666664" type="curve" smooth="yes"/>
      <point x="407.6666666666667" y="114.33333333333333"/>
      <point x="299.0" y="220.0"/>
      <point x="205.66666666666666" y="322.6666666666667" type="curve"/>
      <point x="351.6666666666667" y="334.0"/>
      <point x="500.0" y="389.0"/>
      <point x="500.0" y="538.6666666666666" type="curve" smooth="yes"/>
      <point x="500.0" y="653.6666666666666"/>
      <point x="423.3333333333333" y="700.0"/>
      <point x="267.0" y="700.0" type="curve" smooth="yes"/>
      <point x="136.0" y="700.0" type="line" smooth="yes"/>
      <point x="120.66666666666667" y="700.0"/>
      <point x="113.33333333333333" y="695.6666666666666"/>
      <point x="113.33333333333333" y="684.6666666666666" type="curve" smooth="yes"/>
      <point x="113.33333333333333" y="4.333333333333333" type="line" smooth="yes"/>
      <point x="113.33333333333333" y="-6.666666666666667"/>
      <point x="120.0" y="-11.0"/>
    </contour>
    <contour>
      <point x="156.66666666666666" y="357.3333333333333" type="curve"/>
      <point x="156.66666666666666" y="660.0" type="line"/>
      <point x="270.6666666666667" y="660.0" type="line" smooth="yes"/>
      <point x="394.3333333333333" y="660.0"/>
      <point x="454.6666666666667" y="625.0"/>
      <point x="454.6666666666667" y="538.6666666666666" type="curve" smooth="yes"/>
      <point x="454.6666666666667" y="402.0"/>
      <point x="302.0" y="360.6666666666667"/>
    </contour>
  </outline>
</glyph>
<glyph name="S" format="2">
  <advance width="550.0"/>
  <unicode hex="0053"/>
  <anchor x="273.3333333333333" y="0.0" name="bottom"/>
  <anchor x="287.3333333333333" y="670.0" name="top"/>
  <outline>
    <contour>
      <point x="266.0" y="-15.0" type="curve" smooth="yes"/>
      <point x="400.6666666666667" y="-15.0"/>
      <point x="488.6666666666667" y="62.333333333333336"/>
      <point x="488.6666666666667" y="182.66666666666666" type="curve" smooth="yes"/>
      <point x="488.6666666666667" y="306.0"/>
      <point x="389.6666666666667" y="343.6666666666667"/>
      <point x="299.6666666666667" y="375.3333333333333" type="curve" smooth="yes"/>
      <point x="212.66666666666666" y="406.0"/>
      <point x="135.66666666666666" y="440.0"/>
      <point x="135.66666666666666" y="540.0" type="curve" smooth="yes"/>
      <point x="135.66666666666666" y="621.0"/>
      <point x="192.66666666666666" y="669.3333333333334"/>
      <point x="284.3333333333333" y="669.3333333333334" type="curve" smooth="yes"/>
      <point x="351.3333333333333" y="669.3333333333334"/>
      <point x="400.0" y="643.3333333333334"/>
      <point x="443.3333333333333" y="607.6666666666666" type="curve" smooth="yes"/>
      <point x="454.6666666666667" y="598.6666666666666"/>
      <point x="462.0" y="599.0"/>
      <point x="472.3333333333333" y="609.6666666666666" type="curve" smooth="yes"/>
      <point x="480.6666666666667" y="618.3333333333334"/>
      <point x="481.6666666666667" y="625.3333333333334"/>
      <point x="472.0" y="634.0" type="curve" smooth="yes"/>
      <point x="427.0" y="675.0"/>
      <point x="367.6666666666667" y="712.0"/>
      <point x="284.3333333333333" y="712.0" type="curve" smooth="yes"/>
      <point x="176.66666666666666" y="712.0"/>
      <point x="89.66666666666667" y="648.0"/>
      <point x="89.66666666666667" y="540.0" type="curve" smooth="yes"/>
      <point x="89.66666666666667" y="411.3333333333333"/>
      <point x="188.66666666666666" y="369.3333333333333"/>
      <point x="282.6666666666667" y="335.0" type="curve" smooth="yes"/>
      <point x="368.6666666666667" y="303.6666666666667"/>
      <point x="442.6666666666667" y="272.0"/>
      <point x="442.6666666666667" y="182.66666666666666" type="curve" smooth="yes"/>
      <point x="442.6666666666667" y="84.33333333333333"/>
      <point x="374.6666666666667" y="27.666666666666664"/>
      <point x="266.0" y="27.666666666666664" type="curve" smooth="yes"/>
      <point x="195.33333333333334" y="27.666666666666664"/>
      <point x="136.0" y="49.33333333333333"/>
      <point x="97.66666666666667" y="89.0" type="curve" smooth="yes"/>
      <point x="84.33333333333333" y="102.33333333333333"/>
      <point x="78.0" y="100.66666666666667"/>
      <point x="68.33333333333333" y="91.33333333333333" type="curve" smooth="yes"/>
      <point x="58.0" y="81.66666666666667"/>
      <point x="58.333333333333336" y="75.0"/>
      <point x="67.0" y="64.66666666666667" type="curve" smooth="yes"/>
      <point x="112.66666666666667" y="9.0"/>
      <point x="194.0" y="-15.0"/>
    </contour>
  </outline>
</glyph>
<glyph name="T" format="2">
  <advance width="552.0"/>
  <unicode hex="0054"/>
  <anchor x="276.0" y="0.0" name="bottom"/>
  <anchor x="276.0" y="350.0" name="center"/>
  <anchor x="276.0" y="670.0" name="top"/>
  <outline>
    <contour>
      <point x="276.0" y="-11.333333333333334" type="curve" smooth="yes"/>
      <point x="291.0" y="-11.333333333333334"/>
      <point x="297.6666666666667" y="-7.0"/>
      <point x="297.6666666666667" y="4.0" type="curve" smooth="yes"/>
      <point x="297.6666666666667" y="660.0" type="line"/>
      <point x="520.0" y="660.0" type="line" smooth="yes"/>
      <point x="528.6666666666666" y="660.0"/>
      <point x="533.3333333333334" y="666.0"/>
      <point x="533.3333333333334" y="680.6666666666666" type="curve" smooth="yes"/>
      <point x="533.3333333333334" y="695.3333333333334"/>
      <point x="528.6666666666666" y="700.0"/>
      <point x="520.0" y="700.0" type="curve" smooth="yes"/>
      <point x="32.0" y="700.0" type="line" smooth="yes"/>
      <point x="23.333333333333332" y="700.0"/>
      <point x="18.666666666666668" y="694.6666666666666"/>
      <point x="18.666666666666668" y="680.0" type="curve" smooth="yes"/>
      <point x="18.666666666666668" y="665.3333333333334"/>
      <point x="23.333333333333332" y="660.0"/>
      <point x="32.0" y="660.0" type="curve" smooth="yes"/>
      <point x="254.33333333333334" y="660.0" type="line"/>
      <point x="254.33333333333334" y="4.0" type="line" smooth="yes"/>
      <point x="254.33333333333334" y="-7.0"/>
      <point x="261.0" y="-11.333333333333334"/>
    </contour>
  </outline>
</glyph>
<glyph name="U" format="2">
  <advance width="690.0"/>
  <unicode hex="0055"/>
  <anchor x="345.0" y="0.0" name="bottom"/>
  <anchor x="470.0" y="10.0" name="ogonek"/>
  <anchor x="345.0" y="670.0" name="top"/>
  <anchor x="566.0" y="710.0" name="topright"/>
  <outline>
    <contour>
      <point x="346.3333333333333" y="-15.0" type="curve" smooth="yes"/>
      <point x="500.0" y="-15.0"/>
      <point x="583.3333333333334" y="65.0"/>
      <point x="583.3333333333334" y="212.66666666666666" type="curve" smooth="yes"/>
      <point x="583.3333333333334" y="696.6666666666666" type="line" smooth="yes"/>
      <point x="583.3333333333334" y="707.6666666666666"/>
      <point x="576.6666666666666" y="712.0"/>
      <point x="561.6666666666666" y="712.0" type="curve" smooth="yes"/>
      <point x="546.6666666666666" y="712.0"/>
      <point x="540.0" y="707.6666666666666"/>
      <point x="540.0" y="696.6666666666666" type="curve" smooth="yes"/>
      <point x="540.0" y="211.33333333333334" type="line" smooth="yes"/>
      <point x="540.0" y="91.0"/>
      <point x="472.3333333333333" y="27.666666666666664"/>
      <point x="346.3333333333333" y="27.666666666666664" type="curve" smooth="yes"/>
      <point x="219.0" y="27.666666666666664"/>
      <point x="150.0" y="91.0"/>
      <point x="150.0" y="211.33333333333334" type="curve" smooth="yes"/>
      <point x="150.0" y="696.6666666666666" type="line" smooth="yes"/>
      <point x="150.0" y="707.6666666666666"/>
      <point x="143.33333333333334" y="712.0"/>
      <point x="128.33333333333334" y="712.0" type="curve" smooth="yes"/>
      <point x="113.33333333333333" y="712.0"/>
      <point x="106.66666666666667" y="707.6666666666666"/>
      <point x="106.66666666666667" y="696.6666666666666" type="curve" smooth="yes"/>
      <point x="106.66666666666667" y="212.66666666666666" type="line" smooth="yes"/>
      <point x="106.66666666666667" y="65.0"/>
      <point x="191.33333333333334" y="-15.0"/>
    </contour>
  </outline>
</glyph>
<glyph name="V" format="2">
  <advance width="580.0"/>
  <unicode hex="0056"/>
  <outline>
    <contour>
      <point x="289.6666666666667" y="-11.0" type="curve" smooth="yes"/>
      <point x="305.6666666666667" y="-11.0"/>
      <point x="311.6666666666667" y="-6.666666666666667"/>
      <point x="316.6666666666667" y="7.666666666666666" type="curve" smooth="yes"/>
      <point x="558.0" y="688.0" type="line" smooth="yes"/>
      <point x="561.6666666666666" y="698.6666666666666"/>
      <point x="558.6666666666666" y="705.0"/>
      <point x="544.3333333333334" y="710.3333333333334" type="curve" smooth="yes"/>
      <point x="530.0" y="715.3333333333334"/>
      <point x="522.6666666666666" y="712.6666666666666"/>
      <point x="517.6666666666666" y="699.3333333333334" type="curve" smooth="yes"/>
      <point x="290.0" y="54.33333333333333" type="line"/>
      <point x="62.333333333333336" y="699.3333333333334" type="line" smooth="yes"/>
      <point x="57.333333333333336" y="712.6666666666666"/>
      <point x="50.0" y="715.3333333333334"/>
      <point x="35.666666666666664" y="710.3333333333334" type="curve" smooth="yes"/>
      <point x="21.333333333333332" y="705.0"/>
      <point x="18.333333333333336" y="698.6666666666666"/>
      <point x="22.0" y="688.0" type="curve" smooth="yes"/>
      <point x="263.6666666666667" y="7.666666666666666" type="line" smooth="yes"/>
      <point x="268.6666666666667" y="-6.666666666666667"/>
      <point x="274.6666666666667" y="-11.0"/>
    </contour>
  </outline>
</glyph>
<glyph name="W" format="2">
  <advance width="960.0"/>
  <unicode hex="0057"/>
  <anchor x="480.0" y="0.0" name="bottom"/>
  <anchor x="480.0" y="670.0" name="top"/>
  <outline>
    <contour>
      <point x="247.0" y="-11.0" type="curve" smooth="yes"/>
      <point x="263.0" y="-11.0"/>
      <point x="269.3333333333333" y="-6.333333333333334"/>
      <point x="274.0" y="7.666666666666666" type="curve" smooth="yes"/>
      <point x="479.6666666666667" y="642.6666666666666" type="line"/>
      <point x="684.0" y="7.666666666666666" type="line" smooth="yes"/>
      <point x="688.6666666666666" y="-6.333333333333334"/>
      <point x="695.0" y="-11.0"/>
      <point x="710.0" y="-11.0" type="curve" smooth="yes"/>
      <point x="726.0" y="-11.0"/>
      <point x="732.6666666666666" y="-6.333333333333334"/>
      <point x="737.0" y="7.666666666666666" type="curve" smooth="yes"/>
      <point x="938.3333333333334" y="688.0" type="line" smooth="yes"/>
      <point x="941.6666666666666" y="698.6666666666666"/>
      <point x="939.0" y="705.6666666666666"/>
      <point x="924.6666666666666" y="710.3333333333334" type="curve" smooth="yes"/>
      <point x="911.0" y="714.6666666666666"/>
      <point x="902.6666666666666" y="712.6666666666666"/>
      <point x="898.3333333333334" y="699.0" type="curve" smooth="yes"/>
      <point x="710.0" y="59.0" type="line"/>
      <point x="505.0" y="694.3333333333334" type="line" smooth="yes"/>
      <point x="500.6666666666667" y="707.3333333333334"/>
      <point x="495.6666666666667" y="712.0"/>
      <point x="479.0" y="712.0" type="curve" smooth="yes"/>
      <point x="464.0" y="712.0"/>
      <point x="459.0" y="707.3333333333334"/>
      <point x="454.6666666666667" y="694.3333333333334" type="curve" smooth="yes"/>
      <point x="248.33333333333334" y="58.666666666666664" type="line"/>
      <point x="62.333333333333336" y="698.3333333333334" type="line" smooth="yes"/>
      <point x="58.0" y="713.3333333333334"/>
      <point x="49.666666666666664" y="714.6666666666666"/>
      <point x="36.0" y="710.3333333333334" type="curve" smooth="yes"/>
      <point x="21.666666666666668" y="705.6666666666666"/>
      <point x="18.333333333333336" y="698.6666666666666"/>
      <point x="21.666666666666668" y="688.0" type="curve" smooth="yes"/>
      <point x="221.0" y="7.666666666666666" type="line" smooth="yes"/>
      <point x="225.33333333333334" y="-6.333333333333334"/>
      <point x="232.0" y="-11.0"/>
    </contour>
  </outline>
</glyph>
<glyph name="X" format="2">
  <advance width="550.0"/>
  <unicode hex="0058"/>
  <outline>
    <contour>
      <point x="501.0" y="-6.333333333333334" type="curve" smooth="yes"/>
      <point x="513.3333333333334" y="1.666666666666666"/>
      <point x="515.0" y="8.666666666666666"/>
      <point x="509.3333333333333" y="18.0" type="curve" smooth="yes"/>
      <point x="302.3333333333333" y="355.6666666666667" type="line"/>
      <point x="503.0" y="683.3333333333334" type="line" smooth="yes"/>
      <point x="508.6666666666667" y="692.6666666666666"/>
      <point x="507.0" y="699.6666666666666"/>
      <point x="494.6666666666667" y="707.6666666666666" type="curve" smooth="yes"/>
      <point x="483.3333333333333" y="714.6666666666666"/>
      <point x="476.6666666666667" y="715.0"/>
      <point x="469.6666666666667" y="704.0" type="curve" smooth="yes"/>
      <point x="278.6666666666667" y="393.3333333333333" type="line"/>
      <point x="87.66666666666667" y="704.0" type="line" smooth="yes"/>
      <point x="80.33333333333333" y="715.6666666666666"/>
      <point x="72.33333333333333" y="715.3333333333334"/>
      <point x="60.0" y="707.6666666666666" type="curve" smooth="yes"/>
      <point x="47.666666666666664" y="699.6666666666666"/>
      <point x="46.0" y="692.6666666666666"/>
      <point x="51.666666666666664" y="683.3333333333334" type="curve" smooth="yes"/>
      <point x="251.33333333333334" y="358.6666666666667" type="line"/>
      <point x="41.333333333333336" y="18.0" type="line" smooth="yes"/>
      <point x="35.666666666666664" y="8.666666666666666"/>
      <point x="36.0" y="1.666666666666666"/>
      <point x="48.333333333333336" y="-6.333333333333334" type="curve" smooth="yes"/>
      <point x="60.666666666666664" y="-14.0"/>
      <point x="68.66666666666667" y="-13.666666666666666"/>
      <point x="75.0" y="-3.3333333333333335" type="curve" smooth="yes"/>
      <point x="274.6666666666667" y="320.3333333333333" type="line"/>
      <point x="473.6666666666667" y="-3.3333333333333335" type="line" smooth="yes"/>
      <point x="480.6666666666667" y="-14.333333333333334"/>
      <point x="488.6666666666667" y="-14.0"/>
    </contour>
  </outline>
</glyph>
<glyph name="Y" format="2">
  <advance width="490.0"/>
  <unicode hex="0059"/>
  <anchor x="240.0" y="0.0" name="bottom"/>
  <anchor x="245.0" y="670.0" name="top"/>
  <outline>
    <contour>
      <point x="241.66666666666666" y="-11.0" type="curve" smooth="yes"/>
      <point x="256.6666666666667" y="-11.0"/>
      <point x="263.3333333333333" y="-6.666666666666667"/>
      <point x="263.3333333333333" y="4.333333333333333" type="curve" smooth="yes"/>
      <point x="263.3333333333333" y="304.0" type="line"/>
      <point x="478.0" y="685.6666666666666" type="line" smooth="yes"/>
      <point x="483.0" y="695.3333333333334"/>
      <point x="480.6666666666667" y="702.0"/>
      <point x="466.6666666666667" y="709.0" type="curve" smooth="yes"/>
      <point x="454.0" y="715.0"/>
      <point x="447.3333333333333" y="714.0"/>
      <point x="439.3333333333333" y="699.3333333333334" type="curve" smooth="yes"/>
      <point x="241.66666666666666" y="345.6666666666667" type="line"/>
      <point x="50.666666666666664" y="699.3333333333334" type="line" smooth="yes"/>
      <point x="43.0" y="714.0"/>
      <point x="37.333333333333336" y="715.0"/>
      <point x="23.333333333333332" y="709.0" type="curve" smooth="yes"/>
      <point x="10.0" y="702.6666666666666"/>
      <point x="7.0" y="695.3333333333334"/>
      <point x="12.0" y="685.6666666666666" type="curve" smooth="yes"/>
      <point x="220.0" y="303.0" type="line"/>
      <point x="220.0" y="4.333333333333333" type="line" smooth="yes"/>
      <point x="220.0" y="-6.666666666666667"/>
      <point x="226.66666666666666" y="-11.0"/>
    </contour>
  </outline>
</glyph>
<glyph name="Z" format="2">
  <advance width="490.0"/>
  <unicode hex="005A"/>
  <anchor x="245.0" y="0.0" name="bottom"/>
  <anchor x="245.0" y="370.0" name="center"/>
  <anchor x="245.0" y="670.0" name="top"/>
  <outline>
    <contour>
      <point x="31.333333333333332" y="0.0" type="curve" smooth="yes"/>
      <point x="460.6666666666667" y="0.0" type="line" smooth="yes"/>
      <point x="469.3333333333333" y="0.0"/>
      <point x="474.0" y="6.0"/>
      <point x="474.0" y="20.666666666666664" type="curve" smooth="yes"/>
      <point x="474.0" y="35.33333333333333"/>
      <point x="469.3333333333333" y="40.0"/>
      <point x="460.6666666666667" y="40.0" type="curve" smooth="yes"/>
      <point x="75.33333333333333" y="40.0" type="line"/>
      <point x="462.0" y="674.0" type="line" smooth="yes"/>
      <point x="469.0" y="685.3333333333334"/>
      <point x="462.0" y="700.0"/>
      <point x="448.0" y="700.0" type="curve" smooth="yes"/>
      <point x="54.666666666666664" y="700.0" type="line" smooth="yes"/>
      <point x="46.0" y="700.0"/>
      <point x="41.333333333333336" y="694.6666666666666"/>
      <point x="41.333333333333336" y="680.0" type="curve" smooth="yes"/>
      <point x="41.333333333333336" y="665.3333333333334"/>
      <point x="46.0" y="660.0"/>
      <point x="54.666666666666664" y="660.0" type="curve" smooth="yes"/>
      <point x="404.0" y="660.0" type="line"/>
      <point x="17.333333333333332" y="26.0" type="line" smooth="yes"/>
      <point x="10.333333333333334" y="14.666666666666666"/>
      <point x="17.333333333333332" y="0.0"/>
    </contour>
  </outline>
</glyph>
<glyph name="backslash" format="2">
  <advance width="258.0"/>
  <unicode hex="005C"/>
  <outline>
    <contour>
      <point x="235.66666666666666" y="-60.0" type="curve" smooth="yes"/>
      <point x="250.0" y="-56.333333333333336"/>
      <point x="255.33333333333334" y="-50.333333333333336"/>
      <point x="252.66666666666666" y="-40.0" type="curve" smooth="yes"/>
      <point x="47.333333333333336" y="750.3333333333334" type="line"/>
      <point x="44.666666666666664" y="761.3333333333334"/>
      <point x="37.0" y="764.0"/>
      <point x="22.333333333333332" y="760.0" type="curve"/>
      <point x="8.666666666666668" y="756.3333333333334"/>
      <point x="2.666666666666667" y="750.3333333333334"/>
      <point x="5.333333333333334" y="740.0" type="curve" smooth="yes"/>
      <point x="210.66666666666666" y="-50.333333333333336" type="line"/>
      <point x="213.33333333333334" y="-61.333333333333336"/>
      <point x="221.0" y="-64.0"/>
    </contour>
  </outline>
</glyph>
<glyph name="bracketright" format="2">
  <advance width="300.0"/>
  <unicode hex="005D"/>
  <outline>
    <contour>
      <point x="35.666666666666664" y="-40.0" type="curve" smooth="yes"/>
      <point x="35.666666666666664" y="-54.666666666666664"/>
      <point x="40.333333333333336" y="-60.0"/>
      <point x="49.0" y="-60.0" type="curve" smooth="yes"/>
      <point x="165.0" y="-60.0" type="line" smooth="yes"/>
      <point x="180.0" y="-60.0"/>
      <point x="186.66666666666666" y="-55.666666666666664"/>
      <point x="186.66666666666666" y="-44.666666666666664" type="curve" smooth="yes"/>
      <point x="186.66666666666666" y="744.6666666666666" type="line" smooth="yes"/>
      <point x="186.66666666666666" y="755.6666666666666"/>
      <point x="180.0" y="760.0"/>
      <point x="165.0" y="760.0" type="curve" smooth="yes"/>
      <point x="49.0" y="760.0" type="line" smooth="yes"/>
      <point x="40.333333333333336" y="760.0"/>
      <point x="35.666666666666664" y="754.6666666666666"/>
      <point x="35.666666666666664" y="740.0" type="curve" smooth="yes"/>
      <point x="35.666666666666664" y="725.3333333333334"/>
      <point x="40.333333333333336" y="720.0"/>
      <point x="49.0" y="720.0" type="curve" smooth="yes"/>
      <point x="143.33333333333334" y="720.0" type="line"/>
      <point x="143.33333333333334" y="-20.0" type="line"/>
      <point x="49.0" y="-20.0" type="line" smooth="yes"/>
      <point x="40.333333333333336" y="-20.0"/>
      <point x="35.666666666666664" y="-25.333333333333336"/>
    </contour>
  </outline>
</glyph>
<glyph name="underscore" format="2">
  <advance width="440.0"/>
  <unicode hex="005F"/>
  <outline>
    <contour>
      <point x="51.333333333333336" y="-96.33333333333333" type="curve" smooth="yes"/>
      <point x="388.6666666666667" y="-96.33333333333333" type="line" smooth="yes"/>
      <point x="400.0" y="-96.33333333333333"/>
      <point x="404.0" y="-91.0"/>
      <point x="404.0" y="-77.0" type="curve" smooth="yes"/>
      <point x="404.0" y="-62.333333333333336"/>
      <point x="400.0" y="-56.333333333333336"/>
      <point x="388.6666666666667" y="-56.333333333333336" type="curve" smooth="yes"/>
      <point x="51.333333333333336" y="-56.333333333333336" type="line" smooth="yes"/>
      <point x="40.0" y="-56.333333333333336"/>
      <point x="36.0" y="-62.333333333333336"/>
      <point x="36.0" y="-77.0" type="curve" smooth="yes"/>
      <point x="36.0" y="-91.0"/>
      <point x="40.0" y="-96.33333333333333"/>
    </contour>
  </outline>
</glyph>
<glyph name="a" format="2">
  <advance width="498.3333333333333"/>
  <unicode hex="0061"/>
  <anchor x="228.66666666666666" y="0.0" name="bottom"/>
  <anchor x="463.6666666666667" y="0.0" name="ogonek"/>
  <anchor x="239.0" y="400.0" name="top"/>
  <outline>
    <contour>
      <point x="212.0" y="-14.0" type="curve" smooth="yes"/>
      <point x="254.66666666666666" y="-14.0"/>
      <point x="310.0" y="1.3333333333333335"/>
      <point x="347.0" y="73.33333333333333" type="curve"/>
      <point x="347.0" y="68.0"/>
      <point x="347.3333333333333" y="61.666666666666664"/>
      <point x="347.3333333333333" y="57.333333333333336" type="curve" smooth="yes"/>
      <point x="349.3333333333333" y="10.333333333333334"/>
      <point x="374.3333333333333" y="-14.0"/>
      <point x="417.3333333333333" y="-14.0" type="curve" smooth="yes"/>
      <point x="445.6666666666667" y="-14.0"/>
      <point x="477.0" y="2.3333333333333335"/>
      <point x="495.0" y="27.333333333333332" type="curve" smooth="yes"/>
      <point x="499.6666666666667" y="34.333333333333336"/>
      <point x="498.0" y="41.666666666666664"/>
      <point x="491.3333333333333" y="48.666666666666664" type="curve" smooth="yes"/>
      <point x="484.3333333333333" y="55.666666666666664"/>
      <point x="477.3333333333333" y="56.666666666666664"/>
      <point x="471.6666666666667" y="50.666666666666664" type="curve" smooth="yes"/>
      <point x="455.0" y="32.33333333333333"/>
      <point x="441.0" y="24.0"/>
      <point x="424.3333333333333" y="24.0" type="curve" smooth="yes"/>
      <point x="400.6666666666667" y="24.0"/>
      <point x="389.3333333333333" y="39.666666666666664"/>
      <point x="389.3333333333333" y="72.33333333333333" type="curve" smooth="yes"/>
      <point x="389.3333333333333" y="396.6666666666667" type="line" smooth="yes"/>
      <point x="389.3333333333333" y="407.6666666666667"/>
      <point x="383.0" y="412.0"/>
      <point x="368.6666666666667" y="412.0" type="curve" smooth="yes"/>
      <point x="354.3333333333333" y="412.0"/>
      <point x="347.0" y="407.6666666666667"/>
      <point x="347.0" y="396.3333333333333" type="curve" smooth="yes"/>
      <point x="347.0" y="383.0" type="line"/>
      <point x="311.6666666666667" y="404.3333333333333"/>
      <point x="277.0" y="415.0"/>
      <point x="241.0" y="415.0" type="curve" smooth="yes"/>
      <point x="122.33333333333333" y="415.0"/>
      <point x="56.666666666666664" y="323.0"/>
      <point x="56.666666666666664" y="190.0" type="curve" smooth="yes"/>
      <point x="56.666666666666664" y="58.0"/>
      <point x="122.0" y="-14.0"/>
    </contour>
    <contour>
      <point x="101.66666666666667" y="193.0" type="curve" smooth="yes"/>
      <point x="101.66666666666667" y="311.0"/>
      <point x="156.33333333333334" y="376.0"/>
      <point x="241.33333333333334" y="376.0" type="curve" smooth="yes"/>
      <point x="276.6666666666667" y="376.0"/>
      <point x="309.3333333333333" y="368.0"/>
      <point x="347.0" y="343.3333333333333" type="curve"/>
      <point x="347.0" y="144.33333333333334" type="line"/>
      <point x="321.0" y="55.0"/>
      <point x="269.3333333333333" y="26.0"/>
      <point x="219.33333333333334" y="26.0" type="curve" smooth="yes"/>
      <point x="141.33333333333334" y="26.0"/>
      <point x="101.66666666666667" y="94.33333333333333"/>
    </contour>
  </outline>
</glyph>
<glyph name="b" format="2">
  <advance width="478.0"/>
  <unicode hex="0062"/>
  <anchor x="254.66666666666666" y="0.0" name="bottom"/>
  <anchor x="254.66666666666666" y="200.0" name="center"/>
  <anchor x="254.66666666666666" y="400.0" name="top"/>
  <outline>
    <contour>
      <point x="110.66666666666667" y="-11.333333333333334" type="curve" smooth="yes"/>
      <point x="125.0" y="-11.333333333333334"/>
      <point x="132.33333333333334" y="-7.0"/>
      <point x="132.33333333333334" y="3.6666666666666665" type="curve" smooth="yes"/>
      <point x="132.33333333333334" y="21.333333333333336" type="line"/>
      <point x="165.66666666666666" y="-2.333333333333333"/>
      <point x="198.66666666666666" y="-14.0"/>
      <point x="237.0" y="-14.0" type="curve" smooth="yes"/>
      <point x="355.6666666666667" y="-14.0"/>
      <point x="421.3333333333333" y="74.0"/>
      <point x="421.3333333333333" y="213.0" type="curve" smooth="yes"/>
      <point x="421.3333333333333" y="349.0"/>
      <point x="358.6666666666667" y="415.0"/>
      <point x="269.3333333333333" y="415.0" type="curve" smooth="yes"/>
      <point x="223.33333333333334" y="415.0"/>
      <point x="170.0" y="399.3333333333333"/>
      <point x="132.33333333333334" y="330.3333333333333" type="curve"/>
      <point x="132.33333333333334" y="697.0" type="line" smooth="yes"/>
      <point x="132.33333333333334" y="708.3333333333334"/>
      <point x="125.66666666666667" y="712.6666666666666"/>
      <point x="111.33333333333333" y="712.6666666666666" type="curve" smooth="yes"/>
      <point x="97.0" y="712.6666666666666"/>
      <point x="90.0" y="708.3333333333334"/>
      <point x="90.0" y="697.6666666666666" type="curve" smooth="yes"/>
      <point x="90.0" y="3.6666666666666665" type="line" smooth="yes"/>
      <point x="90.0" y="-7.0"/>
      <point x="96.33333333333333" y="-11.333333333333334"/>
    </contour>
    <contour>
      <point x="132.33333333333334" y="61.666666666666664" type="curve"/>
      <point x="132.33333333333334" y="267.3333333333333" type="line"/>
      <point x="162.33333333333334" y="345.3333333333333"/>
      <point x="209.66666666666666" y="375.0"/>
      <point x="262.0" y="375.0" type="curve" smooth="yes"/>
      <point x="339.3333333333333" y="375.0"/>
      <point x="376.3333333333333" y="312.6666666666667"/>
      <point x="376.3333333333333" y="210.0" type="curve" smooth="yes"/>
      <point x="376.3333333333333" y="86.0"/>
      <point x="322.0" y="24.0"/>
      <point x="239.0" y="24.0" type="curve" smooth="yes"/>
      <point x="203.0" y="24.0"/>
      <point x="169.0" y="34.666666666666664"/>
    </contour>
  </outline>
</glyph>
<glyph name="c" format="2">
  <advance width="418.0"/>
  <unicode hex="0063"/>
  <anchor x="229.0" y="0.0" name="bottom"/>
  <anchor x="229.33333333333334" y="400.0" name="top"/>
  <outline>
    <contour>
      <point x="237.33333333333334" y="-15.0" type="curve" smooth="yes"/>
      <point x="288.0" y="-15.0"/>
      <point x="347.6666666666667" y="8.333333333333334"/>
      <point x="384.6666666666667" y="62.666666666666664" type="curve" smooth="yes"/>
      <point x="390.6666666666667" y="71.33333333333333"/>
      <point x="387.0" y="78.66666666666667"/>
      <point x="378.0" y="85.33333333333333" type="curve" smooth="yes"/>
      <point x="369.0" y="92.0"/>
      <point x="360.0" y="93.33333333333333"/>
      <point x="353.0" y="85.33333333333333" type="curve" smooth="yes"/>
      <point x="317.0" y="43.0"/>
      <point x="287.0" y="24.333333333333332"/>
      <point x="238.0" y="24.333333333333332" type="curve" smooth="yes"/>
      <point x="145.66666666666666" y="24.333333333333332"/>
      <point x="101.0" y="95.0"/>
      <point x="101.0" y="196.0" type="curve" smooth="yes"/>
      <point x="101.0" y="309.0"/>
      <point x="153.66666666666666" y="375.6666666666667"/>
      <point x="234.66666666666666" y="375.6666666666667" type="curve" smooth="yes"/>
      <point x="282.3333333333333" y="375.6666666666667"/>
      <point x="309.0" y="357.0"/>
      <point x="340.0" y="327.6666666666667" type="curve" smooth="yes"/>
      <point x="347.0" y="321.3333333333333"/>
      <point x="355.3333333333333" y="320.6666666666667"/>
      <point x="364.6666666666667" y="330.0" type="curve" smooth="yes"/>
      <point x="374.6666666666667" y="340.3333333333333"/>
      <point x="375.3333333333333" y="347.0"/>
      <point x="368.6666666666667" y="355.3333333333333" type="curve" smooth="yes"/>
      <point x="337.6666666666667" y="391.6666666666667"/>
      <point x="286.0" y="415.0"/>
      <point x="237.66666666666666" y="415.0" type="curve" smooth="yes"/>
      <point x="125.0" y="415.0"/>
      <point x="56.666666666666664" y="322.3333333333333"/>
      <point x="56.666666666666664" y="192.66666666666666" type="curve" smooth="yes"/>
      <point x="56.666666666666664" y="60.0"/>
      <point x="128.0" y="-15.0"/>
    </contour>
  </outline>
</glyph>
<glyph name="d" format="2">
  <advance width="503.0"/>
  <unicode hex="0064"/>
  <anchor x="222.0" y="0.0" name="bottom"/>
  <anchor x="350.0" y="558.0" name="center"/>
  <anchor x="217.0" y="400.0" name="top"/>
  <anchor x="383.0" y="700.0" name="topright"/>
  <outline>
    <contour>
      <point x="212.0" y="-14.0" type="curve" smooth="yes"/>
      <point x="254.66666666666666" y="-14.0"/>
      <point x="310.3333333333333" y="1.3333333333333335"/>
      <point x="347.6666666666667" y="73.66666666666667" type="curve"/>
      <point x="347.6666666666667" y="69.33333333333333"/>
      <point x="347.6666666666667" y="64.33333333333333"/>
      <point x="347.6666666666667" y="60.0" type="curve" smooth="yes"/>
      <point x="347.6666666666667" y="15.666666666666666"/>
      <point x="370.6666666666667" y="-14.0"/>
      <point x="417.6666666666667" y="-14.0" type="curve" smooth="yes"/>
      <point x="446.0" y="-14.0"/>
      <point x="477.3333333333333" y="2.3333333333333335"/>
      <point x="495.3333333333333" y="27.333333333333332" type="curve" smooth="yes"/>
      <point x="500.0" y="34.333333333333336"/>
      <point x="498.0" y="41.333333333333336"/>
      <point x="492.0" y="48.0" type="curve" smooth="yes"/>
      <point x="485.6666666666667" y="55.0"/>
      <point x="478.3333333333333" y="56.666666666666664"/>
      <point x="472.3333333333333" y="50.666666666666664" type="curve" smooth="yes"/>
      <point x="456.0" y="32.666666666666664"/>
      <point x="440.6666666666667" y="24.0"/>
      <point x="424.6666666666667" y="24.0" type="curve" smooth="yes"/>
      <point x="401.0" y="24.0"/>
      <point x="389.6666666666667" y="39.666666666666664"/>
      <point x="389.6666666666667" y="72.33333333333333" type="curve" smooth="yes"/>
      <point x="389.6666666666667" y="697.0" type="line" smooth="yes"/>
      <point x="389.6666666666667" y="707.6666666666666"/>
      <point x="383.3333333333333" y="712.0"/>
      <point x="369.0" y="712.0" type="curve" smooth="yes"/>
      <point x="354.6666666666667" y="712.0"/>
      <point x="347.3333333333333" y="707.6666666666666"/>
      <point x="347.3333333333333" y="697.0" type="curve" smooth="yes"/>
      <point x="347.3333333333333" y="383.6666666666667" type="line"/>
      <point x="312.0" y="405.0"/>
      <point x="277.3333333333333" y="415.0"/>
      <point x="242.0" y="415.0" type="curve" smooth="yes"/>
      <point x="122.33333333333333" y="415.0"/>
      <point x="56.666666666666664" y="323.0"/>
      <point x="56.666666666666664" y="190.0" type="curve" smooth="yes"/>
      <point x="56.666666666666664" y="58.0"/>
      <point x="122.0" y="-14.0"/>
    </contour>
    <contour>
      <point x="101.66666666666667" y="193.0" type="curve" smooth="yes"/>
      <point x="101.66666666666667" y="311.0"/>
      <point x="156.33333333333334" y="376.0"/>
      <point x="241.33333333333334" y="376.0" type="curve" smooth="yes"/>
      <point x="276.6666666666667" y="376.0"/>
      <point x="309.6666666666667" y="367.6666666666667"/>
      <point x="347.3333333333333" y="342.3333333333333" type="curve"/>
      <point x="347.3333333333333" y="144.33333333333334" type="line"/>
      <point x="321.3333333333333" y="55.0"/>
      <point x="269.3333333333333" y="26.0"/>
      <point x="219.33333333333334" y="26.0" type="curve" smooth="yes"/>
      <point x="141.33333333333334" y="26.0"/>
      <point x="101.66666666666667" y="94.33333333333333"/>
    </contour>
  </outline>
</glyph>
<glyph name="f" format="2">
  <advance width="293.0"/>
  <unicode hex="0066"/>
  <outline>
    <contour>
      <point x="60.0" y="-315.0" type="curve" smooth="yes"/>
      <point x="115.0" y="-315.0"/>
      <point x="155.66666666666666" y="-287.0"/>
      <point x="155.66666666666666" y="-203.66666666666666" type="curve" smooth="yes"/>
      <point x="155.66666666666666" y="361.3333333333333" type="line"/>
      <point x="274.6666666666667" y="361.3333333333333" type="line" smooth="yes"/>
      <point x="282.0" y="361.3333333333333"/>
      <point x="287.0" y="368.0"/>
      <point x="287.0" y="381.3333333333333" type="curve" smooth="yes"/>
      <point x="287.0" y="394.3333333333333"/>
      <point x="282.0" y="400.0"/>
      <point x="274.6666666666667" y="400.0" type="curve" smooth="yes"/>
      <point x="155.66666666666666" y="400.0" type="line"/>
      <point x="155.66666666666666" y="586.0" type="line" smooth="yes"/>
      <point x="155.66666666666666" y="655.6666666666666"/>
      <point x="181.33333333333334" y="675.6666666666666"/>
      <point x="222.33333333333334" y="675.6666666666666" type="curve" smooth="yes"/>
      <point x="254.33333333333334" y="675.6666666666666"/>
      <point x="278.3333333333333" y="661.0"/>
      <point x="298.3333333333333" y="644.6666666666666" type="curve" smooth="yes"/>
      <point x="306.6666666666667" y="637.6666666666666"/>
      <point x="315.0" y="637.6666666666666"/>
      <point x="323.0" y="645.6666666666666" type="curve" smooth="yes"/>
      <point x="331.0" y="654.0"/>
      <point x="334.0" y="662.0"/>
      <point x="326.6666666666667" y="670.0" type="curve" smooth="yes"/>
      <point x="304.6666666666667" y="693.6666666666666"/>
      <point x="267.0" y="715.0"/>
      <point x="223.66666666666666" y="715.0" type="curve" smooth="yes"/>
      <point x="164.66666666666666" y="715.0"/>
      <point x="113.33333333333333" y="683.6666666666666"/>
      <point x="113.33333333333333" y="591.6666666666666" type="curve" smooth="yes"/>
      <point x="113.33333333333333" y="400.0" type="line"/>
      <point x="33.0" y="400.0" type="line" smooth="yes"/>
      <point x="25.333333333333332" y="400.0"/>
      <point x="20.333333333333332" y="393.6666666666667"/>
      <point x="20.333333333333332" y="380.6666666666667" type="curve" smooth="yes"/>
      <point x="20.333333333333332" y="367.3333333333333"/>
      <point x="25.666666666666668" y="361.3333333333333"/>
      <point x="33.333333333333336" y="361.3333333333333" type="curve" smooth="yes"/>
      <point x="113.33333333333333" y="361.3333333333333" type="line"/>
      <point x="113.33333333333333" y="-201.0" type="line" smooth="yes"/>
      <point x="113.33333333333333" y="-254.66666666666666"/>
      <point x="99.33333333333333" y="-277.6666666666667"/>
      <point x="62.333333333333336" y="-277.6666666666667" type="curve" smooth="yes"/>
      <point x="34.666666666666664" y="-277.6666666666667"/>
      <point x="16.666666666666664" y="-261.6666666666667"/>
      <point x="1.666666666666666" y="-243.0" type="curve" smooth="yes"/>
      <point x="-5.666666666666667" y="-234.0"/>
      <point x="-13.333333333333334" y="-234.0"/>
      <point x="-23.333333333333332" y="-240.66666666666666" type="curve" smooth="yes"/>
      <point x="-33.666666666666664" y="-247.66666666666666"/>
      <point x="-36.333333333333336" y="-256.3333333333333"/>
      <point x="-31.333333333333332" y="-265.3333333333333" type="curve" smooth="yes"/>
      <point x="-15.0" y="-294.0"/>
      <point x="18.333333333333332" y="-315.0"/>
    </contour>
  </outline>
</glyph>
<glyph name="g" format="2">
  <advance width="478.0"/>
  <unicode hex="0067"/>
  <anchor x="236.0" y="400.0" name="top"/>
  <outline>
    <contour>
      <point x="224.66666666666666" y="-315.0" type="curve" smooth="yes"/>
      <point x="326.0" y="-315.0"/>
      <point x="389.6666666666667" y="-252.0"/>
      <point x="389.6666666666667" y="-124.66666666666667" type="curve" smooth="yes"/>
      <point x="389.6666666666667" y="397.0" type="line" smooth="yes"/>
      <point x="389.6666666666667" y="407.6666666666667"/>
      <point x="383.0" y="412.0"/>
      <point x="368.6666666666667" y="412.0" type="curve" smooth="yes"/>
      <point x="354.3333333333333" y="412.0"/>
      <point x="347.3333333333333" y="407.6666666666667"/>
      <point x="347.3333333333333" y="397.0" type="curve" smooth="yes"/>
      <point x="347.3333333333333" y="-122.66666666666667" type="line" smooth="yes"/>
      <point x="347.3333333333333" y="-229.66666666666666"/>
      <point x="302.3333333333333" y="-275.6666666666667"/>
      <point x="228.33333333333334" y="-275.6666666666667" type="curve" smooth="yes"/>
      <point x="170.66666666666666" y="-275.6666666666667"/>
      <point x="137.0" y="-255.0"/>
      <point x="110.66666666666667" y="-211.33333333333334" type="curve" smooth="yes"/>
      <point x="104.0" y="-202.0"/>
      <point x="97.33333333333333" y="-199.0"/>
      <point x="84.66666666666667" y="-207.0" type="curve" smooth="yes"/>
      <point x="71.33333333333333" y="-215.66666666666666"/>
      <point x="70.33333333333333" y="-224.0"/>
      <point x="76.33333333333333" y="-234.33333333333334" type="curve" smooth="yes"/>
      <point x="102.66666666666667" y="-283.6666666666667"/>
      <point x="151.33333333333334" y="-315.0"/>
    </contour>
    <contour>
      <point x="212.0" y="-14.0" type="curve" smooth="yes"/>
      <point x="264.0" y="-14.0"/>
      <point x="334.3333333333333" y="9.0"/>
      <point x="369.0" y="126.66666666666667" type="curve"/>
      <point x="354.0" y="161.0" type="line"/>
      <point x="328.0" y="59.33333333333333"/>
      <point x="273.0" y="26.0"/>
      <point x="219.33333333333334" y="26.0" type="curve" smooth="yes"/>
      <point x="141.33333333333334" y="26.0"/>
      <point x="101.66666666666667" y="94.33333333333333"/>
      <point x="101.66666666666667" y="193.0" type="curve" smooth="yes"/>
      <point x="101.66666666666667" y="311.0"/>
      <point x="156.33333333333334" y="376.0"/>
      <point x="241.33333333333334" y="376.0" type="curve" smooth="yes"/>
      <point x="280.0" y="376.0"/>
      <point x="316.6666666666667" y="365.0"/>
      <point x="359.0" y="334.3333333333333" type="curve"/>
      <point x="359.0" y="376.3333333333333" type="line"/>
      <point x="321.0" y="402.0"/>
      <point x="281.6666666666667" y="415.0"/>
      <point x="241.0" y="415.0" type="curve" smooth="yes"/>
      <point x="122.33333333333333" y="415.0"/>
      <point x="56.666666666666664" y="323.0"/>
      <point x="56.666666666666664" y="190.0" type="curve" smooth="yes"/>
      <point x="56.666666666666664" y="58.0"/>
      <point x="122.0" y="-14.0"/>
    </contour>
  </outline>
</glyph>
<glyph name="h" format="2">
  <advance width="521.0"/>
  <unicode hex="0068"/>
  <anchor x="262.3333333333333" y="0.0" name="bottom"/>
  <anchor x="134.0" y="558.0" name="center"/>
  <anchor x="112.33333333333333" y="670.0" name="top"/>
  <outline>
    <contour>
      <point x="438.3333333333333" y="-14.0" type="curve" smooth="yes"/>
      <point x="468.0" y="-14.0"/>
      <point x="499.3333333333333" y="2.0"/>
      <point x="517.3333333333334" y="27.0" type="curve" smooth="yes"/>
      <point x="522.3333333333334" y="34.333333333333336"/>
      <point x="520.6666666666666" y="41.0"/>
      <point x="514.3333333333334" y="48.0" type="curve" smooth="yes"/>
      <point x="507.6666666666667" y="55.333333333333336"/>
      <point x="500.0" y="56.0"/>
      <point x="493.6666666666667" y="49.333333333333336" type="curve" smooth="yes"/>
      <point x="478.0" y="32.33333333333333"/>
      <point x="463.0" y="24.666666666666664"/>
      <point x="446.6666666666667" y="24.666666666666664" type="curve" smooth="yes"/>
      <point x="423.0" y="24.666666666666664"/>
      <point x="413.0" y="42.333333333333336"/>
      <point x="413.0" y="75.0" type="curve" smooth="yes"/>
      <point x="413.0" y="267.0" type="line" smooth="yes"/>
      <point x="413.0" y="372.0"/>
      <point x="356.0" y="415.0"/>
      <point x="280.0" y="415.0" type="curve" smooth="yes"/>
      <point x="226.0" y="415.0"/>
      <point x="166.0" y="393.3333333333333"/>
      <point x="132.33333333333334" y="324.0" type="curve"/>
      <point x="132.33333333333334" y="697.0" type="line" smooth="yes"/>
      <point x="132.33333333333334" y="707.6666666666666"/>
      <point x="125.0" y="712.0"/>
      <point x="110.66666666666667" y="712.0" type="curve" smooth="yes"/>
      <point x="96.33333333333333" y="712.0"/>
      <point x="90.0" y="707.6666666666666"/>
      <point x="90.0" y="697.0" type="curve" smooth="yes"/>
      <point x="90.0" y="3.0" type="line" smooth="yes"/>
      <point x="90.0" y="-7.666666666666667"/>
      <point x="96.33333333333333" y="-12.0"/>
      <point x="110.66666666666667" y="-12.0" type="curve" smooth="yes"/>
      <point x="125.0" y="-12.0"/>
      <point x="132.33333333333334" y="-7.666666666666667"/>
      <point x="132.33333333333334" y="3.0" type="curve" smooth="yes"/>
      <point x="132.33333333333334" y="252.0" type="line"/>
      <point x="156.66666666666666" y="344.6666666666667"/>
      <point x="215.66666666666666" y="375.0"/>
      <point x="274.0" y="375.0" type="curve" smooth="yes"/>
      <point x="343.0" y="375.0"/>
      <point x="370.6666666666667" y="332.3333333333333"/>
      <point x="370.6666666666667" y="261.0" type="curve" smooth="yes"/>
      <point x="370.6666666666667" y="65.66666666666667" type="line" smooth="yes"/>
      <point x="370.6666666666667" y="13.0"/>
      <point x="395.0" y="-14.0"/>
    </contour>
  </outline>
</glyph>
<glyph name="i" format="2">
  <advance width="241.33333333333334"/>
  <unicode hex="0069"/>
  <anchor x="157.33333333333334" y="0.0" name="bottom"/>
  <anchor x="201.33333333333334" y="0.0" name="ogonek"/>
  <outline>
    <contour>
      <point x="153.33333333333334" y="-14.0" type="curve" smooth="yes"/>
      <point x="183.66666666666666" y="-14.0"/>
      <point x="215.33333333333334" y="2.3333333333333335"/>
      <point x="233.33333333333334" y="27.333333333333332" type="curve" smooth="yes"/>
      <point x="238.0" y="34.333333333333336"/>
      <point x="236.33333333333334" y="41.333333333333336"/>
      <point x="230.33333333333334" y="48.0" type="curve" smooth="yes"/>
      <point x="224.0" y="55.0"/>
      <point x="215.66666666666666" y="56.0"/>
      <point x="210.0" y="49.666666666666664" type="curve" smooth="yes"/>
      <point x="193.66666666666666" y="32.33333333333333"/>
      <point x="178.66666666666666" y="24.666666666666664"/>
      <point x="161.66666666666666" y="24.666666666666664" type="curve" smooth="yes"/>
      <point x="137.33333333333334" y="24.666666666666664"/>
      <point x="127.33333333333333" y="42.333333333333336"/>
      <point x="127.33333333333333" y="75.0" type="curve" smooth="yes"/>
      <point x="127.33333333333333" y="397.0" type="line" smooth="yes"/>
      <point x="127.33333333333333" y="407.6666666666667"/>
      <point x="120.0" y="412.0"/>
      <point x="105.66666666666667" y="412.0" type="curve" smooth="yes"/>
      <point x="91.33333333333333" y="412.0"/>
      <point x="85.0" y="407.6666666666667"/>
      <point x="85.0" y="397.0" type="curve" smooth="yes"/>
      <point x="85.0" y="65.66666666666667" type="line" smooth="yes"/>
      <point x="85.0" y="13.0"/>
      <point x="109.33333333333333" y="-14.0"/>
    </contour>
    <contour>
      <point x="106.0" y="546.3333333333334" type="curve" smooth="yes"/>
      <point x="129.0" y="546.3333333333334"/>
      <point x="141.0" y="559.0"/>
      <point x="140.66666666666666" y="585.6666666666666" type="curve" smooth="yes"/>
      <point x="140.66666666666666" y="612.3333333333334"/>
      <point x="129.0" y="625.3333333333334"/>
      <point x="106.0" y="625.3333333333334" type="curve" smooth="yes"/>
      <point x="82.66666666666667" y="625.3333333333334"/>
      <point x="71.0" y="612.3333333333334"/>
      <point x="71.0" y="585.6666666666666" type="curve" smooth="yes"/>
      <point x="71.0" y="559.0"/>
      <point x="82.66666666666667" y="546.3333333333334"/>
    </contour>
  </outline>
</glyph>
<glyph name="j" format="2">
  <advance width="214.0"/>
  <unicode hex="006A"/>
  <outline>
    <contour>
      <point x="33.333333333333336" y="-314.3333333333333" type="curve" smooth="yes"/>
      <point x="93.33333333333333" y="-314.3333333333333"/>
      <point x="126.0" y="-276.3333333333333"/>
      <point x="126.0" y="-204.66666666666666" type="curve" smooth="yes"/>
      <point x="126.0" y="397.0" type="line" smooth="yes"/>
      <point x="126.0" y="407.6666666666667"/>
      <point x="119.33333333333333" y="412.0"/>
      <point x="105.0" y="412.0" type="curve" smooth="yes"/>
      <point x="90.66666666666667" y="412.0"/>
      <point x="83.66666666666667" y="407.6666666666667"/>
      <point x="83.66666666666667" y="397.0" type="curve" smooth="yes"/>
      <point x="83.66666666666667" y="-205.0" type="line" smooth="yes"/>
      <point x="83.66666666666667" y="-247.66666666666666"/>
      <point x="74.66666666666667" y="-275.6666666666667"/>
      <point x="34.0" y="-275.6666666666667" type="curve" smooth="yes"/>
      <point x="9.333333333333332" y="-275.6666666666667"/>
      <point x="-5.333333333333334" y="-262.0"/>
      <point x="-18.0" y="-241.0" type="curve" smooth="yes"/>
      <point x="-24.333333333333336" y="-231.66666666666666"/>
      <point x="-31.333333333333332" y="-228.66666666666666"/>
      <point x="-43.666666666666664" y="-235.66666666666666" type="curve" smooth="yes"/>
      <point x="-53.666666666666664" y="-241.33333333333334"/>
      <point x="-56.333333333333336" y="-250.0"/>
      <point x="-52.333333333333336" y="-259.3333333333333" type="curve" smooth="yes"/>
      <point x="-39.666666666666664" y="-290.3333333333333"/>
      <point x="-8.333333333333334" y="-314.3333333333333"/>
    </contour>
    <contour>
      <point x="104.33333333333333" y="546.3333333333334" type="curve" smooth="yes"/>
      <point x="127.33333333333333" y="546.3333333333334"/>
      <point x="139.0" y="559.0"/>
      <point x="139.0" y="585.6666666666666" type="curve" smooth="yes"/>
      <point x="139.0" y="612.3333333333334"/>
      <point x="127.33333333333333" y="625.3333333333334"/>
      <point x="104.33333333333333" y="625.3333333333334" type="curve" smooth="yes"/>
      <point x="81.0" y="625.3333333333334"/>
      <point x="69.33333333333333" y="612.3333333333334"/>
      <point x="69.33333333333333" y="585.6666666666666" type="curve" smooth="yes"/>
      <point x="69.33333333333333" y="559.0"/>
      <point x="81.0" y="546.3333333333334"/>
    </contour>
  </outline>
</glyph>
<glyph name="k" format="2">
  <advance width="451.0"/>
  <unicode hex="006B"/>
  <anchor x="237.66666666666666" y="0.0" name="bottom"/>
  <anchor x="110.66666666666667" y="670.0" name="top"/>
  <outline>
    <contour>
      <point x="110.66666666666667" y="-12.0" type="curve" smooth="yes"/>
      <point x="125.0" y="-12.0"/>
      <point x="132.33333333333334" y="-7.666666666666667"/>
      <point x="132.33333333333334" y="3.0" type="curve" smooth="yes"/>
      <point x="132.33333333333334" y="197.0" type="line"/>
      <point x="261.0" y="23.0"/>
      <point x="294.3333333333333" y="-14.666666666666666"/>
      <point x="348.6666666666667" y="-14.666666666666666" type="curve" smooth="yes"/>
      <point x="369.6666666666667" y="-14.666666666666666"/>
      <point x="409.6666666666667" y="-7.0"/>
      <point x="447.0" y="42.0" type="curve" smooth="yes"/>
      <point x="453.0" y="49.666666666666664"/>
      <point x="450.6666666666667" y="59.0"/>
      <point x="441.6666666666667" y="65.0" type="curve" smooth="yes"/>
      <point x="433.0" y="71.0"/>
      <point x="426.0" y="71.66666666666667"/>
      <point x="418.3333333333333" y="63.0" type="curve" smooth="yes"/>
      <point x="391.3333333333333" y="33.0"/>
      <point x="373.0" y="25.0"/>
      <point x="352.6666666666667" y="25.0" type="curve" smooth="yes"/>
      <point x="318.0" y="25.0"/>
      <point x="295.0" y="51.0"/>
      <point x="169.66666666666666" y="219.0" type="curve"/>
      <point x="369.6666666666667" y="377.3333333333333" type="line" smooth="yes"/>
      <point x="380.6666666666667" y="386.0"/>
      <point x="377.0" y="395.6666666666667"/>
      <point x="370.6666666666667" y="403.0" type="curve" smooth="yes"/>
      <point x="362.0" y="413.3333333333333"/>
      <point x="353.0" y="414.0"/>
      <point x="341.6666666666667" y="405.3333333333333" type="curve" smooth="yes"/>
      <point x="132.33333333333334" y="238.0" type="line"/>
      <point x="132.33333333333334" y="697.0" type="line" smooth="yes"/>
      <point x="132.33333333333334" y="707.6666666666666"/>
      <point x="125.0" y="712.0"/>
      <point x="110.66666666666667" y="712.0" type="curve" smooth="yes"/>
      <point x="96.33333333333333" y="712.0"/>
      <point x="90.0" y="707.6666666666666"/>
      <point x="90.0" y="697.0" type="curve" smooth="yes"/>
      <point x="90.0" y="3.0" type="line" smooth="yes"/>
      <point x="90.0" y="-7.666666666666667"/>
      <point x="96.33333333333333" y="-12.0"/>
    </contour>
  </outline>
</glyph>
<glyph name="l" format="2">
  <advance width="241.0"/>
  <unicode hex="006C"/>
  <anchor x="160.0" y="0.0" name="bottom"/>
  <anchor x="106.0" y="350.0" name="center"/>
  <anchor x="104.0" y="670.0" name="top"/>
  <anchor x="119.0" y="700.0" name="topright"/>
  <outline>
    <contour>
      <point x="152.66666666666666" y="-14.0" type="curve" smooth="yes"/>
      <point x="183.0" y="-14.0"/>
      <point x="215.33333333333334" y="2.3333333333333335"/>
      <point x="233.33333333333334" y="28.0" type="curve" smooth="yes"/>
      <point x="238.0" y="35.0"/>
      <point x="235.33333333333334" y="42.0"/>
      <point x="230.0" y="48.0" type="curve" smooth="yes"/>
      <point x="223.0" y="55.666666666666664"/>
      <point x="215.33333333333334" y="56.0"/>
      <point x="209.33333333333334" y="49.333333333333336" type="curve" smooth="yes"/>
      <point x="193.33333333333334" y="32.33333333333333"/>
      <point x="178.0" y="24.666666666666664"/>
      <point x="161.0" y="24.666666666666664" type="curve" smooth="yes"/>
      <point x="137.33333333333334" y="24.666666666666664"/>
      <point x="127.33333333333333" y="42.333333333333336"/>
      <point x="127.33333333333333" y="75.0" type="curve" smooth="yes"/>
      <point x="127.33333333333333" y="697.0" type="line" smooth="yes"/>
      <point x="127.33333333333333" y="707.6666666666666"/>
      <point x="120.0" y="712.0"/>
      <point x="105.66666666666667" y="712.0" type="curve" smooth="yes"/>
      <point x="91.33333333333333" y="712.0"/>
      <point x="85.0" y="707.6666666666666"/>
      <point x="85.0" y="697.0" type="curve" smooth="yes"/>
      <point x="85.0" y="65.66666666666667" type="line" smooth="yes"/>
      <point x="85.0" y="13.0"/>
      <point x="109.33333333333333" y="-14.0"/>
    </contour>
  </outline>
</glyph>
<glyph name="m" format="2">
  <advance width="771.0"/>
  <unicode hex="006D"/>
  <anchor x="375.0" y="0.0" name="bottom"/>
  <anchor x="379.0" y="400.0" name="top"/>
  <outline>
    <contour>
      <point x="687.6666666666666" y="-14.0" type="curve" smooth="yes"/>
      <point x="718.0" y="-14.0"/>
      <point x="750.0" y="2.3333333333333335"/>
      <point x="768.0" y="27.333333333333332" type="curve" smooth="yes"/>
      <point x="772.6666666666666" y="34.333333333333336"/>
      <point x="770.3333333333334" y="41.666666666666664"/>
      <point x="765.0" y="47.666666666666664" type="curve" smooth="yes"/>
      <point x="758.0" y="55.333333333333336"/>
      <point x="750.0" y="55.666666666666664"/>
      <point x="744.3333333333334" y="49.333333333333336" type="curve" smooth="yes"/>
      <point x="728.0" y="32.0"/>
      <point x="713.3333333333334" y="24.666666666666664"/>
      <point x="696.0" y="24.666666666666664" type="curve" smooth="yes"/>
      <point x="673.0" y="24.666666666666664"/>
      <point x="663.0" y="42.333333333333336"/>
      <point x="663.0" y="75.0" type="curve" smooth="yes"/>
      <point x="663.0" y="267.0" type="line" smooth="yes"/>
      <point x="663.0" y="372.0"/>
      <point x="607.3333333333334" y="415.0"/>
      <point x="534.6666666666666" y="415.0" type="curve" smooth="yes"/>
      <point x="482.3333333333333" y="415.0"/>
      <point x="404.0" y="391.3333333333333"/>
      <point x="375.0" y="276.3333333333333" type="curve"/>
      <point x="387.6666666666667" y="233.66666666666666" type="line"/>
      <point x="409.6666666666667" y="341.0"/>
      <point x="471.0" y="375.0"/>
      <point x="529.0" y="375.0" type="curve" smooth="yes"/>
      <point x="594.6666666666666" y="375.0"/>
      <point x="620.6666666666666" y="332.3333333333333"/>
      <point x="620.6666666666666" y="261.0" type="curve" smooth="yes"/>
      <point x="620.6666666666666" y="65.66666666666667" type="line" smooth="yes"/>
      <point x="620.6666666666666" y="13.0"/>
      <point x="645.0" y="-14.0"/>
    </contour>
    <contour>
      <point x="105.66666666666667" y="-12.0" type="curve" smooth="yes"/>
      <point x="120.0" y="-12.0"/>
      <point x="127.33333333333333" y="-7.666666666666667"/>
      <point x="127.33333333333333" y="3.0" type="curve" smooth="yes"/>
      <point x="127.33333333333333" y="397.0" type="line" smooth="yes"/>
      <point x="127.33333333333333" y="407.6666666666667"/>
      <point x="120.0" y="412.0"/>
      <point x="105.66666666666667" y="412.0" type="curve" smooth="yes"/>
      <point x="91.33333333333333" y="412.0"/>
      <point x="85.0" y="407.6666666666667"/>
      <point x="85.0" y="397.0" type="curve" smooth="yes"/>
      <point x="85.0" y="3.0" type="line" smooth="yes"/>
      <point x="85.0" y="-7.666666666666667"/>
      <point x="91.33333333333333" y="-12.0"/>
    </contour>
    <contour>
      <point x="374.3333333333333" y="-12.0" type="curve" smooth="yes"/>
      <point x="388.6666666666667" y="-12.0"/>
      <point x="396.0" y="-7.666666666666667"/>
      <point x="396.0" y="3.0" type="curve" smooth="yes"/>
      <point x="396.0" y="267.0" type="line" smooth="yes"/>
      <point x="396.0" y="372.0"/>
      <point x="339.6666666666667" y="415.0"/>
      <point x="266.6666666666667" y="415.0" type="curve" smooth="yes"/>
      <point x="212.33333333333334" y="415.0"/>
      <point x="137.33333333333334" y="388.6666666666667"/>
      <point x="108.66666666666667" y="276.0" type="curve"/>
      <point x="121.66666666666667" y="233.66666666666666" type="line"/>
      <point x="143.33333333333334" y="340.6666666666667"/>
      <point x="205.33333333333334" y="375.0"/>
      <point x="260.6666666666667" y="375.0" type="curve" smooth="yes"/>
      <point x="327.3333333333333" y="375.0"/>
      <point x="353.6666666666667" y="332.6666666666667"/>
      <point x="353.6666666666667" y="261.0" type="curve" smooth="yes"/>
      <point x="353.6666666666667" y="3.0" type="line" smooth="yes"/>
      <point x="353.6666666666667" y="-7.666666666666667"/>
      <point x="360.0" y="-12.0"/>
    </contour>
  </outline>
</glyph>
<glyph name="n" format="2">
  <advance width="517.0"/>
  <unicode hex="006E"/>
  <anchor x="259.0" y="0.0" name="bottom"/>
  <anchor x="250.0" y="400.0" name="top"/>
  <outline>
    <contour>
      <point x="433.6666666666667" y="-14.0" type="curve" smooth="yes"/>
      <point x="464.0" y="-14.0"/>
      <point x="495.6666666666667" y="2.0"/>
      <point x="513.6666666666666" y="27.0" type="curve" smooth="yes"/>
      <point x="518.3333333333334" y="34.0"/>
      <point x="517.0" y="41.0"/>
      <point x="510.6666666666667" y="48.0" type="curve" smooth="yes"/>
      <point x="504.3333333333333" y="55.0"/>
      <point x="496.3333333333333" y="56.0"/>
      <point x="490.0" y="49.333333333333336" type="curve" smooth="yes"/>
      <point x="474.3333333333333" y="32.33333333333333"/>
      <point x="458.3333333333333" y="24.666666666666664"/>
      <point x="442.0" y="24.666666666666664" type="curve" smooth="yes"/>
      <point x="418.3333333333333" y="24.666666666666664"/>
      <point x="408.3333333333333" y="42.333333333333336"/>
      <point x="408.3333333333333" y="75.0" type="curve" smooth="yes"/>
      <point x="408.3333333333333" y="267.0" type="line" smooth="yes"/>
      <point x="408.3333333333333" y="372.0"/>
      <point x="351.3333333333333" y="415.0"/>
      <point x="275.3333333333333" y="415.0" type="curve" smooth="yes"/>
      <point x="221.0" y="415.0"/>
      <point x="161.0" y="393.0"/>
      <point x="127.33333333333333" y="323.6666666666667" type="curve"/>
      <point x="127.33333333333333" y="397.0" type="line" smooth="yes"/>
      <point x="127.33333333333333" y="407.6666666666667"/>
      <point x="120.0" y="412.0"/>
      <point x="105.66666666666667" y="412.0" type="curve" smooth="yes"/>
      <point x="91.33333333333333" y="412.0"/>
      <point x="85.0" y="407.6666666666667"/>
      <point x="85.0" y="397.0" type="curve" smooth="yes"/>
      <point x="85.0" y="3.0" type="line" smooth="yes"/>
      <point x="85.0" y="-7.666666666666667"/>
      <point x="91.33333333333333" y="-12.0"/>
      <point x="105.66666666666667" y="-12.0" type="curve" smooth="yes"/>
      <point x="120.0" y="-12.0"/>
      <point x="127.33333333333333" y="-7.666666666666667"/>
      <point x="127.33333333333333" y="3.0" type="curve" smooth="yes"/>
      <point x="127.33333333333333" y="251.33333333333334" type="line"/>
      <point x="151.66666666666666" y="344.6666666666667"/>
      <point x="210.66666666666666" y="375.0"/>
      <point x="269.3333333333333" y="375.0" type="curve" smooth="yes"/>
      <point x="338.3333333333333" y="375.0"/>
      <point x="366.0" y="332.3333333333333"/>
      <point x="366.0" y="261.0" type="curve" smooth="yes"/>
      <point x="366.0" y="65.66666666666667" type="line" smooth="yes"/>
      <point x="366.0" y="13.0"/>
      <point x="390.3333333333333" y="-14.0"/>
    </contour>
  </outline>
</glyph>
<glyph name="o" format="2">
  <advance width="471.0"/>
  <unicode hex="006F"/>
  <anchor x="236.0" y="0.0" name="bottom"/>
  <anchor x="236.0" y="200.0" name="center"/>
  <anchor x="308.0" y="0.0" name="ogonek"/>
  <anchor x="236.0" y="400.0" name="top"/>
  <anchor x="292.0" y="405.0" name="topright"/>
  <outline>
    <contour>
      <point x="236.0" y="-15.0" type="curve" smooth="yes"/>
      <point x="343.6666666666667" y="-15.0"/>
      <point x="414.3333333333333" y="73.0"/>
      <point x="414.3333333333333" y="200.0" type="curve" smooth="yes"/>
      <point x="414.3333333333333" y="327.0"/>
      <point x="341.0" y="415.0"/>
      <point x="236.0" y="415.0" type="curve" smooth="yes"/>
      <point x="132.0" y="415.0"/>
      <point x="56.666666666666664" y="327.0"/>
      <point x="56.666666666666664" y="200.0" type="curve" smooth="yes"/>
      <point x="56.666666666666664" y="73.0"/>
      <point x="126.0" y="-15.0"/>
    </contour>
    <contour>
      <point x="236.0" y="25.0" type="curve" smooth="yes"/>
      <point x="152.33333333333334" y="25.0"/>
      <point x="101.0" y="95.66666666666667"/>
      <point x="101.0" y="200.0" type="curve" smooth="yes"/>
      <point x="101.0" y="304.3333333333333"/>
      <point x="152.33333333333334" y="375.0"/>
      <point x="236.0" y="375.0" type="curve" smooth="yes"/>
      <point x="319.0" y="375.0"/>
      <point x="370.0" y="304.3333333333333"/>
      <point x="370.0" y="200.0" type="curve" smooth="yes"/>
      <point x="370.0" y="95.66666666666667"/>
      <point x="319.0" y="25.0"/>
    </contour>
  </outline>
</glyph>
<glyph name="p" format="2">
  <advance width="478.0"/>
  <unicode hex="0070"/>
  <outline>
    <contour>
      <point x="110.66666666666667" y="-312.0" type="curve" smooth="yes"/>
      <point x="125.0" y="-312.0"/>
      <point x="132.33333333333334" y="-307.6666666666667"/>
      <point x="132.33333333333334" y="-297.0" type="curve" smooth="yes"/>
      <point x="132.33333333333334" y="21.0" type="line"/>
      <point x="165.33333333333334" y="-2.333333333333333"/>
      <point x="199.0" y="-14.0"/>
      <point x="236.66666666666666" y="-14.0" type="curve" smooth="yes"/>
      <point x="355.6666666666667" y="-14.0"/>
      <point x="421.3333333333333" y="74.0"/>
      <point x="421.3333333333333" y="213.0" type="curve" smooth="yes"/>
      <point x="421.3333333333333" y="349.0"/>
      <point x="358.6666666666667" y="415.0"/>
      <point x="269.3333333333333" y="415.0" type="curve" smooth="yes"/>
      <point x="223.33333333333334" y="415.0"/>
      <point x="170.0" y="399.3333333333333"/>
      <point x="132.33333333333334" y="329.3333333333333" type="curve"/>
      <point x="132.33333333333334" y="397.0" type="line" smooth="yes"/>
      <point x="132.33333333333334" y="407.6666666666667"/>
      <point x="125.66666666666667" y="412.0"/>
      <point x="111.33333333333333" y="412.0" type="curve" smooth="yes"/>
      <point x="97.0" y="412.0"/>
      <point x="90.0" y="407.6666666666667"/>
      <point x="90.0" y="397.0" type="curve" smooth="yes"/>
      <point x="90.0" y="-297.0" type="line" smooth="yes"/>
      <point x="90.0" y="-307.6666666666667"/>
      <point x="96.33333333333333" y="-312.0"/>
    </contour>
    <contour>
      <point x="132.33333333333334" y="62.666666666666664" type="curve"/>
      <point x="132.33333333333334" y="266.0" type="line"/>
      <point x="162.33333333333334" y="345.0"/>
      <point x="209.66666666666666" y="375.0"/>
      <point x="262.0" y="375.0" type="curve" smooth="yes"/>
      <point x="339.3333333333333" y="375.0"/>
      <point x="376.3333333333333" y="312.6666666666667"/>
      <point x="376.3333333333333" y="210.0" type="curve" smooth="yes"/>
      <point x="376.3333333333333" y="86.0"/>
      <point x="321.6666666666667" y="25.0"/>
      <point x="238.66666666666666" y="25.0" type="curve" smooth="yes"/>
      <point x="203.0" y="25.0"/>
      <point x="169.0" y="35.666666666666664"/>
    </contour>
  </outline>
</glyph>
<glyph name="q" format="2">
  <advance width="478.0"/>
  <unicode hex="0071"/>
  <outline>
    <contour>
      <point x="212.0" y="-14.0" type="curve" smooth="yes"/>
      <point x="254.33333333333334" y="-14.0"/>
      <point x="310.0" y="1.0"/>
      <point x="347.3333333333333" y="71.33333333333333" type="curve"/>
      <point x="347.3333333333333" y="-297.0" type="line" smooth="yes"/>
      <point x="347.3333333333333" y="-307.6666666666667"/>
      <point x="354.0" y="-312.0"/>
      <point x="368.3333333333333" y="-312.0" type="curve" smooth="yes"/>
      <point x="382.6666666666667" y="-312.0"/>
      <point x="389.6666666666667" y="-307.6666666666667"/>
      <point x="389.6666666666667" y="-297.0" type="curve" smooth="yes"/>
      <point x="389.6666666666667" y="397.0" type="line" smooth="yes"/>
      <point x="389.6666666666667" y="407.6666666666667"/>
      <point x="383.3333333333333" y="412.0"/>
      <point x="369.0" y="412.0" type="curve" smooth="yes"/>
      <point x="354.6666666666667" y="412.0"/>
      <point x="347.3333333333333" y="407.6666666666667"/>
      <point x="347.3333333333333" y="397.0" type="curve" smooth="yes"/>
      <point x="347.3333333333333" y="383.6666666666667" type="line"/>
      <point x="312.0" y="405.0"/>
      <point x="277.3333333333333" y="415.0"/>
      <point x="241.0" y="415.0" type="curve" smooth="yes"/>
      <point x="122.33333333333333" y="415.0"/>
      <point x="56.666666666666664" y="323.0"/>
      <point x="56.666666666666664" y="190.0" type="curve" smooth="yes"/>
      <point x="56.666666666666664" y="58.0"/>
      <point x="122.0" y="-14.0"/>
    </contour>
    <contour>
      <point x="101.66666666666667" y="193.0" type="curve" smooth="yes"/>
      <point x="101.66666666666667" y="311.0"/>
      <point x="156.33333333333334" y="376.0"/>
      <point x="241.33333333333334" y="376.0" type="curve" smooth="yes"/>
      <point x="276.6666666666667" y="376.0"/>
      <point x="309.6666666666667" y="367.3333333333333"/>
      <point x="347.3333333333333" y="342.3333333333333" type="curve"/>
      <point x="347.3333333333333" y="144.33333333333334" type="line"/>
      <point x="321.3333333333333" y="55.0"/>
      <point x="269.3333333333333" y="26.0"/>
      <point x="219.33333333333334" y="26.0" type="curve" smooth="yes"/>
      <point x="141.33333333333334" y="26.0"/>
      <point x="101.66666666666667" y="94.33333333333333"/>
    </contour>
  </outline>
</glyph>
<glyph name="r" format="2">
  <advance width="360.6666666666667"/>
  <unicode hex="0072"/>
  <anchor x="104.0" y="0.0" name="bottom"/>
  <anchor x="209.0" y="400.0" name="top"/>
  <outline>
    <contour>
      <point x="105.66666666666667" y="-12.0" type="curve" smooth="yes"/>
      <point x="120.0" y="-12.0"/>
      <point x="127.33333333333333" y="-7.666666666666667"/>
      <point x="127.33333333333333" y="3.0" type="curve" smooth="yes"/>
      <point x="127.33333333333333" y="252.33333333333334" type="line"/>
      <point x="149.66666666666666" y="338.3333333333333"/>
      <point x="199.33333333333334" y="375.0"/>
      <point x="253.0" y="375.0" type="curve" smooth="yes"/>
      <point x="278.0" y="375.0"/>
      <point x="301.0" y="366.3333333333333"/>
      <point x="315.0" y="360.6666666666667" type="curve" smooth="yes"/>
      <point x="324.6666666666667" y="357.0"/>
      <point x="331.6666666666667" y="359.6666666666667"/>
      <point x="337.6666666666667" y="370.3333333333333" type="curve" smooth="yes"/>
      <point x="345.3333333333333" y="384.0"/>
      <point x="342.6666666666667" y="390.0"/>
      <point x="334.6666666666667" y="395.6666666666667" type="curve" smooth="yes"/>
      <point x="318.6666666666667" y="406.0"/>
      <point x="289.0" y="415.0"/>
      <point x="259.0" y="415.0" type="curve" smooth="yes"/>
      <point x="213.33333333333334" y="415.0"/>
      <point x="158.33333333333334" y="390.3333333333333"/>
      <point x="127.33333333333333" y="325.3333333333333" type="curve"/>
      <point x="127.33333333333333" y="397.0" type="line" smooth="yes"/>
      <point x="127.33333333333333" y="407.6666666666667"/>
      <point x="120.0" y="412.0"/>
      <point x="105.66666666666667" y="412.0" type="curve" smooth="yes"/>
      <point x="91.33333333333333" y="412.0"/>
      <point x="85.0" y="407.6666666666667"/>
      <point x="85.0" y="397.0" type="curve" smooth="yes"/>
      <point x="85.0" y="3.0" type="line" smooth="yes"/>
      <point x="85.0" y="-7.666666666666667"/>
      <point x="91.33333333333333" y="-12.0"/>
    </contour>
  </outline>
</glyph>
<glyph name="s" format="2">
  <advance width="385.0"/>
  <unicode hex="0073"/>
  <anchor x="192.0" y="0.0" name="bottom"/>
  <anchor x="204.0" y="400.0" name="top"/>
  <outline>
    <contour>
      <point x="199.0" y="-15.0" type="curve" smooth="yes"/>
      <point x="295.0" y="-15.0"/>
      <point x="336.3333333333333" y="48.333333333333336"/>
      <point x="336.3333333333333" y="110.33333333333333" type="curve" smooth="yes"/>
      <point x="336.3333333333333" y="256.6666666666667"/>
      <point x="116.66666666666667" y="194.33333333333334"/>
      <point x="116.66666666666667" y="308.0" type="curve" smooth="yes"/>
      <point x="116.66666666666667" y="350.0"/>
      <point x="146.66666666666666" y="378.6666666666667"/>
      <point x="202.66666666666666" y="378.6666666666667" type="curve" smooth="yes"/>
      <point x="244.0" y="378.6666666666667"/>
      <point x="271.0" y="364.3333333333333"/>
      <point x="305.6666666666667" y="338.0" type="curve" smooth="yes"/>
      <point x="314.0" y="331.6666666666667"/>
      <point x="323.0" y="331.3333333333333"/>
      <point x="330.3333333333333" y="339.3333333333333" type="curve" smooth="yes"/>
      <point x="338.0" y="347.6666666666667"/>
      <point x="340.6666666666667" y="354.3333333333333"/>
      <point x="333.0" y="363.0" type="curve" smooth="yes"/>
      <point x="310.0" y="389.6666666666667"/>
      <point x="264.3333333333333" y="415.0"/>
      <point x="204.33333333333334" y="415.0" type="curve" smooth="yes"/>
      <point x="123.66666666666667" y="415.0"/>
      <point x="73.66666666666667" y="367.0"/>
      <point x="73.66666666666667" y="304.0" type="curve" smooth="yes"/>
      <point x="73.66666666666667" y="155.33333333333334"/>
      <point x="293.0" y="220.33333333333334"/>
      <point x="293.0" y="106.0" type="curve" smooth="yes"/>
      <point x="293.0" y="56.666666666666664"/>
      <point x="257.3333333333333" y="21.333333333333332"/>
      <point x="201.66666666666666" y="21.333333333333332" type="curve" smooth="yes"/>
      <point x="153.33333333333334" y="21.333333333333332"/>
      <point x="114.0" y="40.0"/>
      <point x="81.0" y="68.0" type="curve" smooth="yes"/>
      <point x="71.66666666666667" y="75.66666666666667"/>
      <point x="64.33333333333333" y="74.66666666666667"/>
      <point x="56.333333333333336" y="66.0" type="curve" smooth="yes"/>
      <point x="47.333333333333336" y="56.333333333333336"/>
      <point x="45.666666666666664" y="48.0"/>
      <point x="53.0" y="40.0" type="curve" smooth="yes"/>
      <point x="73.66666666666667" y="18.333333333333332"/>
      <point x="126.0" y="-15.0"/>
    </contour>
  </outline>
</glyph>
<glyph name="t" format="2">
  <advance width="310.0"/>
  <unicode hex="0074"/>
  <anchor x="192.66666666666666" y="0.0" name="bottom"/>
  <anchor x="152.66666666666666" y="235.0" name="center"/>
  <anchor x="128.66666666666666" y="558.0" name="top"/>
  <anchor x="157.66666666666666" y="625.0" name="topright"/>
  <outline>
    <contour>
      <point x="192.0" y="-14.0" type="curve" smooth="yes"/>
      <point x="232.33333333333334" y="-14.0"/>
      <point x="265.6666666666667" y="6.666666666666667"/>
      <point x="287.6666666666667" y="40.333333333333336" type="curve" smooth="yes"/>
      <point x="292.3333333333333" y="47.333333333333336"/>
      <point x="290.6666666666667" y="56.0"/>
      <point x="282.6666666666667" y="63.0" type="curve" smooth="yes"/>
      <point x="274.6666666666667" y="69.33333333333333"/>
      <point x="266.3333333333333" y="72.33333333333333"/>
      <point x="258.6666666666667" y="63.666666666666664" type="curve" smooth="yes"/>
      <point x="241.0" y="41.33333333333333"/>
      <point x="223.0" y="24.666666666666664"/>
      <point x="197.0" y="24.666666666666664" type="curve" smooth="yes"/>
      <point x="159.66666666666666" y="24.666666666666664"/>
      <point x="150.0" y="51.0"/>
      <point x="150.0" y="95.0" type="curve" smooth="yes"/>
      <point x="150.0" y="361.3333333333333" type="line"/>
      <point x="259.6666666666667" y="361.3333333333333" type="line" smooth="yes"/>
      <point x="271.0" y="361.3333333333333"/>
      <point x="275.0" y="366.6666666666667"/>
      <point x="275.0" y="380.0" type="curve" smooth="yes"/>
      <point x="275.0" y="394.0"/>
      <point x="271.0" y="400.0"/>
      <point x="259.6666666666667" y="400.0" type="curve" smooth="yes"/>
      <point x="150.0" y="400.0" type="line"/>
      <point x="150.0" y="569.0" type="line" smooth="yes"/>
      <point x="150.0" y="579.6666666666666"/>
      <point x="142.66666666666666" y="584.0"/>
      <point x="128.33333333333334" y="584.0" type="curve" smooth="yes"/>
      <point x="114.0" y="584.0"/>
      <point x="107.66666666666667" y="579.6666666666666"/>
      <point x="107.66666666666667" y="569.0" type="curve" smooth="yes"/>
      <point x="107.66666666666667" y="400.0" type="line"/>
      <point x="45.666666666666664" y="400.0" type="line" smooth="yes"/>
      <point x="34.333333333333336" y="400.0"/>
      <point x="30.333333333333336" y="394.0"/>
      <point x="30.333333333333336" y="380.0" type="curve" smooth="yes"/>
      <point x="30.333333333333336" y="366.6666666666667"/>
      <point x="34.333333333333336" y="361.3333333333333"/>
      <point x="45.666666666666664" y="361.3333333333333" type="curve" smooth="yes"/>
      <point x="107.66666666666667" y="361.3333333333333" type="line"/>
      <point x="107.66666666666667" y="85.66666666666667" type="line" smooth="yes"/>
      <point x="107.66666666666667" y="22.333333333333332"/>
      <point x="134.66666666666666" y="-14.0"/>
    </contour>
  </outline>
</glyph>
<glyph name="u" format="2">
  <advance width="517.0"/>
  <unicode hex="0075"/>
  <anchor x="242.0" y="0.0" name="bottom"/>
  <anchor x="465.0" y="10.0" name="ogonek"/>
  <anchor x="242.0" y="400.0" name="top"/>
  <anchor x="376.0" y="411.0" name="topright"/>
  <outline>
    <contour>
      <point x="215.66666666666666" y="-14.666666666666666" type="curve" smooth="yes"/>
      <point x="282.3333333333333" y="-14.666666666666666"/>
      <point x="353.3333333333333" y="20.333333333333332"/>
      <point x="379.6666666666667" y="126.33333333333333" type="curve"/>
      <point x="364.3333333333333" y="157.66666666666666" type="line"/>
      <point x="343.3333333333333" y="65.0"/>
      <point x="286.3333333333333" y="24.333333333333332"/>
      <point x="221.33333333333334" y="24.333333333333332" type="curve" smooth="yes"/>
      <point x="156.0" y="24.333333333333332"/>
      <point x="127.33333333333333" y="65.33333333333333"/>
      <point x="127.33333333333333" y="137.0" type="curve" smooth="yes"/>
      <point x="127.33333333333333" y="396.3333333333333" type="line" smooth="yes"/>
      <point x="127.33333333333333" y="407.0"/>
      <point x="120.0" y="411.3333333333333"/>
      <point x="105.66666666666667" y="411.3333333333333" type="curve" smooth="yes"/>
      <point x="91.33333333333333" y="411.3333333333333"/>
      <point x="85.0" y="407.0"/>
      <point x="85.0" y="396.3333333333333" type="curve" smooth="yes"/>
      <point x="85.0" y="133.0" type="line" smooth="yes"/>
      <point x="85.0" y="30.333333333333332"/>
      <point x="138.0" y="-14.666666666666666"/>
    </contour>
    <contour>
      <point x="429.6666666666667" y="-15.0" type="curve" smooth="yes"/>
      <point x="460.0" y="-15.0"/>
      <point x="491.3333333333333" y="2.0"/>
      <point x="509.0" y="26.666666666666668" type="curve" smooth="yes"/>
      <point x="514.0" y="34.0"/>
      <point x="511.6666666666667" y="41.0"/>
      <point x="506.3333333333333" y="47.0" type="curve" smooth="yes"/>
      <point x="499.3333333333333" y="55.0"/>
      <point x="491.6666666666667" y="55.333333333333336"/>
      <point x="485.6666666666667" y="48.666666666666664" type="curve" smooth="yes"/>
      <point x="469.6666666666667" y="31.666666666666664"/>
      <point x="453.6666666666667" y="23.666666666666664"/>
      <point x="437.3333333333333" y="23.666666666666664" type="curve" smooth="yes"/>
      <point x="413.6666666666667" y="23.666666666666664"/>
      <point x="403.6666666666667" y="41.333333333333336"/>
      <point x="403.6666666666667" y="74.33333333333333" type="curve" smooth="yes"/>
      <point x="403.6666666666667" y="397.0" type="line" smooth="yes"/>
      <point x="403.6666666666667" y="407.6666666666667"/>
      <point x="397.0" y="412.0"/>
      <point x="382.6666666666667" y="412.0" type="curve" smooth="yes"/>
      <point x="368.3333333333333" y="412.0"/>
      <point x="361.3333333333333" y="407.6666666666667"/>
      <point x="361.3333333333333" y="397.0" type="curve" smooth="yes"/>
      <point x="361.3333333333333" y="66.66666666666667" type="line" smooth="yes"/>
      <point x="361.3333333333333" y="14.0"/>
      <point x="386.3333333333333" y="-15.0"/>
    </contour>
  </outline>
</glyph>
<glyph name="v" format="2">
  <advance width="407.0"/>
  <unicode hex="0076"/>
  <outline>
    <contour>
      <point x="203.0" y="-12.0" type="curve" smooth="yes"/>
      <point x="217.33333333333334" y="-12.0"/>
      <point x="221.0" y="-6.666666666666667"/>
      <point x="224.66666666666666" y="3.0" type="curve" smooth="yes"/>
      <point x="378.6666666666667" y="386.6666666666667" type="line" smooth="yes"/>
      <point x="385.0" y="402.3333333333333"/>
      <point x="376.6666666666667" y="412.0"/>
      <point x="358.0" y="412.0" type="curve" smooth="yes"/>
      <point x="346.0" y="412.0"/>
      <point x="341.0" y="407.3333333333333"/>
      <point x="337.0" y="397.0" type="curve" smooth="yes"/>
      <point x="204.0" y="53.0" type="line"/>
      <point x="69.0" y="397.0" type="line" smooth="yes"/>
      <point x="65.0" y="407.3333333333333"/>
      <point x="60.333333333333336" y="412.0"/>
      <point x="48.333333333333336" y="412.0" type="curve" smooth="yes"/>
      <point x="30.333333333333332" y="412.0"/>
      <point x="21.666666666666668" y="399.6666666666667"/>
      <point x="27.333333333333332" y="386.6666666666667" type="curve" smooth="yes"/>
      <point x="181.33333333333334" y="3.0" type="line" smooth="yes"/>
      <point x="185.0" y="-6.666666666666667"/>
      <point x="188.66666666666666" y="-12.0"/>
    </contour>
  </outline>
</glyph>
<glyph name="w" format="2">
  <advance width="643.0"/>
  <unicode hex="0077"/>
  <anchor x="322.0" y="0.0" name="bottom"/>
  <anchor x="322.0" y="400.0" name="top"/>
  <outline>
    <contour>
      <point x="176.0" y="-12.0" type="curve" smooth="yes"/>
      <point x="190.33333333333334" y="-12.0"/>
      <point x="195.66666666666666" y="-5.666666666666667"/>
      <point x="199.0" y="3.6666666666666665" type="curve" smooth="yes"/>
      <point x="321.6666666666667" y="344.0" type="line"/>
      <point x="445.6666666666667" y="3.6666666666666665" type="line" smooth="yes"/>
      <point x="449.0" y="-5.666666666666667"/>
      <point x="453.3333333333333" y="-12.0"/>
      <point x="467.6666666666667" y="-12.0" type="curve" smooth="yes"/>
      <point x="481.3333333333333" y="-12.0"/>
      <point x="487.3333333333333" y="-6.0"/>
      <point x="490.6666666666667" y="3.6666666666666665" type="curve" smooth="yes"/>
      <point x="615.6666666666666" y="386.0" type="line" smooth="yes"/>
      <point x="621.0" y="401.6666666666667"/>
      <point x="614.3333333333334" y="412.0"/>
      <point x="595.6666666666666" y="412.0" type="curve" smooth="yes"/>
      <point x="583.6666666666666" y="412.0"/>
      <point x="577.6666666666666" y="407.3333333333333"/>
      <point x="574.6666666666666" y="397.0" type="curve" smooth="yes"/>
      <point x="468.0" y="53.0" type="line"/>
      <point x="343.3333333333333" y="397.0" type="line" smooth="yes"/>
      <point x="339.6666666666667" y="407.3333333333333"/>
      <point x="334.3333333333333" y="412.0"/>
      <point x="322.3333333333333" y="412.0" type="curve" smooth="yes"/>
      <point x="309.3333333333333" y="412.0"/>
      <point x="304.0" y="408.0"/>
      <point x="299.6666666666667" y="396.3333333333333" type="curve" smooth="yes"/>
      <point x="177.0" y="53.0" type="line"/>
      <point x="68.66666666666667" y="397.0" type="line" smooth="yes"/>
      <point x="65.0" y="407.3333333333333"/>
      <point x="60.0" y="412.0"/>
      <point x="48.0" y="412.0" type="curve" smooth="yes"/>
      <point x="30.0" y="412.0"/>
      <point x="22.666666666666668" y="399.6666666666667"/>
      <point x="27.0" y="386.6666666666667" type="curve" smooth="yes"/>
      <point x="153.0" y="3.6666666666666665" type="line" smooth="yes"/>
      <point x="156.66666666666666" y="-6.0"/>
      <point x="161.66666666666666" y="-12.0"/>
    </contour>
  </outline>
</glyph>
<glyph name="x" format="2">
  <advance width="427.0"/>
  <unicode hex="0078"/>
  <outline>
    <contour>
      <point x="384.3333333333333" y="16.666666666666664" type="curve" smooth="yes"/>
      <point x="240.0" y="201.33333333333334" type="line"/>
      <point x="384.6666666666667" y="384.3333333333333" type="line" smooth="yes"/>
      <point x="397.0" y="399.6666666666667"/>
      <point x="385.6666666666667" y="412.3333333333333"/>
      <point x="367.6666666666667" y="412.3333333333333" type="curve" smooth="yes"/>
      <point x="357.6666666666667" y="412.3333333333333"/>
      <point x="354.0" y="408.0"/>
      <point x="344.0" y="395.6666666666667" type="curve" smooth="yes"/>
      <point x="215.0" y="232.66666666666666" type="line"/>
      <point x="84.66666666666667" y="399.0" type="line" smooth="yes"/>
      <point x="77.33333333333333" y="408.6666666666667"/>
      <point x="71.33333333333333" y="413.6666666666667"/>
      <point x="58.333333333333336" y="412.0" type="curve" smooth="yes"/>
      <point x="45.0" y="411.0"/>
      <point x="31.333333333333336" y="400.0"/>
      <point x="44.666666666666664" y="383.3333333333333" type="curve" smooth="yes"/>
      <point x="187.0" y="200.66666666666666" type="line"/>
      <point x="41.666666666666664" y="17.0" type="line" smooth="yes"/>
      <point x="29.333333333333336" y="1.6666666666666665"/>
      <point x="41.333333333333336" y="-10.666666666666666"/>
      <point x="59.333333333333336" y="-10.666666666666666" type="curve" smooth="yes"/>
      <point x="69.33333333333333" y="-10.666666666666666"/>
      <point x="73.0" y="-6.666666666666667"/>
      <point x="83.0" y="5.666666666666667" type="curve" smooth="yes"/>
      <point x="212.0" y="169.66666666666666" type="line"/>
      <point x="341.0" y="4.0" type="line" smooth="yes"/>
      <point x="351.0" y="-9.333333333333334"/>
      <point x="357.3333333333333" y="-12.333333333333334"/>
      <point x="368.0" y="-11.333333333333334" type="curve" smooth="yes"/>
      <point x="383.6666666666667" y="-10.333333333333334"/>
      <point x="396.0" y="2.0"/>
    </contour>
  </outline>
</glyph>
<glyph name="y" format="2">
  <advance width="492.0"/>
  <unicode hex="0079"/>
  <anchor x="237.0" y="0.0" name="bottom"/>
  <anchor x="246.0" y="400.0" name="top"/>
  <outline>
    <contour>
      <point x="215.66666666666666" y="-14.666666666666666" type="curve" smooth="yes"/>
      <point x="269.0" y="-14.666666666666666"/>
      <point x="328.3333333333333" y="7.0"/>
      <point x="361.3333333333333" y="76.33333333333333" type="curve"/>
      <point x="361.3333333333333" y="-126.0" type="line" smooth="yes"/>
      <point x="361.3333333333333" y="-229.66666666666666"/>
      <point x="316.3333333333333" y="-275.6666666666667"/>
      <point x="243.0" y="-275.6666666666667" type="curve" smooth="yes"/>
      <point x="185.33333333333334" y="-275.6666666666667"/>
      <point x="152.0" y="-255.33333333333334"/>
      <point x="126.0" y="-211.66666666666666" type="curve" smooth="yes"/>
      <point x="119.66666666666667" y="-202.0"/>
      <point x="112.66666666666667" y="-199.66666666666666"/>
      <point x="100.33333333333333" y="-206.33333333333334" type="curve" smooth="yes"/>
      <point x="87.0" y="-213.66666666666666"/>
      <point x="85.33333333333333" y="-223.33333333333334"/>
      <point x="91.33333333333333" y="-233.66666666666666" type="curve" smooth="yes"/>
      <point x="117.66666666666667" y="-283.0"/>
      <point x="166.0" y="-315.0"/>
      <point x="238.0" y="-315.0" type="curve" smooth="yes"/>
      <point x="339.3333333333333" y="-315.0"/>
      <point x="403.6666666666667" y="-252.0"/>
      <point x="403.6666666666667" y="-128.0" type="curve" smooth="yes"/>
      <point x="403.6666666666667" y="397.0" type="line" smooth="yes"/>
      <point x="403.6666666666667" y="407.6666666666667"/>
      <point x="397.0" y="412.0"/>
      <point x="382.6666666666667" y="412.0" type="curve" smooth="yes"/>
      <point x="368.3333333333333" y="412.0"/>
      <point x="361.3333333333333" y="407.6666666666667"/>
      <point x="361.3333333333333" y="397.0" type="curve" smooth="yes"/>
      <point x="361.3333333333333" y="149.33333333333334" type="line"/>
      <point x="339.3333333333333" y="60.666666666666664"/>
      <point x="283.3333333333333" y="24.333333333333332"/>
      <point x="221.33333333333334" y="24.333333333333332" type="curve" smooth="yes"/>
      <point x="156.0" y="24.333333333333332"/>
      <point x="127.33333333333333" y="65.33333333333333"/>
      <point x="127.33333333333333" y="137.0" type="curve" smooth="yes"/>
      <point x="127.33333333333333" y="396.3333333333333" type="line" smooth="yes"/>
      <point x="127.33333333333333" y="407.0"/>
      <point x="120.0" y="411.3333333333333"/>
      <point x="105.66666666666667" y="411.3333333333333" type="curve" smooth="yes"/>
      <point x="91.33333333333333" y="411.3333333333333"/>
      <point x="85.0" y="407.0"/>
      <point x="85.0" y="396.3333333333333" type="curve" smooth="yes"/>
      <point x="85.0" y="133.0" type="line" smooth="yes"/>
      <point x="85.0" y="30.333333333333332"/>
      <point x="138.0" y="-14.666666666666666"/>
    </contour>
  </outline>
</glyph>
<glyph name="z" format="2">
  <advance width="396.0"/>
  <unicode hex="007A"/>
  <anchor x="210.0" y="0.0" name="bottom"/>
  <anchor x="210.0" y="200.0" name="center"/>
  <anchor x="200.0" y="400.0" name="top"/>
  <outline>
    <contour>
      <point x="68.66666666666667" y="0.0" type="curve" smooth="yes"/>
      <point x="351.0" y="0.0" type="line" smooth="yes"/>
      <point x="362.3333333333333" y="0.0"/>
      <point x="366.6666666666667" y="5.333333333333333"/>
      <point x="366.6666666666667" y="18.0" type="curve" smooth="yes"/>
      <point x="366.6666666666667" y="33.666666666666664"/>
      <point x="362.3333333333333" y="40.0"/>
      <point x="351.0" y="40.0" type="curve" smooth="yes"/>
      <point x="113.33333333333333" y="40.0" type="line"/>
      <point x="353.3333333333333" y="369.6666666666667" type="line" smooth="yes"/>
      <point x="363.0" y="383.0"/>
      <point x="356.0" y="400.0"/>
      <point x="341.3333333333333" y="400.0" type="curve" smooth="yes"/>
      <point x="70.33333333333333" y="400.0" type="line" smooth="yes"/>
      <point x="59.0" y="400.0"/>
      <point x="54.333333333333336" y="394.0"/>
      <point x="54.333333333333336" y="380.0" type="curve" smooth="yes"/>
      <point x="54.333333333333336" y="365.3333333333333"/>
      <point x="59.0" y="360.0"/>
      <point x="70.33333333333333" y="360.0" type="curve" smooth="yes"/>
      <point x="296.3333333333333" y="360.0" type="line"/>
      <point x="53.666666666666664" y="29.0" type="line" smooth="yes"/>
      <point x="47.0" y="19.666666666666668"/>
      <point x="49.666666666666664" y="0.0"/>
    </contour>
  </outline>
</glyph>
<glyph name="braceright" format="2">
  <advance width="263.0"/>
  <unicode hex="007D"/>
  <outline>
    <contour>
      <point x="49.0" y="-60.0" type="curve" smooth="yes"/>
      <point x="133.0" y="-60.0"/>
      <point x="189.66666666666666" y="-19.333333333333332"/>
      <point x="189.66666666666666" y="53.0" type="curve" smooth="yes"/>
      <point x="189.66666666666666" y="130.66666666666666"/>
      <point x="125.66666666666667" y="165.33333333333334"/>
      <point x="125.66666666666667" y="244.0" type="curve" smooth="yes"/>
      <point x="125.66666666666667" y="292.0"/>
      <point x="152.33333333333334" y="320.3333333333333"/>
      <point x="213.0" y="330.0" type="curve" smooth="yes"/>
      <point x="222.33333333333334" y="331.6666666666667"/>
      <point x="227.0" y="335.3333333333333"/>
      <point x="227.0" y="350.0" type="curve" smooth="yes"/>
      <point x="227.0" y="364.6666666666667"/>
      <point x="222.33333333333334" y="368.3333333333333"/>
      <point x="213.0" y="370.0" type="curve" smooth="yes"/>
      <point x="152.33333333333334" y="379.6666666666667"/>
      <point x="125.66666666666667" y="408.0"/>
      <point x="125.66666666666667" y="456.0" type="curve" smooth="yes"/>
      <point x="125.66666666666667" y="534.6666666666666"/>
      <point x="189.66666666666666" y="569.3333333333334"/>
      <point x="189.66666666666666" y="647.0" type="curve" smooth="yes"/>
      <point x="189.66666666666666" y="719.3333333333334"/>
      <point x="133.0" y="760.0"/>
      <point x="49.0" y="760.0" type="curve" smooth="yes"/>
      <point x="40.333333333333336" y="760.0"/>
      <point x="35.666666666666664" y="754.6666666666666"/>
      <point x="35.666666666666664" y="740.0" type="curve" smooth="yes"/>
      <point x="35.666666666666664" y="725.3333333333334"/>
      <point x="40.333333333333336" y="720.0"/>
      <point x="49.0" y="720.0" type="curve" smooth="yes"/>
      <point x="112.66666666666667" y="720.0"/>
      <point x="146.33333333333334" y="690.3333333333334"/>
      <point x="146.33333333333334" y="646.0" type="curve" smooth="yes"/>
      <point x="146.33333333333334" y="583.0"/>
      <point x="83.33333333333333" y="538.3333333333334"/>
      <point x="83.33333333333333" y="456.0" type="curve" smooth="yes"/>
      <point x="83.33333333333333" y="411.0"/>
      <point x="111.0" y="364.0"/>
      <point x="173.33333333333334" y="350.0" type="curve"/>
      <point x="111.0" y="336.0"/>
      <point x="83.33333333333333" y="289.0"/>
      <point x="83.33333333333333" y="244.0" type="curve" smooth="yes"/>
      <point x="83.33333333333333" y="161.66666666666666"/>
      <point x="146.33333333333334" y="117.0"/>
      <point x="146.33333333333334" y="54.0" type="curve" smooth="yes"/>
      <point x="146.33333333333334" y="9.666666666666666"/>
      <point x="112.66666666666667" y="-20.0"/>
      <point x="49.0" y="-20.0" type="curve" smooth="yes"/>
      <point x="40.333333333333336" y="-20.0"/>
      <point x="35.666666666666664" y="-25.333333333333336"/>
      <point x="35.666666666666664" y="-40.0" type="curve" smooth="yes"/>
      <point x="35.666666666666664" y="-54.666666666666664"/>
      <point x="40.333333333333336" y="-60.0"/>
    </contour>
  </outline>
</glyph>
<glyph name="asciitilde" format="2">
  <advance width="610.0"/>
  <unicode hex="007E"/>
  <outline>
    <contour>
      <point x="413.0" y="266.3333333333333" type="curve" smooth="yes"/>
      <point x="478.6666666666667" y="266.3333333333333"/>
      <point x="535.3333333333334" y="314.0"/>
      <point x="536.6666666666666" y="408.3333333333333" type="curve" smooth="yes"/>
      <point x="536.6666666666666" y="421.3333333333333"/>
      <point x="530.6666666666666" y="426.0"/>
      <point x="516.0" y="426.0" type="curve" smooth="yes"/>
      <point x="501.3333333333333" y="426.0"/>
      <point x="495.3333333333333" y="421.0"/>
      <point x="495.3333333333333" y="409.3333333333333" type="curve" smooth="yes"/>
      <point x="494.0" y="335.3333333333333"/>
      <point x="454.6666666666667" y="306.6666666666667"/>
      <point x="413.0" y="306.6666666666667" type="curve" smooth="yes"/>
      <point x="374.0" y="306.6666666666667"/>
      <point x="350.6666666666667" y="330.6666666666667"/>
      <point x="322.0" y="362.6666666666667" type="curve" smooth="yes"/>
      <point x="291.0" y="398.3333333333333"/>
      <point x="258.3333333333333" y="431.6666666666667"/>
      <point x="198.0" y="431.6666666666667" type="curve" smooth="yes"/>
      <point x="132.33333333333334" y="431.6666666666667"/>
      <point x="74.66666666666667" y="384.0"/>
      <point x="73.33333333333333" y="289.6666666666667" type="curve" smooth="yes"/>
      <point x="73.33333333333333" y="276.6666666666667"/>
      <point x="79.33333333333333" y="272.0"/>
      <point x="94.0" y="272.0" type="curve" smooth="yes"/>
      <point x="108.66666666666667" y="272.0"/>
      <point x="114.66666666666667" y="277.0"/>
      <point x="114.66666666666667" y="288.6666666666667" type="curve" smooth="yes"/>
      <point x="116.0" y="362.6666666666667"/>
      <point x="156.33333333333334" y="391.3333333333333"/>
      <point x="198.0" y="391.3333333333333" type="curve" smooth="yes"/>
      <point x="237.33333333333334" y="391.3333333333333"/>
      <point x="260.6666666666667" y="367.6666666666667"/>
      <point x="288.3333333333333" y="336.0" type="curve" smooth="yes"/>
      <point x="320.0" y="300.6666666666667"/>
      <point x="351.6666666666667" y="266.3333333333333"/>
    </contour>
  </outline>
</glyph>
<glyph name="logicalnot" format="2">
  <advance width="610.0"/>
  <unicode hex="00AC"/>
  <outline>
    <contour>
      <point x="512.0" y="132.0" type="curve" smooth="yes"/>
      <point x="526.3333333333334" y="132.0"/>
      <point x="533.3333333333334" y="136.33333333333334"/>
      <point x="533.3333333333334" y="147.0" type="curve" smooth="yes"/>
      <point x="533.3333333333334" y="349.3333333333333" type="line" smooth="yes"/>
      <point x="533.3333333333334" y="363.0"/>
      <point x="528.6666666666666" y="370.0"/>
      <point x="518.6666666666666" y="370.0" type="curve" smooth="yes"/>
      <point x="91.33333333333333" y="370.0" type="line" smooth="yes"/>
      <point x="81.33333333333333" y="370.0"/>
      <point x="76.66666666666667" y="363.0"/>
      <point x="76.66666666666667" y="349.3333333333333" type="curve" smooth="yes"/>
      <point x="76.66666666666667" y="336.3333333333333"/>
      <point x="81.33333333333333" y="330.0"/>
      <point x="91.33333333333333" y="330.0" type="curve" smooth="yes"/>
      <point x="492.0" y="330.0" type="line"/>
      <point x="492.0" y="147.0" type="line" smooth="yes"/>
      <point x="492.0" y="136.33333333333334"/>
      <point x="498.3333333333333" y="132.0"/>
    </contour>
  </outline>
</glyph>
<glyph name="plusminus" format="2">
  <advance width="610.0"/>
  <unicode hex="00B1"/>
  <outline>
    <contour>
      <point x="304.3333333333333" y="180.66666666666666" type="curve" smooth="yes"/>
      <point x="318.6666666666667" y="180.66666666666666"/>
      <point x="325.6666666666667" y="185.0"/>
      <point x="325.6666666666667" y="195.66666666666666" type="curve" smooth="yes"/>
      <point x="325.6666666666667" y="562.3333333333334" type="line" smooth="yes"/>
      <point x="325.6666666666667" y="573.0"/>
      <point x="318.6666666666667" y="577.3333333333334"/>
      <point x="304.3333333333333" y="577.3333333333334" type="curve" smooth="yes"/>
      <point x="290.6666666666667" y="577.3333333333334"/>
      <point x="284.3333333333333" y="573.0"/>
      <point x="284.3333333333333" y="562.3333333333334" type="curve" smooth="yes"/>
      <point x="284.3333333333333" y="195.66666666666666" type="line" smooth="yes"/>
      <point x="284.3333333333333" y="185.0"/>
      <point x="290.6666666666667" y="180.66666666666666"/>
    </contour>
    <component base="minus" yOffset="-252.0"/>
    <component base="minus" yOffset="30.0"/>
  </outline>
</glyph>
<glyph name="multiply" format="2">
  <advance width="610.0"/>
  <unicode hex="00D7"/>
  <outline>
    <contour>
      <point x="470.0" y="185.0" type="curve" smooth="yes"/>
      <point x="478.3333333333333" y="193.33333333333334"/>
      <point x="481.6666666666667" y="203.66666666666666"/>
      <point x="473.3333333333333" y="212.0" type="curve" smooth="yes"/>
      <point x="167.66666666666666" y="516.3333333333334" type="line" smooth="yes"/>
      <point x="159.33333333333334" y="525.3333333333334"/>
      <point x="149.33333333333334" y="521.3333333333334"/>
      <point x="141.0" y="513.0" type="curve" smooth="yes"/>
      <point x="133.33333333333334" y="505.3333333333333"/>
      <point x="130.33333333333334" y="496.3333333333333"/>
      <point x="139.33333333333334" y="488.0" type="curve" smooth="yes"/>
      <point x="444.0" y="182.66666666666666" type="line" smooth="yes"/>
      <point x="452.3333333333333" y="174.33333333333334"/>
      <point x="461.6666666666667" y="177.66666666666666"/>
    </contour>
    <contour>
      <point x="141.0" y="186.0" type="curve" smooth="yes"/>
      <point x="149.33333333333334" y="177.66666666666666"/>
      <point x="158.66666666666666" y="173.66666666666666"/>
      <point x="167.66666666666666" y="182.66666666666666" type="curve" smooth="yes"/>
      <point x="472.3333333333333" y="487.3333333333333" type="line" smooth="yes"/>
      <point x="480.6666666666667" y="495.6666666666667"/>
      <point x="477.6666666666667" y="505.3333333333333"/>
      <point x="469.3333333333333" y="513.6666666666666" type="curve" smooth="yes"/>
      <point x="461.0" y="521.3333333333334"/>
      <point x="452.3333333333333" y="524.6666666666666"/>
      <point x="443.3333333333333" y="516.3333333333334" type="curve" smooth="yes"/>
      <point x="138.66666666666666" y="211.0" type="line" smooth="yes"/>
      <point x="130.33333333333334" y="202.66666666666666"/>
      <point x="132.66666666666666" y="193.33333333333334"/>
    </contour>
  </outline>
</glyph>
<glyph name="Thorn" format="2">
  <advance width="580.0"/>
  <unicode hex="00DE"/>
  <outline>
    <contour>
      <point x="135.0" y="-11.0" type="curve" smooth="yes"/>
      <point x="150.0" y="-11.0"/>
      <point x="156.66666666666666" y="-6.666666666666667"/>
      <point x="156.66666666666666" y="4.333333333333333" type="curve" smooth="yes"/>
      <point x="156.66666666666666" y="191.66666666666666" type="line"/>
      <point x="191.33333333333334" y="193.0"/>
      <point x="230.0" y="195.66666666666666"/>
      <point x="268.3333333333333" y="200.33333333333334" type="curve" smooth="yes"/>
      <point x="410.0" y="217.33333333333334"/>
      <point x="523.3333333333334" y="284.3333333333333"/>
      <point x="523.3333333333334" y="428.3333333333333" type="curve" smooth="yes"/>
      <point x="523.3333333333334" y="554.3333333333334"/>
      <point x="442.3333333333333" y="603.3333333333334"/>
      <point x="288.0" y="603.3333333333334" type="curve" smooth="yes"/>
      <point x="156.66666666666666" y="603.3333333333334" type="line"/>
      <point x="156.66666666666666" y="696.6666666666666" type="line" smooth="yes"/>
      <point x="156.66666666666666" y="707.6666666666666"/>
      <point x="150.0" y="712.0"/>
      <point x="135.0" y="712.0" type="curve" smooth="yes"/>
      <point x="120.0" y="712.0"/>
      <point x="113.33333333333333" y="707.6666666666666"/>
      <point x="113.33333333333333" y="696.6666666666666" type="curve" smooth="yes"/>
      <point x="113.33333333333333" y="4.333333333333333" type="line" smooth="yes"/>
      <point x="113.33333333333333" y="-6.666666666666667"/>
      <point x="120.0" y="-11.0"/>
    </contour>
    <contour>
      <point x="156.66666666666666" y="231.33333333333334" type="curve"/>
      <point x="156.66666666666666" y="563.3333333333334" type="line"/>
      <point x="288.0" y="563.3333333333334" type="line" smooth="yes"/>
      <point x="413.3333333333333" y="563.3333333333334"/>
      <point x="478.0" y="525.6666666666666"/>
      <point x="478.0" y="427.3333333333333" type="curve" smooth="yes"/>
      <point x="478.0" y="311.6666666666667"/>
      <point x="388.6666666666667" y="254.66666666666666"/>
      <point x="268.3333333333333" y="240.0" type="curve" smooth="yes"/>
      <point x="230.66666666666666" y="235.33333333333334"/>
      <point x="192.0" y="232.66666666666666"/>
    </contour>
  </outline>
</glyph>
<glyph name="idotless" format="2">
  <advance width="241.33333333333334"/>
  <unicode hex="0131"/>
  <anchor x="158.0" y="0.0" name="bottom"/>
  <anchor x="202.0" y="0.0" name="ogonek"/>
  <anchor x="104.0" y="400.0" name="top"/>
  <outline>
    <contour>
      <point x="153.33333333333334" y="-14.0" type="curve" smooth="yes"/>
      <point x="183.66666666666666" y="-14.0"/>
      <point x="215.66666666666666" y="3.0"/>
      <point x="233.66666666666666" y="28.0" type="curve" smooth="yes"/>
      <point x="238.33333333333334" y="35.0"/>
      <point x="236.0" y="41.333333333333336"/>
      <point x="230.66666666666666" y="47.333333333333336" type="curve" smooth="yes"/>
      <point x="223.66666666666666" y="55.0"/>
      <point x="216.33333333333334" y="56.666666666666664"/>
      <point x="210.66666666666666" y="50.33333333333333" type="curve" smooth="yes"/>
      <point x="194.33333333333334" y="33.0"/>
      <point x="178.66666666666666" y="24.666666666666664"/>
      <point x="161.66666666666666" y="24.666666666666664" type="curve" smooth="yes"/>
      <point x="137.33333333333334" y="24.666666666666664"/>
      <point x="127.33333333333333" y="42.333333333333336"/>
      <point x="127.33333333333333" y="75.0" type="curve" smooth="yes"/>
      <point x="127.33333333333333" y="397.0" type="line" smooth="yes"/>
      <point x="127.33333333333333" y="407.6666666666667"/>
      <point x="120.0" y="412.0"/>
      <point x="105.66666666666667" y="412.0" type="curve" smooth="yes"/>
      <point x="91.33333333333333" y="412.0"/>
      <point x="85.0" y="407.6666666666667"/>
      <point x="85.0" y="397.0" type="curve" smooth="yes"/>
      <point x="85.0" y="65.66666666666667" type="line" smooth="yes"/>
      <point x="85.0" y="13.0"/>
      <point x="109.33333333333333" y="-14.0"/>
    </contour>
  </outline>
</glyph>
<glyph name="jdotless" format="2">
  <advance width="214.0"/>
  <unicode hex="0237"/>
  <anchor x="104.0" y="400.0" name="top"/>
  <outline>
    <contour>
      <point x="33.666666666666664" y="-314.3333333333333" type="curve" smooth="yes"/>
      <point x="93.66666666666667" y="-314.3333333333333"/>
      <point x="126.0" y="-276.3333333333333"/>
      <point x="126.0" y="-204.66666666666666" type="curve" smooth="yes"/>
      <point x="126.0" y="397.0" type="line" smooth="yes"/>
      <point x="126.0" y="407.6666666666667"/>
      <point x="119.33333333333333" y="412.0"/>
      <point x="105.0" y="412.0" type="curve" smooth="yes"/>
      <point x="90.66666666666667" y="412.0"/>
      <point x="83.66666666666667" y="407.6666666666667"/>
      <point x="83.66666666666667" y="397.0" type="curve" smooth="yes"/>
      <point x="83.66666666666667" y="-204.33333333333334" type="line" smooth="yes"/>
      <point x="83.66666666666667" y="-246.66666666666666"/>
      <point x="75.0" y="-275.6666666666667"/>
      <point x="34.333333333333336" y="-275.6666666666667" type="curve" smooth="yes"/>
      <point x="9.333333333333332" y="-275.6666666666667"/>
      <point x="-4.333333333333334" y="-263.0"/>
      <point x="-16.333333333333336" y="-241.0" type="curve" smooth="yes"/>
      <point x="-22.0" y="-231.33333333333334"/>
      <point x="-29.333333333333336" y="-229.0"/>
      <point x="-42.0" y="-235.66666666666666" type="curve" smooth="yes"/>
      <point x="-51.333333333333336" y="-240.66666666666666"/>
      <point x="-54.666666666666664" y="-249.33333333333334"/>
      <point x="-51.0" y="-258.6666666666667" type="curve" smooth="yes"/>
      <point x="-38.333333333333336" y="-290.3333333333333"/>
      <point x="-8.0" y="-314.3333333333333"/>
    </contour>
  </outline>
</glyph>
<glyph name="gravecomb" format="2">
  <unicode hex="0300"/>
  <anchor x="0.0" y="400.0" name="_top"/>
  <anchor x="0.0" y="654.0" name="top"/>
  <outline>
    <contour>
      <point x="31.333333333333332" y="498.6666666666667" type="curve" smooth="yes"/>
      <point x="39.333333333333336" y="498.6666666666667"/>
      <point x="52.333333333333336" y="509.3333333333333"/>
      <point x="52.333333333333336" y="517.0" type="curve" smooth="yes"/>
      <point x="52.333333333333336" y="519.3333333333334"/>
      <point x="51.666666666666664" y="522.3333333333334"/>
      <point x="48.666666666666664" y="526.6666666666666" type="curve" smooth="yes"/>
      <point x="-46.666666666666664" y="661.6666666666666" type="line" smooth="yes"/>
      <point x="-50.333333333333336" y="667.0"/>
      <point x="-54.0" y="669.6666666666666"/>
      <point x="-59.666666666666664" y="669.6666666666666" type="curve" smooth="yes"/>
      <point x="-70.33333333333333" y="669.6666666666666"/>
      <point x="-89.0" y="655.6666666666666"/>
      <point x="-89.0" y="645.6666666666666" type="curve" smooth="yes"/>
      <point x="-89.0" y="641.3333333333334"/>
      <point x="-87.66666666666667" y="639.0"/>
      <point x="-84.0" y="634.0" type="curve" smooth="yes"/>
      <point x="20.333333333333336" y="505.3333333333333" type="line" smooth="yes"/>
      <point x="24.333333333333336" y="500.3333333333333"/>
      <point x="27.666666666666668" y="498.6666666666667"/>
    </contour>
  </outline>
</glyph>
<glyph name="acutecomb" format="2">
  <unicode hex="0301"/>
  <anchor x="0.0" y="400.0" name="_top"/>
  <anchor x="0.0" y="654.0" name="top"/>
  <outline>
    <contour>
      <point x="-32.333333333333336" y="498.6666666666667" type="curve" smooth="yes"/>
      <point x="-28.666666666666668" y="498.6666666666667"/>
      <point x="-25.333333333333336" y="500.3333333333333"/>
      <point x="-21.333333333333336" y="505.3333333333333" type="curve" smooth="yes"/>
      <point x="83.0" y="634.0" type="line" smooth="yes"/>
      <point x="86.66666666666667" y="639.0"/>
      <point x="88.0" y="641.3333333333334"/>
      <point x="88.0" y="645.6666666666666" type="curve" smooth="yes"/>
      <point x="88.0" y="655.6666666666666"/>
      <point x="69.33333333333333" y="669.6666666666666"/>
      <point x="58.666666666666664" y="669.6666666666666" type="curve" smooth="yes"/>
      <point x="53.0" y="669.6666666666666"/>
      <point x="49.333333333333336" y="667.0"/>
      <point x="45.666666666666664" y="661.6666666666666" type="curve" smooth="yes"/>
      <point x="-49.666666666666664" y="526.6666666666666" type="line" smooth="yes"/>
      <point x="-52.666666666666664" y="522.3333333333334"/>
      <point x="-53.333333333333336" y="519.3333333333334"/>
      <point x="-53.333333333333336" y="517.0" type="curve" smooth="yes"/>
      <point x="-53.333333333333336" y="509.3333333333333"/>
      <point x="-40.333333333333336" y="498.6666666666667"/>
    </contour>
  </outline>
</glyph>
<glyph name="circumflexcomb" format="2">
  <unicode hex="0302"/>
  <anchor x="0.0" y="400.0" name="_top"/>
  <anchor x="0.0" y="654.0" name="top"/>
  <outline>
    <contour>
      <point x="-116.0" y="498.6666666666667" type="curve" smooth="yes"/>
      <point x="-111.0" y="498.6666666666667"/>
      <point x="-107.0" y="501.3333333333333"/>
      <point x="-102.66666666666667" y="505.3333333333333" type="curve" smooth="yes"/>
      <point x="0.0" y="615.0" type="line"/>
      <point x="102.66666666666667" y="505.3333333333333" type="line" smooth="yes"/>
      <point x="107.0" y="501.3333333333333"/>
      <point x="111.0" y="498.6666666666667"/>
      <point x="116.0" y="498.6666666666667" type="curve" smooth="yes"/>
      <point x="124.0" y="498.6666666666667"/>
      <point x="134.66666666666666" y="508.0"/>
      <point x="134.66666666666666" y="517.0" type="curve" smooth="yes"/>
      <point x="134.66666666666666" y="520.0"/>
      <point x="134.0" y="523.0"/>
      <point x="130.33333333333334" y="527.3333333333334" type="curve" smooth="yes"/>
      <point x="20.0" y="659.6666666666666" type="line" smooth="yes"/>
      <point x="14.666666666666666" y="666.0"/>
      <point x="9.333333333333332" y="669.6666666666666"/>
      <point x="0.0" y="669.6666666666666" type="curve" smooth="yes"/>
      <point x="-9.666666666666666" y="669.6666666666666"/>
      <point x="-15.0" y="666.0"/>
      <point x="-20.333333333333332" y="659.6666666666666" type="curve" smooth="yes"/>
      <point x="-130.33333333333334" y="527.3333333333334" type="line" smooth="yes"/>
      <point x="-134.0" y="523.0"/>
      <point x="-134.66666666666666" y="520.0"/>
      <point x="-134.66666666666666" y="517.0" type="curve" smooth="yes"/>
      <point x="-134.66666666666666" y="508.0"/>
      <point x="-124.0" y="498.6666666666667"/>
    </contour>
  </outline>
</glyph>
<glyph name="tildecomb" format="2">
  <unicode hex="0303"/>
  <anchor x="0.0" y="400.0" name="_top"/>
  <anchor x="0.0" y="604.0" name="top"/>
  <outline>
    <contour>
      <point x="-123.0" y="520.0" type="curve" smooth="yes"/>
      <point x="-110.33333333333333" y="520.0"/>
      <point x="-105.0" y="524.3333333333334"/>
      <point x="-104.0" y="535.6666666666666" type="curve" smooth="yes"/>
      <point x="-101.33333333333333" y="571.6666666666666"/>
      <point x="-89.0" y="589.3333333333334"/>
      <point x="-68.0" y="589.3333333333334" type="curve" smooth="yes"/>
      <point x="-25.666666666666664" y="589.3333333333334"/>
      <point x="3.0" y="521.6666666666666"/>
      <point x="63.333333333333336" y="521.6666666666666" type="curve" smooth="yes"/>
      <point x="111.66666666666667" y="521.6666666666666"/>
      <point x="137.66666666666666" y="557.0"/>
      <point x="140.0" y="614.6666666666666" type="curve" smooth="yes"/>
      <point x="140.0" y="626.6666666666666"/>
      <point x="135.33333333333334" y="631.3333333333334"/>
      <point x="121.0" y="631.3333333333334" type="curve" smooth="yes"/>
      <point x="108.33333333333333" y="631.3333333333334"/>
      <point x="103.0" y="627.3333333333334"/>
      <point x="102.0" y="617.0" type="curve" smooth="yes"/>
      <point x="100.0" y="581.6666666666666"/>
      <point x="87.66666666666667" y="563.0"/>
      <point x="65.66666666666667" y="563.0" type="curve" smooth="yes"/>
      <point x="23.0" y="563.0"/>
      <point x="-3.3333333333333335" y="630.3333333333334"/>
      <point x="-66.66666666666667" y="630.3333333333334" type="curve" smooth="yes"/>
      <point x="-109.66666666666667" y="630.3333333333334"/>
      <point x="-139.0" y="597.3333333333334"/>
      <point x="-141.33333333333334" y="536.3333333333334" type="curve" smooth="yes"/>
      <point x="-141.33333333333334" y="525.3333333333334"/>
      <point x="-134.66666666666666" y="520.0"/>
    </contour>
  </outline>
</glyph>
<glyph name="macroncomb" format="2">
  <unicode hex="0304"/>
  <anchor x="0.0" y="400.0" name="_top"/>
  <anchor x="0.0" y="654.0" name="top"/>
  <outline>
    <contour>
      <point x="-107.0" y="565.0" type="curve" smooth="yes"/>
      <point x="107.0" y="565.0" type="line" smooth="yes"/>
      <point x="119.33333333333333" y="565.0"/>
      <point x="122.33333333333333" y="572.3333333333334"/>
      <point x="122.33333333333333" y="584.6666666666666" type="curve" smooth="yes"/>
      <point x="122.33333333333333" y="598.0"/>
      <point x="119.33333333333333" y="606.3333333333334"/>
      <point x="107.0" y="606.3333333333334" type="curve" smooth="yes"/>
      <point x="-107.0" y="606.3333333333334" type="line" smooth="yes"/>
      <point x="-119.33333333333333" y="606.3333333333334"/>
      <point x="-122.33333333333333" y="598.0"/>
      <point x="-122.33333333333333" y="584.6666666666666" type="curve" smooth="yes"/>
      <point x="-122.33333333333333" y="572.3333333333334"/>
      <point x="-119.33333333333333" y="565.0"/>
    </contour>
  </outline>
</glyph>
<glyph name="brevecomb" format="2">
  <unicode hex="0306"/>
  <anchor x="0.0" y="400.0" name="_top"/>
  <anchor x="0.0" y="654.0" name="top"/>
  <outline>
    <contour>
      <point x="0.0" y="500.6666666666667" type="curve" smooth="yes"/>
      <point x="76.66666666666667" y="500.6666666666667"/>
      <point x="127.66666666666667" y="558.0"/>
      <point x="129.0" y="653.0" type="curve" smooth="yes"/>
      <point x="129.33333333333334" y="663.3333333333334"/>
      <point x="123.66666666666667" y="669.3333333333334"/>
      <point x="110.33333333333333" y="669.3333333333334" type="curve" smooth="yes"/>
      <point x="97.0" y="669.3333333333334"/>
      <point x="92.66666666666667" y="664.0"/>
      <point x="91.66666666666667" y="653.0" type="curve" smooth="yes"/>
      <point x="88.33333333333333" y="585.0"/>
      <point x="56.666666666666664" y="545.6666666666666"/>
      <point x="0.0" y="545.6666666666666" type="curve" smooth="yes"/>
      <point x="-56.666666666666664" y="545.6666666666666"/>
      <point x="-88.33333333333333" y="585.0"/>
      <point x="-91.66666666666667" y="653.0" type="curve" smooth="yes"/>
      <point x="-92.66666666666667" y="663.6666666666666"/>
      <point x="-97.33333333333333" y="669.3333333333334"/>
      <point x="-110.66666666666667" y="669.3333333333334" type="curve" smooth="yes"/>
      <point x="-124.0" y="669.3333333333334"/>
      <point x="-129.33333333333334" y="663.3333333333334"/>
      <point x="-129.0" y="653.0" type="curve" smooth="yes"/>
      <point x="-127.66666666666667" y="556.3333333333334"/>
      <point x="-78.0" y="500.6666666666667"/>
    </contour>
  </outline>
</glyph>
<glyph name="dotaccentcomb" format="2">
  <unicode hex="0307"/>
  <anchor x="0.0" y="400.0" name="_top"/>
  <anchor x="0.0" y="620.0" name="top"/>
  <outline>
    <contour>
      <point x="0.0" y="546.3333333333334" type="curve" smooth="yes"/>
      <point x="23.0" y="546.3333333333334"/>
      <point x="35.0" y="559.0"/>
      <point x="34.666666666666664" y="585.6666666666666" type="curve" smooth="yes"/>
      <point x="34.666666666666664" y="612.3333333333334"/>
      <point x="23.0" y="625.3333333333334"/>
      <point x="0.0" y="625.3333333333334" type="curve" smooth="yes"/>
      <point x="-23.333333333333332" y="625.3333333333334"/>
      <point x="-35.0" y="612.3333333333334"/>
      <point x="-35.0" y="585.6666666666666" type="curve" smooth="yes"/>
      <point x="-35.0" y="559.0"/>
      <point x="-23.333333333333332" y="546.3333333333334"/>
    </contour>
  </outline>
</glyph>
<glyph name="dieresiscomb" format="2">
  <unicode hex="0308"/>
  <anchor x="0.0" y="400.0" name="_top"/>
  <anchor x="0.0" y="595.6666666666666" name="top"/>
  <outline>
    <contour>
      <point x="-98.33333333333333" y="546.3333333333334" type="curve" smooth="yes"/>
      <point x="-75.33333333333333" y="546.3333333333334"/>
      <point x="-63.333333333333336" y="559.0"/>
      <point x="-63.666666666666664" y="585.6666666666666" type="curve" smooth="yes"/>
      <point x="-63.666666666666664" y="612.3333333333334"/>
      <point x="-75.33333333333333" y="625.3333333333334"/>
      <point x="-98.33333333333333" y="625.3333333333334" type="curve" smooth="yes"/>
      <point x="-121.66666666666667" y="625.3333333333334"/>
      <point x="-133.33333333333334" y="612.3333333333334"/>
      <point x="-133.33333333333334" y="585.6666666666666" type="curve" smooth="yes"/>
      <point x="-133.33333333333334" y="559.0"/>
      <point x="-121.66666666666667" y="546.3333333333334"/>
    </contour>
    <contour>
      <point x="98.66666666666667" y="546.3333333333334" type="curve" smooth="yes"/>
      <point x="121.66666666666667" y="546.3333333333334"/>
      <point x="133.66666666666666" y="559.0"/>
      <point x="133.33333333333334" y="585.6666666666666" type="curve" smooth="yes"/>
      <point x="133.33333333333334" y="612.3333333333334"/>
      <point x="121.66666666666667" y="625.3333333333334"/>
      <point x="98.66666666666667" y="625.3333333333334" type="curve" smooth="yes"/>
      <point x="75.33333333333333" y="625.3333333333334"/>
      <point x="63.666666666666664" y="612.3333333333334"/>
      <point x="63.666666666666664" y="585.6666666666666" type="curve" smooth="yes"/>
      <point x="63.666666666666664" y="559.0"/>
      <point x="75.33333333333333" y="546.3333333333334"/>
    </contour>
  </outline>
</glyph>
<glyph name="hookabovecomb" format="2">
  <unicode hex="0309"/>
  <anchor x="0.0" y="400.0" name="_top"/>
  <anchor x="0.0" y="654.0" name="top"/>
  <outline>
    <contour>
      <point x="6.666666666666667" y="676.0" type="curve" smooth="yes"/>
      <point x="-23.333333333333332" y="676.0"/>
      <point x="-48.0" y="667.6666666666666"/>
      <point x="-67.33333333333333" y="652.6666666666666" type="curve" smooth="yes"/>
      <point x="-74.66666666666667" y="646.6666666666666"/>
      <point x="-75.66666666666667" y="638.0"/>
      <point x="-71.0" y="629.6666666666666" type="curve" smooth="yes"/>
      <point x="-66.0" y="619.6666666666666"/>
      <point x="-57.666666666666664" y="616.3333333333334"/>
      <point x="-48.333333333333336" y="622.0" type="curve"/>
      <point x="-34.0" y="632.0"/>
      <point x="-16.333333333333332" y="638.0"/>
      <point x="0.3333333333333335" y="638.0" type="curve" smooth="yes"/>
      <point x="21.0" y="638.0"/>
      <point x="35.333333333333336" y="628.0"/>
      <point x="35.333333333333336" y="612.6666666666666" type="curve" smooth="yes"/>
      <point x="35.333333333333336" y="599.3333333333334"/>
      <point x="28.666666666666668" y="589.3333333333334"/>
      <point x="8.666666666666668" y="575.6666666666666" type="curve" smooth="yes"/>
      <point x="-15.333333333333332" y="559.6666666666666"/>
      <point x="-24.0" y="540.0"/>
      <point x="-12.666666666666666" y="512.6666666666666" type="curve" smooth="yes"/>
      <point x="-5.666666666666666" y="496.0" type="line" smooth="yes"/>
      <point x="0.666666666666667" y="480.3333333333333"/>
      <point x="35.666666666666664" y="491.3333333333333"/>
      <point x="29.333333333333332" y="509.0" type="curve" smooth="yes"/>
      <point x="27.333333333333332" y="514.6666666666666" type="line" smooth="yes"/>
      <point x="20.0" y="531.3333333333334"/>
      <point x="22.666666666666664" y="537.3333333333334"/>
      <point x="43.333333333333336" y="552.3333333333334" type="curve" smooth="yes"/>
      <point x="71.33333333333333" y="572.6666666666666"/>
      <point x="81.66666666666667" y="588.6666666666666"/>
      <point x="81.66666666666667" y="614.3333333333334" type="curve" smooth="yes"/>
      <point x="81.66666666666667" y="650.0"/>
      <point x="50.333333333333336" y="676.0"/>
    </contour>
  </outline>
</glyph>
<glyph name="ringcomb" format="2">
  <unicode hex="030A"/>
  <anchor x="0.0" y="400.0" name="_top"/>
  <anchor x="0.0" y="654.0" name="top"/>
  <outline>
    <contour>
      <point x="0.0" y="486.3333333333333" type="curve" smooth="yes"/>
      <point x="59.666666666666664" y="486.3333333333333"/>
      <point x="101.0" y="526.0"/>
      <point x="101.0" y="585.0" type="curve" smooth="yes"/>
      <point x="101.0" y="643.0"/>
      <point x="59.666666666666664" y="682.6666666666666"/>
      <point x="0.0" y="682.6666666666666" type="curve" smooth="yes"/>
      <point x="-59.666666666666664" y="682.6666666666666"/>
      <point x="-101.0" y="643.0"/>
      <point x="-101.0" y="585.0" type="curve" smooth="yes"/>
      <point x="-101.0" y="526.0"/>
      <point x="-59.666666666666664" y="486.3333333333333"/>
    </contour>
    <contour>
      <point x="0.0" y="521.0" type="curve" smooth="yes"/>
      <point x="-37.0" y="521.0"/>
      <point x="-60.666666666666664" y="546.3333333333334"/>
      <point x="-60.666666666666664" y="585.0" type="curve" smooth="yes"/>
      <point x="-60.666666666666664" y="622.6666666666666"/>
      <point x="-37.0" y="648.0"/>
      <point x="0.0" y="648.0" type="curve" smooth="yes"/>
      <point x="37.0" y="648.0"/>
      <point x="60.666666666666664" y="622.6666666666666"/>
      <point x="60.666666666666664" y="585.0" type="curve" smooth="yes"/>
      <point x="60.666666666666664" y="546.3333333333334"/>
      <point x="37.0" y="521.0"/>
    </contour>
  </outline>
</glyph>
<glyph name="hungarumlautcomb" format="2">
  <unicode hex="030B"/>
  <anchor x="0.0" y="400.0" name="_top"/>
  <anchor x="47.333333333333336" y="654.0" name="top"/>
  <outline>
    <contour>
      <point x="-73.33333333333333" y="498.6666666666667" type="curve" smooth="yes"/>
      <point x="-68.66666666666667" y="498.6666666666667"/>
      <point x="-65.33333333333333" y="501.6666666666667"/>
      <point x="-62.0" y="507.3333333333333" type="curve" smooth="yes"/>
      <point x="15.0" y="636.6666666666666" type="line" smooth="yes"/>
      <point x="18.0" y="642.0"/>
      <point x="19.0" y="645.3333333333334"/>
      <point x="19.0" y="649.0" type="curve" smooth="yes"/>
      <point x="19.0" y="660.0"/>
      <point x="0.0" y="669.6666666666666"/>
      <point x="-10.333333333333332" y="669.6666666666666" type="curve" smooth="yes"/>
      <point x="-17.666666666666664" y="669.6666666666666"/>
      <point x="-21.0" y="665.6666666666666"/>
      <point x="-24.333333333333332" y="659.3333333333334" type="curve" smooth="yes"/>
      <point x="-92.66666666666667" y="525.3333333333334" type="line" smooth="yes"/>
      <point x="-95.66666666666667" y="519.3333333333334"/>
      <point x="-95.66666666666667" y="517.0"/>
      <point x="-95.66666666666667" y="514.6666666666666" type="curve" smooth="yes"/>
      <point x="-95.66666666666667" y="505.3333333333333"/>
      <point x="-82.33333333333333" y="498.6666666666667"/>
    </contour>
    <contour>
      <point x="51.333333333333336" y="498.6666666666667" type="curve" smooth="yes"/>
      <point x="56.0" y="498.6666666666667"/>
      <point x="59.333333333333336" y="501.6666666666667"/>
      <point x="62.666666666666664" y="507.3333333333333" type="curve" smooth="yes"/>
      <point x="145.0" y="636.6666666666666" type="line" smooth="yes"/>
      <point x="148.0" y="642.0"/>
      <point x="149.0" y="645.3333333333334"/>
      <point x="149.0" y="649.0" type="curve" smooth="yes"/>
      <point x="149.0" y="660.0"/>
      <point x="130.0" y="669.6666666666666"/>
      <point x="119.66666666666667" y="669.6666666666666" type="curve" smooth="yes"/>
      <point x="112.33333333333333" y="669.6666666666666"/>
      <point x="109.33333333333333" y="665.6666666666666"/>
      <point x="105.66666666666667" y="659.3333333333334" type="curve" smooth="yes"/>
      <point x="32.0" y="525.3333333333334" type="line" smooth="yes"/>
      <point x="29.0" y="519.3333333333334"/>
      <point x="29.0" y="517.0"/>
      <point x="29.0" y="514.6666666666666" type="curve" smooth="yes"/>
      <point x="29.0" y="505.3333333333333"/>
      <point x="42.333333333333336" y="498.6666666666667"/>
    </contour>
  </outline>
</glyph>
